<?xml version="1.0" encoding="utf-8"?>
<!-- Generator: Adobe Illustrator 26.3.1, SVG Export Plug-In . SVG Version: 6.00 Build 0)  -->
<svg version="1.1" id="Layer_1" xmlns="http://www.w3.org/2000/svg" xmlns:xlink="http://www.w3.org/1999/xlink" x="0px" y="0px"
	 viewBox="0 0 455.6 455.6" style="enable-background:new 0 0 455.6 455.6;" xml:space="preserve">
<style type="text/css">
	.st0{fill:#4A265A;}
	.st1{fill:#FFFFFF;}
</style>
<circle class="st0" cx="227.8" cy="227.8" r="227.8"/>
<g>
	<path class="st1" d="M109.6,241.6V258H55.2v-16.4h16.9v-40.2l-13.3,7.6l-7.4-14.8L78.1,179h14.6v62.6H109.6z"/>
	<path class="st1" d="M122.9,248.6c-5.2-6.9-7.7-17-7.7-30.1c0-12.9,2.6-22.8,7.8-29.8c5.2-6.9,12.6-10.4,22.3-10.4
		c9.7,0,17.2,3.5,22.3,10.4c5.2,6.9,7.8,16.9,7.8,29.8c0,13.1-2.6,23.2-7.7,30.1S155.1,259,145.3,259
		C135.6,259,128.1,255.5,122.9,248.6z M153.1,237.6c1.6-3.9,2.4-10.3,2.4-19.2c0-8.7-0.8-15-2.4-18.9c-1.6-3.8-4.1-5.8-7.7-5.8
		s-6.2,1.9-7.7,5.8c-1.6,3.8-2.4,10.1-2.4,18.9c0,8.9,0.8,15.3,2.4,19.2c1.6,3.9,4.1,5.8,7.7,5.8S151.5,241.5,153.1,237.6z"/>
	<path class="st1" d="M204.5,237.6v12.9c0,4.8-0.9,9.1-2.6,13c-1.7,3.9-4.6,7.8-8.7,11.9l-7.5-5.9c4-4,6.5-7.8,7.5-11.4h-9.4v-20.4
		H204.5z"/>
	<path class="st1" d="M220.6,248.6c-5.2-6.9-7.7-17-7.7-30.1c0-12.9,2.6-22.8,7.8-29.8c5.2-6.9,12.6-10.4,22.3-10.4
		c9.7,0,17.2,3.5,22.3,10.4c5.2,6.9,7.8,16.9,7.8,29.8c0,13.1-2.6,23.2-7.7,30.1S252.8,259,243,259
		C233.2,259,225.8,255.5,220.6,248.6z M250.7,237.6c1.6-3.9,2.4-10.3,2.4-19.2c0-8.7-0.8-15-2.4-18.9c-1.6-3.8-4.1-5.8-7.7-5.8
		s-6.2,1.9-7.7,5.8c-1.6,3.8-2.4,10.1-2.4,18.9c0,8.9,0.8,15.3,2.4,19.2c1.6,3.9,4.1,5.8,7.7,5.8S249.2,241.5,250.7,237.6z"/>
	<path class="st1" d="M287.8,248.6c-5.2-6.9-7.7-17-7.7-30.1c0-12.9,2.6-22.8,7.8-29.8c5.2-6.9,12.6-10.4,22.3-10.4
		c9.7,0,17.2,3.5,22.3,10.4c5.2,6.9,7.8,16.9,7.8,29.8c0,13.1-2.6,23.2-7.7,30.1S320,259,310.2,259C300.4,259,293,255.5,287.8,248.6
		z M317.9,237.6c1.6-3.9,2.4-10.3,2.4-19.2c0-8.7-0.8-15-2.4-18.9c-1.6-3.8-4.1-5.8-7.7-5.8s-6.2,1.9-7.7,5.8
		c-1.6,3.8-2.4,10.1-2.4,18.9c0,8.9,0.8,15.3,2.4,19.2c1.6,3.9,4.1,5.8,7.7,5.8S316.4,241.5,317.9,237.6z"/>
	<path class="st1" d="M355,248.6c-5.2-6.9-7.7-17-7.7-30.1c0-12.9,2.6-22.8,7.8-29.8c5.2-6.9,12.6-10.4,22.3-10.4
		c9.7,0,17.2,3.5,22.3,10.4c5.2,6.9,7.8,16.9,7.8,29.8c0,13.1-2.6,23.2-7.7,30.1S387.2,259,377.4,259
		C367.6,259,360.2,255.5,355,248.6z M385.1,237.6c1.6-3.9,2.4-10.3,2.4-19.2c0-8.7-0.8-15-2.4-18.9c-1.6-3.8-4.1-5.8-7.7-5.8
		s-6.2,1.9-7.7,5.8c-1.6,3.8-2.4,10.1-2.4,18.9c0,8.9,0.8,15.3,2.4,19.2c1.6,3.9,4.1,5.8,7.7,5.8S383.6,241.5,385.1,237.6z"/>
</g>
</svg>
