<?xml version="1.0" encoding="utf-8"?>
<!-- Generator: Adobe Illustrator 26.3.1, SVG Export Plug-In . SVG Version: 6.00 Build 0)  -->
<svg version="1.1" id="Layer_1" xmlns="http://www.w3.org/2000/svg" xmlns:xlink="http://www.w3.org/1999/xlink" x="0px" y="0px"
	 viewBox="0 0 455.6 455.6" style="enable-background:new 0 0 455.6 455.6;" xml:space="preserve">
<style type="text/css">
	.st0{fill:#4A265A;}
	.st1{fill:#FFFFFF;}
</style>
<circle class="st0" cx="227.8" cy="227.8" r="227.8"/>
<g>
	<path class="st1" d="M75,241.6h32.4V258H47.5v-16.4h7.1v-17.4h-7.1v-11.6h7.1v-12c0-4.4,1.1-8.3,3.4-11.8c2.3-3.4,5.4-6.1,9.5-8
		c4.1-1.9,8.8-2.9,14.1-2.9c5.2,0,10.2,0.7,14.8,2.2c4.7,1.5,8.8,3.5,12.3,6.2l-6.4,14.6c-7.6-4.7-13.9-7.1-18.9-7.1
		c-2.8,0-4.9,0.7-6.3,2.1c-1.4,1.4-2.1,3.4-2.1,6v10.6h17.2v11.6H75V241.6z"/>
	<path class="st1" d="M175.4,241.6V258H121v-16.4h16.9v-40.2l-13.3,7.6l-7.4-14.8l26.8-15.2h14.6v62.6H175.4z"/>
	<path class="st1" d="M235.7,224.3c2.5,3.4,3.8,7.4,3.8,12.2c0,6.9-2.7,12.4-8.2,16.4c-5.5,4-13,6-22.5,6c-5.6,0-11-0.8-16.1-2.3
		s-9.3-3.6-12.3-6.1l6.4-14.6c7,4.7,14,7.1,21.1,7.1c4.5,0,7.7-0.7,9.6-2c1.9-1.3,2.9-3.6,2.9-6.7c0-2.9-0.9-5-2.8-6.3
		c-1.9-1.3-4.9-1.9-9.2-1.9H196v-15.9h10.2c4.1,0,7.1-0.6,9-1.8c1.9-1.2,2.8-3.1,2.8-5.7c0-2.8-0.9-4.9-2.6-6.4
		c-1.8-1.5-4.2-2.3-7.4-2.3c-3.1,0-6.5,0.6-10,1.8c-3.5,1.2-6.9,3-10.1,5.2l-6.4-14.6c3.1-2.5,7.3-4.6,12.4-6.1
		c5.1-1.5,10.3-2.3,15.6-2.3c5.6,0,10.5,0.9,14.7,2.7c4.2,1.8,7.5,4.3,9.8,7.6c2.3,3.3,3.5,7.1,3.5,11.4c0,4.2-1.1,7.8-3.2,10.9
		c-2.1,3.1-5.1,5.3-9,6.7C229.7,218.6,233.2,220.9,235.7,224.3z"/>
	<path class="st1" d="M305.8,224.2c2.4,3.2,3.6,7.3,3.6,12c0,7.1-2.8,12.6-8.3,16.6c-5.6,4-13.2,6-22.8,6c-9.6,0-17.2-2-22.8-6
		c-5.6-4-8.3-9.5-8.3-16.6c0-4.9,1.2-9,3.7-12.3s6-5.5,10.5-6.7c-3.9-1.5-6.9-3.8-9-6.9c-2.1-3.1-3.1-6.7-3.1-10.9
		c0-6.6,2.6-11.9,7.8-15.7c5.2-3.8,12.3-5.8,21.2-5.8c9,0,16,1.9,21.2,5.8c5.2,3.8,7.8,9.1,7.8,15.7c0,4.3-1.1,8.1-3.2,11.2
		c-2.1,3.1-5.1,5.3-8.8,6.6C299.9,218.7,303.4,221,305.8,224.2z M290.6,234.6c0-5.8-4.1-8.7-12.2-8.7c-8.1,0-12.2,2.9-12.2,8.7
		s4.1,8.7,12.2,8.7C286.5,243.3,290.6,240.4,290.6,234.6z M270.8,195.6c-1.6,1.3-2.5,3.4-2.5,6.3c0,2.9,0.8,5,2.5,6.4
		c1.6,1.3,4.1,2,7.5,2c3.4,0,5.9-0.7,7.5-2c1.6-1.3,2.5-3.5,2.5-6.4c0-2.9-0.8-5-2.5-6.3c-1.6-1.3-4.1-2-7.5-2
		C275,193.6,272.5,194.3,270.8,195.6z"/>
	<path class="st1" d="M402.4,207.4c3.1,3.9,4.6,9.9,4.6,17.9V258h-19.9v-32.1c0-3.2-0.5-5.5-1.5-6.9c-1-1.4-2.6-2.1-4.8-2.1
		c-2.8,0-4.9,1-6.3,2.9c-1.5,1.9-2.2,4.7-2.2,8.3v30h-19.9v-32.1c0-3.2-0.5-5.5-1.5-6.9c-1-1.4-2.6-2.1-4.8-2.1
		c-2.8,0-4.9,1-6.3,2.9c-1.4,1.9-2.1,4.7-2.1,8.3v30h-19.9v-55.1h19.4v6.9c3.7-5.5,9.3-8.3,16.8-8.3c7.9,0,13.3,3.2,16,9.7
		c1.9-3.1,4.5-5.4,7.7-7.2c3.2-1.7,6.7-2.6,10.5-2.6C394.5,201.5,399.3,203.5,402.4,207.4z"/>
</g>
</svg>
