<?xml version="1.0" encoding="utf-8"?>
<!-- Generator: Adobe Illustrator 26.3.1, SVG Export Plug-In . SVG Version: 6.00 Build 0)  -->
<svg version="1.1" id="Layer_1" xmlns="http://www.w3.org/2000/svg" xmlns:xlink="http://www.w3.org/1999/xlink" x="0px" y="0px"
	 viewBox="0 0 455.6 455.6" style="enable-background:new 0 0 455.6 455.6;" xml:space="preserve">
<style type="text/css">
	.st0{fill:#4A265A;}
	.st1{fill:#FFFFFF;}
</style>
<circle class="st0" cx="227.8" cy="227.8" r="227.8"/>
<g>
	<path class="st1" d="M108.6,241.6h32.4V258H81.1v-16.4h7.1v-17.4h-7.1v-11.6h7.1v-12c0-4.4,1.1-8.3,3.4-11.8c2.3-3.4,5.4-6.1,9.5-8
		c4.1-1.9,8.8-2.9,14.1-2.9c5.2,0,10.2,0.7,14.8,2.2c4.7,1.5,8.8,3.5,12.3,6.2l-6.4,14.6c-7.6-4.7-13.9-7.1-18.9-7.1
		c-2.8,0-4.9,0.7-6.3,2.1c-1.4,1.4-2.1,3.4-2.1,6v10.6h17.2v11.6h-17.2V241.6z"/>
	<path class="st1" d="M206.8,179v15.3L172.5,258h-22.1l34.3-62.6h-36.3V179H206.8z"/>
	<path class="st1" d="M276.2,241.6V258h-54.4v-16.4h16.9v-40.2l-13.3,7.6l-7.4-14.8l26.8-15.2h14.6v62.6H276.2z"/>
	<path class="st1" d="M368.8,207.4c3.1,3.9,4.6,9.9,4.6,17.9V258h-19.9v-32.1c0-3.2-0.5-5.5-1.5-6.9c-1-1.4-2.6-2.1-4.8-2.1
		c-2.8,0-4.9,1-6.3,2.9c-1.5,1.9-2.2,4.7-2.2,8.3v30h-19.9v-32.1c0-3.2-0.5-5.5-1.5-6.9c-1-1.4-2.6-2.1-4.8-2.1
		c-2.8,0-4.9,1-6.3,2.9c-1.4,1.9-2.1,4.7-2.1,8.3v30h-19.9v-55.1h19.4v6.9c3.7-5.5,9.3-8.3,16.8-8.3c7.9,0,13.3,3.2,16,9.7
		c1.9-3.1,4.5-5.4,7.7-7.2c3.2-1.7,6.7-2.6,10.5-2.6C360.9,201.5,365.7,203.5,368.8,207.4z"/>
</g>
</svg>
