<?xml version="1.0" encoding="utf-8"?>
<!-- Generator: Adobe Illustrator 25.0.0, SVG Export Plug-In . SVG Version: 6.00 Build 0)  -->
<svg version="1.1" id="Layer_1" xmlns="http://www.w3.org/2000/svg" xmlns:xlink="http://www.w3.org/1999/xlink" x="0px" y="0px"
	 viewBox="0 0 80.38 80.38" style="enable-background:new 0 0 80.38 80.38;" xml:space="preserve">
<style type="text/css">
	.st0{fill:#4A265A;}
	.st1{fill:#FFFFFF;}
	.st2{fill:#28BFA2;stroke:#4A265A;stroke-width:0.1984;stroke-miterlimit:10;}
	.st3{fill:none;stroke:#28BFA2;stroke-width:1.1339;stroke-miterlimit:10;}
	.st4{fill:#FFFFFF;stroke:#4A265A;stroke-width:0.1984;stroke-miterlimit:10;}
	.st5{fill:#28BFA2;}
	.st6{fill:#FFFFFF;stroke:#FFFFFF;stroke-width:0.0567;stroke-miterlimit:10;}
	.st7{fill:#28BFA2;stroke:#4A265A;stroke-width:0.0567;stroke-miterlimit:10;}
	.st8{fill:#FFFFFF;stroke:#4A265A;stroke-width:0.2126;stroke-miterlimit:10;}
	.st9{fill:#28BFA2;stroke:#4A265A;stroke-width:0.2835;stroke-miterlimit:10;}
	.st10{fill:#FFFFFF;stroke:#4A265A;stroke-width:0.2835;stroke-miterlimit:10;}
	.st11{fill:#FFFFFF;stroke:#4A265A;stroke-width:0.0283;stroke-miterlimit:10;}
	.st12{fill:#28BFA2;stroke:#4A265A;stroke-width:0.0283;stroke-miterlimit:10;}
	.st13{fill:none;}
	.st14{fill:#FFFFFF;stroke:#4A265A;stroke-width:0.085;stroke-miterlimit:10;}
	.st15{fill:#28BFA2;stroke:#4A265A;stroke-width:0.085;stroke-miterlimit:10;}
	.st16{fill:#28BFA2;stroke:#4A265A;stroke-width:1.0205;stroke-miterlimit:10;}
	.st17{fill:#FFFFFF;stroke:#4A265A;stroke-width:1.0205;stroke-miterlimit:10;}
	.st18{fill:none;stroke:#28BFA2;stroke-width:1.1339;stroke-linecap:round;stroke-miterlimit:10;}
	.st19{fill:#28BFA2;stroke:#4A265A;stroke-width:0.4819;stroke-miterlimit:10;}
	.st20{fill:#28BFA2;stroke:#28BFA2;stroke-width:0.2551;stroke-miterlimit:10;}
	.st21{fill:#FFFFFF;stroke:#4A265A;stroke-width:0.4819;stroke-miterlimit:10;}
	.st22{fill:none;stroke:#FFFFFF;stroke-width:1.1339;stroke-miterlimit:10;}
	.st23{fill:none;stroke:#FFFFFF;stroke-width:1.1339;stroke-linecap:round;stroke-miterlimit:10;}
	.st24{fill:#FFFFFF;stroke:#FFFFFF;stroke-width:0.4819;stroke-miterlimit:10;}
	.st25{fill:#28BFA2;stroke:#28BFA2;stroke-width:0.4819;stroke-miterlimit:10;}
	.st26{fill:#FFFFFF;stroke:#4A265A;stroke-width:0.3118;stroke-miterlimit:10;}
	.st27{fill:#FFFFFF;stroke:#4A265A;stroke-width:0.7087;stroke-miterlimit:10;}
	.st28{fill:#28BFA2;stroke:#4A265A;stroke-width:0.7087;stroke-miterlimit:10;}
	.st29{fill:#28BFA2;stroke:#4A265A;stroke-width:0.3118;stroke-miterlimit:10;}
	.st30{fill:#FFFFFF;stroke:#FFFFFF;stroke-width:0.085;stroke-miterlimit:10;}
	.st31{fill:#28BFA2;stroke:#28BFA2;stroke-width:0.085;stroke-miterlimit:10;}
	.st32{fill:#FFFFFF;stroke:#28BFA2;stroke-width:0.5669;stroke-miterlimit:10;}
</style>
<rect x="7.69" y="37.02" class="st19" width="7.12" height="1.65"/>
<g>
	<circle class="st0" cx="40.19" cy="40.19" r="40.19"/>
	<path class="st20" d="M45.46,31.84c-4.61,0-8.35,3.74-8.35,8.35s3.74,8.35,8.35,8.35s8.35-3.74,8.35-8.35S50.07,31.84,45.46,31.84z
		 M45.46,32.68c4.15,0,7.51,3.36,7.51,7.51s-3.36,7.51-7.51,7.51s-7.51-3.36-7.51-7.51S41.31,32.68,45.46,32.68z"/>
	<g>
		<path class="st1" d="M44.79,42.8h3.18v1.05h-5.29V42.8h0.83v-2.12h-0.83v-0.81h0.83v-1.26c0-0.4,0.09-0.75,0.27-1.05
			s0.44-0.53,0.77-0.7c0.33-0.17,0.72-0.25,1.16-0.25s0.86,0.07,1.27,0.22c0.41,0.15,0.76,0.35,1.08,0.62l-0.44,0.94
			c-0.64-0.49-1.25-0.74-1.82-0.74c-0.32,0-0.57,0.09-0.75,0.27c-0.17,0.18-0.26,0.44-0.26,0.78v1.17h1.71v0.81h-1.71V42.8z"/>
	</g>
	<path class="st21" d="M65.6,27.2H25.69c-0.46,0-0.86,0.4-0.86,0.86v24.27c0,0.46,0.4,0.86,0.86,0.86H65.6
		c0.46,0,0.86-0.4,0.86-0.86V27.99C66.39,27.53,66.06,27.2,65.6,27.2z M64.74,51.4H26.49V28.85h38.26V51.4z"/>
	<rect x="13.69" y="32.61" class="st19" width="8.38" height="1.65"/>
	<rect x="17.84" y="37.29" class="st19" width="4.22" height="1.65"/>
	<rect x="11.25" y="41.91" class="st19" width="10.82" height="1.65"/>
	<rect x="16.66" y="46.26" class="st19" width="5.41" height="1.65"/>
</g>
</svg>
