<?xml version="1.0" encoding="utf-8"?>
<!-- Generator: Adobe Illustrator 25.0.0, SVG Export Plug-In . SVG Version: 6.00 Build 0)  -->
<svg version="1.1" id="Layer_1" xmlns="http://www.w3.org/2000/svg" xmlns:xlink="http://www.w3.org/1999/xlink" x="0px" y="0px"
	 viewBox="0 0 80.38 80.38" style="enable-background:new 0 0 80.38 80.38;" xml:space="preserve">
<style type="text/css">
	.st0{fill:#4A265A;}
	.st1{fill:#FFFFFF;}
	.st2{fill:#28BFA2;stroke:#4A265A;stroke-width:0.1984;stroke-miterlimit:10;}
	.st3{fill:none;stroke:#28BFA2;stroke-width:1.1339;stroke-miterlimit:10;}
	.st4{fill:#FFFFFF;stroke:#4A265A;stroke-width:0.1984;stroke-miterlimit:10;}
	.st5{fill:#28BFA2;}
	.st6{fill:#FFFFFF;stroke:#FFFFFF;stroke-width:0.0567;stroke-miterlimit:10;}
	.st7{fill:#28BFA2;stroke:#4A265A;stroke-width:0.0567;stroke-miterlimit:10;}
	.st8{fill:#FFFFFF;stroke:#4A265A;stroke-width:0.2126;stroke-miterlimit:10;}
	.st9{fill:#28BFA2;stroke:#4A265A;stroke-width:0.2835;stroke-miterlimit:10;}
	.st10{fill:#FFFFFF;stroke:#4A265A;stroke-width:0.2835;stroke-miterlimit:10;}
	.st11{fill:#FFFFFF;stroke:#4A265A;stroke-width:0.0283;stroke-miterlimit:10;}
	.st12{fill:#28BFA2;stroke:#4A265A;stroke-width:0.0283;stroke-miterlimit:10;}
	.st13{fill:none;}
	.st14{fill:#FFFFFF;stroke:#4A265A;stroke-width:0.085;stroke-miterlimit:10;}
	.st15{fill:#28BFA2;stroke:#4A265A;stroke-width:0.085;stroke-miterlimit:10;}
	.st16{fill:#28BFA2;stroke:#4A265A;stroke-width:1.0205;stroke-miterlimit:10;}
	.st17{fill:#FFFFFF;stroke:#4A265A;stroke-width:1.0205;stroke-miterlimit:10;}
	.st18{fill:none;stroke:#28BFA2;stroke-width:1.1339;stroke-linecap:round;stroke-miterlimit:10;}
	.st19{fill:#28BFA2;stroke:#4A265A;stroke-width:0.4819;stroke-miterlimit:10;}
	.st20{fill:#28BFA2;stroke:#28BFA2;stroke-width:0.2551;stroke-miterlimit:10;}
	.st21{fill:#FFFFFF;stroke:#4A265A;stroke-width:0.4819;stroke-miterlimit:10;}
	.st22{fill:none;stroke:#FFFFFF;stroke-width:1.1339;stroke-miterlimit:10;}
	.st23{fill:none;stroke:#FFFFFF;stroke-width:1.1339;stroke-linecap:round;stroke-miterlimit:10;}
	.st24{fill:#FFFFFF;stroke:#FFFFFF;stroke-width:0.4819;stroke-miterlimit:10;}
	.st25{fill:#28BFA2;stroke:#28BFA2;stroke-width:0.4819;stroke-miterlimit:10;}
	.st26{fill:#FFFFFF;stroke:#4A265A;stroke-width:0.3118;stroke-miterlimit:10;}
	.st27{fill:#FFFFFF;stroke:#4A265A;stroke-width:0.7087;stroke-miterlimit:10;}
	.st28{fill:#28BFA2;stroke:#4A265A;stroke-width:0.7087;stroke-miterlimit:10;}
	.st29{fill:#28BFA2;stroke:#4A265A;stroke-width:0.3118;stroke-miterlimit:10;}
	.st30{fill:#FFFFFF;stroke:#FFFFFF;stroke-width:0.085;stroke-miterlimit:10;}
	.st31{fill:#28BFA2;stroke:#28BFA2;stroke-width:0.085;stroke-miterlimit:10;}
	.st32{fill:#FFFFFF;stroke:#28BFA2;stroke-width:0.5669;stroke-miterlimit:10;}
</style>
<g>
	<circle class="st0" cx="40.19" cy="40.19" r="40.19"/>
	<g>
		<path class="st9" d="M53.99,43.8V33.06c0.01-5.04-3.76-9.3-8.77-9.89l2.56-5.1c0.19-0.38,0.04-0.84-0.34-1.03
			c-0.11-0.05-0.23-0.08-0.35-0.08h-13.8c-0.42,0-0.77,0.34-0.77,0.77c0,0.12,0.03,0.24,0.08,0.34l2.55,5.1
			c-5,0.61-8.76,4.85-8.77,9.89v13.8h1.53v-13.8c0.01-4.66,3.78-8.43,8.43-8.43h7.67c4.65-0.01,8.43,3.76,8.43,8.41
			c0,0.01,0,0.02,0,0.02V43.8H53.99z M43.55,23.1h-6.72l-2.3-4.6h11.32L43.55,23.1z"/>
		<path class="st9" d="M33.67,28.42c0.42-0.24,0.87-0.43,1.34-0.55l-0.38-1.48c-0.6,0.16-1.19,0.39-1.73,0.71L33.67,28.42z"/>
		<path class="st9" d="M29.46,36.13h1.53v-3.07c0-1.45,0.58-2.84,1.63-3.85l-1.07-1.1c-1.34,1.29-2.1,3.08-2.1,4.95V36.13z"/>
		<path class="st10" d="M19.38,54.64l13.02,7.1c1.47,0.8,3.11,1.22,4.78,1.22h25.26c0.42,0,0.77-0.34,0.77-0.77V48.4
			c0-0.42-0.34-0.77-0.77-0.77h-5.87l-0.09-0.07c-0.9-0.7-1.9-1.28-2.96-1.7c-3.72-1.52-7.94-1.15-11.34,1h-5.82
			c-2.12,0-3.83,1.72-3.83,3.83c0,0.39,0.06,0.78,0.18,1.15l-9.48-4.75c-1.41-0.71-3.1-0.55-4.34,0.42
			c-1.06,0.79-1.69,2.04-1.69,3.37v0.08C17.19,52.5,18.03,53.91,19.38,54.64z M57.06,49.16h4.6v12.27h-4.6V49.16z M18.72,50.88
			c0.01-0.86,0.42-1.66,1.11-2.17c0.78-0.59,1.83-0.68,2.7-0.24l11.95,5.98c0.11,0.05,0.22,0.08,0.34,0.08h11.5V53h-9.97
			c-1.27,0-2.3-1.03-2.3-2.3c0-1.27,1.03-2.3,2.3-2.3h6.04c0.15,0,0.3-0.04,0.42-0.13c3-1.98,6.79-2.35,10.12-0.99
			c0.93,0.37,1.8,0.87,2.58,1.48v12.66H37.17c-1.41,0-2.8-0.36-4.04-1.03l-13.02-7.1c-0.85-0.46-1.39-1.36-1.38-2.33V50.88z"/>
		<rect x="58.59" y="57.6" class="st10" width="1.53" height="1.53"/>
	</g>
	<path class="st8" d="M39.46,39.06h4.07v1.35h-6.79v-1.35h1.07v-2.72h-1.07V35.3h1.07v-1.61c0-0.51,0.12-0.96,0.35-1.35
		s0.56-0.68,0.99-0.9c0.42-0.21,0.92-0.32,1.48-0.32s1.11,0.09,1.62,0.28c0.52,0.19,0.98,0.45,1.38,0.8l-0.56,1.21
		c-0.82-0.63-1.6-0.95-2.33-0.95c-0.42,0-0.73,0.12-0.96,0.34c-0.22,0.23-0.33,0.56-0.33,1v1.49h2.2v1.04h-2.2V39.06z"/>
</g>
</svg>
