<?xml version="1.0" encoding="UTF-8" standalone="no"?>
<!DOCTYPE svg PUBLIC "-//W3C//DTD SVG 1.1//EN" "http://www.w3.org/Graphics/SVG/1.1/DTD/svg11.dtd">
<svg width="100%" height="100%" viewBox="0 0 103 46" version="1.1" xmlns="http://www.w3.org/2000/svg" xmlns:xlink="http://www.w3.org/1999/xlink" xml:space="preserve" xmlns:serif="http://www.serif.com/" style="fill-rule:evenodd;clip-rule:evenodd;stroke-linejoin:round;stroke-miterlimit:2;">
    <g transform="matrix(1,0,0,1,-135,-29.002)">
        <g transform="matrix(1,0,0,1,-19.682,-526.438)">
            <path d="M155.828,555.439L177.505,555.439C178.133,555.441 178.648,555.957 178.648,556.585C178.648,556.69 178.634,556.795 178.605,556.896C176.253,565.139 172.044,572.124 166.665,576.896C161.286,572.125 157.076,565.14 154.725,556.896C154.696,556.795 154.682,556.69 154.682,556.585C154.682,555.956 155.199,555.439 155.828,555.439C155.828,555.439 155.828,555.439 155.828,555.439Z" style="fill:rgb(0,169,143);fill-rule:nonzero;"/>
        </g>
        <g transform="matrix(1,0,0,1,-19.682,-568.857)">
            <path d="M178.607,641.785C176.255,633.543 172.046,626.557 166.667,621.785C161.288,626.555 157.078,633.541 154.727,641.785C154.698,641.886 154.684,641.991 154.684,642.096C154.684,642.724 155.199,643.24 155.827,643.242L177.504,643.242C178.133,643.242 178.65,642.725 178.65,642.096C178.65,641.991 178.636,641.886 178.607,641.785Z" style="fill:rgb(0,191,214);fill-rule:nonzero;"/>
        </g>
        <g transform="matrix(1,0,0,1,161.202,45.242)">
            <g transform="matrix(1,0,0,1,-227.335,-600.698)">
                <path d="M230.721,602.62L227.335,602.62L227.335,600.826L236.176,600.826L236.176,602.62L232.8,602.62L232.8,611.038L230.722,611.038L230.721,602.62Z" style="fill:white;fill-rule:nonzero;"/>
            </g>
            <g transform="matrix(1,0,0,1,-246.609,-600.698)">
                <rect x="257.48" y="600.826" width="2.089" height="10.211" style="fill:white;fill-rule:nonzero;"/>
            </g>
            <g transform="matrix(1,0,0,1,-254.436,-600.472)">
                <path d="M278.5,602.36C279.297,601.147 280.669,600.432 282.119,600.472C282.221,600.464 282.323,600.46 282.426,600.46C284.545,600.46 286.29,602.204 286.29,604.324C286.29,604.436 286.285,604.548 286.275,604.66L286.275,610.811L284.175,610.811L284.175,605.1C284.175,603.423 283.275,602.452 281.791,602.452C281.732,602.448 281.674,602.446 281.615,602.446C280.221,602.446 279.069,603.581 279.048,604.974L279.048,610.808L276.948,610.808L276.948,605.1C276.948,603.423 276.048,602.452 274.564,602.452C274.507,602.448 274.449,602.446 274.392,602.446C272.981,602.446 271.82,603.607 271.82,605.018C271.82,605.045 271.82,605.073 271.821,605.1L271.821,610.807L269.721,610.807L269.721,600.6L271.821,600.6L271.821,601.956C272.524,600.971 273.682,600.41 274.891,600.469C276.354,600.358 277.758,601.094 278.5,602.36Z" style="fill:white;fill-rule:nonzero;"/>
            </g>
            <g transform="matrix(1,0,0,1,-286.637,-600.472)">
                <path d="M329.708,610.03C328.531,610.696 327.199,611.038 325.847,611.022C322.439,611.022 320.087,608.87 320.087,605.747C320.085,605.685 320.084,605.622 320.084,605.559C320.084,602.768 322.381,600.47 325.173,600.47C325.215,600.47 325.257,600.471 325.299,600.472C325.334,600.471 325.369,600.471 325.405,600.471C328.066,600.471 330.256,602.661 330.256,605.322C330.256,605.721 330.206,606.119 330.109,606.506L322.228,606.506C322.597,608.162 323.884,609.08 325.847,609.08C326.963,609.06 328.06,608.789 329.056,608.287L329.708,610.03ZM328.221,604.84C328.131,603.46 326.97,602.372 325.587,602.372C325.512,602.372 325.437,602.376 325.362,602.382C323.856,602.255 322.497,603.343 322.292,604.84L328.221,604.84Z" style="fill:white;fill-rule:nonzero;"/>
            </g>
            <g transform="matrix(1,0,0,1,2.717,15.015)">
                <g transform="matrix(1,0,0,1,-234.87,-642.285)">
                    <path d="M236.133,647.973L236.133,652.6L234.87,652.6L234.87,642.385L242.281,642.385L242.281,643.5L236.133,643.5L236.133,646.857L241.144,646.857L241.144,647.973L236.133,647.973Z" style="fill:white;fill-rule:nonzero;"/>
                </g>
                <g transform="matrix(1,0,0,1,-252.199,-642.285)">
                    <rect x="261.973" y="642.385" width="1.263" height="10.215" style="fill:white;fill-rule:nonzero;"/>
                </g>
                <g transform="matrix(1,0,0,1,-259.235,-642.108)">
                    <path d="M282.189,646.256L282.189,652.425L280.947,652.425L280.947,646.635C280.947,644.372 279.799,643.287 277.705,643.287C277.667,643.286 277.629,643.285 277.591,643.285C275.753,643.285 274.24,644.798 274.24,646.636C274.24,646.657 274.241,646.677 274.241,646.698L274.241,652.425L272.978,652.425L272.978,642.225L274.241,642.225L274.241,644.077C275.017,642.81 276.419,642.056 277.904,642.108C280.452,642.108 282.189,643.519 282.189,646.256Z" style="fill:white;fill-rule:nonzero;"/>
                </g>
                <g transform="matrix(1,0,0,1,-279.213,-642.108)">
                    <path d="M311.531,652.425L311.531,650.614C310.676,651.9 309.221,652.663 307.678,652.635C305.625,652.635 304.225,651.54 304.225,649.729C304.225,647.761 306.004,646.629 308.594,646.629L311.531,646.629L311.531,646.175C311.531,644.385 310.394,643.312 308.225,643.312C307.111,643.328 306.014,643.591 305.014,644.081L304.877,642.923C305.942,642.409 307.106,642.132 308.288,642.112C311.204,642.112 312.783,643.639 312.783,646.176L312.783,652.429L311.531,652.425ZM311.531,648.725L311.531,647.609L308.541,647.609C306.73,647.609 305.488,648.314 305.488,649.651C305.492,650.725 306.377,651.607 307.451,651.607C307.541,651.607 307.631,651.6 307.72,651.588C309.489,651.62 311.066,650.437 311.531,648.73L311.531,648.725Z" style="fill:white;fill-rule:nonzero;"/>
                </g>
                <g transform="matrix(1,0,0,1,-298.943,-642.108)">
                    <path d="M344.295,646.256L344.295,652.425L343.053,652.425L343.053,646.635C343.053,644.372 341.905,643.287 339.811,643.287C339.773,643.286 339.735,643.285 339.697,643.285C337.859,643.285 336.346,644.798 336.346,646.636C336.346,646.657 336.347,646.677 336.347,646.698L336.347,652.425L335.084,652.425L335.084,642.225L336.347,642.225L336.347,644.077C337.123,642.809 338.526,642.056 340.011,642.108C342.558,642.108 344.295,643.519 344.295,646.256Z" style="fill:white;fill-rule:nonzero;"/>
                </g>
                <g transform="matrix(1,0,0,1,-318.8,-642.108)">
                    <path d="M371.783,642.108C372.832,642.088 373.871,642.315 374.815,642.772L374.678,643.93C373.773,643.504 372.783,643.292 371.783,643.309C369.215,643.309 367.456,644.92 367.456,647.362C367.456,647.384 367.455,647.407 367.455,647.429C367.455,649.635 369.271,651.45 371.476,651.45C371.589,651.45 371.702,651.445 371.814,651.436C372.852,651.444 373.879,651.213 374.814,650.762L375.046,651.931C374.031,652.392 372.929,652.632 371.814,652.636C368.445,652.636 366.14,650.488 366.14,647.362C366.14,644.236 368.436,642.108 371.783,642.108Z" style="fill:white;fill-rule:nonzero;"/>
                </g>
                <g transform="matrix(1,0,0,1,-336.657,-642.108)">
                    <path d="M403.586,651.635C402.451,652.311 401.149,652.657 399.828,652.635C396.417,652.635 394.07,650.487 394.07,647.372C394.067,647.305 394.066,647.239 394.066,647.172C394.066,644.393 396.353,642.106 399.132,642.106C399.178,642.106 399.224,642.107 399.27,642.108C399.358,642.103 399.446,642.101 399.534,642.101C402.105,642.101 404.221,644.216 404.221,646.788C404.221,647.14 404.181,647.491 404.102,647.835L395.428,647.835C395.686,649.95 397.552,651.53 399.681,651.435C400.958,651.503 402.225,651.18 403.313,650.508L403.586,651.635ZM402.923,646.761C402.923,646.749 402.923,646.738 402.923,646.726C402.923,644.848 401.378,643.303 399.5,643.303C399.437,643.303 399.375,643.305 399.312,643.308C397.313,643.214 395.584,644.764 395.459,646.761L402.923,646.761Z" style="fill:white;fill-rule:nonzero;"/>
                </g>
            </g>
        </g>
        <g transform="matrix(0.466361,0,0,0.466361,191.951,46.6123)">
            <text x="80.327px" y="19.632px" style="font-family:'ArialMT', 'Arial', sans-serif;font-size:12px;fill:white;">®</text>
        </g>
    </g>
</svg>
