<svg width="200" height="201" viewBox="0 0 200 201" fill="none" xmlns="http://www.w3.org/2000/svg">
<path fill-rule="evenodd" clip-rule="evenodd" d="M142.339 154.662C127.311 166.96 108.102 174.338 87.1692 174.338C39.027 174.338 0 135.311 0 87.1692C0 39.027 39.027 0 87.1692 0C135.311 0 174.338 39.027 174.338 87.1692C174.338 108.291 166.826 127.658 154.327 142.745L200 188.474L187.899 200.575L142.339 154.662ZM157.582 87.1692C157.582 126.057 126.057 157.582 87.1691 157.582C48.2813 157.582 16.7564 126.057 16.7564 87.1692C16.7564 48.2813 48.2813 16.7564 87.1691 16.7564C126.057 16.7564 157.582 48.2813 157.582 87.1692Z" fill="#3D1050"/>
</svg>
