<?xml version="1.0" encoding="utf-8"?>
<!-- Generator: Adobe Illustrator 25.0.0, SVG Export Plug-In . SVG Version: 6.00 Build 0)  -->
<svg version="1.1" id="Layer_1" xmlns="http://www.w3.org/2000/svg" xmlns:xlink="http://www.w3.org/1999/xlink" x="0px" y="0px"
	 viewBox="0 0 113.89 113.89" style="enable-background:new 0 0 113.89 113.89;" xml:space="preserve">
<style type="text/css">
	.st0{fill:#4A265A;}
	.st1{fill:#FFFFFF;}
	.st2{fill:#28BFA2;stroke:#4A265A;stroke-width:0.1984;stroke-miterlimit:10;}
	.st3{fill:none;stroke:#28BFA2;stroke-width:1.1339;stroke-miterlimit:10;}
	.st4{fill:#FFFFFF;stroke:#4A265A;stroke-width:0.1984;stroke-miterlimit:10;}
	.st5{fill:#28BFA2;}
	.st6{fill:#FFFFFF;stroke:#FFFFFF;stroke-width:0.0567;stroke-miterlimit:10;}
	.st7{fill:#28BFA2;stroke:#4A265A;stroke-width:0.0567;stroke-miterlimit:10;}
	.st8{fill:#FFFFFF;stroke:#4A265A;stroke-width:0.2126;stroke-miterlimit:10;}
	.st9{fill:#28BFA2;stroke:#4A265A;stroke-width:0.2835;stroke-miterlimit:10;}
	.st10{fill:#FFFFFF;stroke:#4A265A;stroke-width:0.2835;stroke-miterlimit:10;}
	.st11{fill:#FFFFFF;stroke:#4A265A;stroke-width:0.0283;stroke-miterlimit:10;}
	.st12{fill:#28BFA2;stroke:#4A265A;stroke-width:0.0283;stroke-miterlimit:10;}
	.st13{fill:none;}
	.st14{fill:#FFFFFF;stroke:#4A265A;stroke-width:0.085;stroke-miterlimit:10;}
	.st15{fill:#28BFA2;stroke:#4A265A;stroke-width:0.085;stroke-miterlimit:10;}
	.st16{fill:#28BFA2;stroke:#4A265A;stroke-width:1.0205;stroke-miterlimit:10;}
	.st17{fill:#FFFFFF;stroke:#4A265A;stroke-width:1.0205;stroke-miterlimit:10;}
	.st18{fill:none;stroke:#28BFA2;stroke-width:1.1339;stroke-linecap:round;stroke-miterlimit:10;}
	.st19{fill:#28BFA2;stroke:#4A265A;stroke-width:0.4819;stroke-miterlimit:10;}
	.st20{fill:#28BFA2;stroke:#28BFA2;stroke-width:0.2551;stroke-miterlimit:10;}
	.st21{fill:#FFFFFF;stroke:#4A265A;stroke-width:0.4819;stroke-miterlimit:10;}
	.st22{fill:none;stroke:#FFFFFF;stroke-width:1.1339;stroke-miterlimit:10;}
	.st23{fill:none;stroke:#FFFFFF;stroke-width:1.1339;stroke-linecap:round;stroke-miterlimit:10;}
	.st24{fill:#FFFFFF;stroke:#FFFFFF;stroke-width:0.4819;stroke-miterlimit:10;}
	.st25{fill:#28BFA2;stroke:#28BFA2;stroke-width:0.4819;stroke-miterlimit:10;}
	.st26{fill:#FFFFFF;stroke:#4A265A;stroke-width:0.3118;stroke-miterlimit:10;}
	.st27{fill:#FFFFFF;stroke:#4A265A;stroke-width:0.7087;stroke-miterlimit:10;}
	.st28{fill:#28BFA2;stroke:#4A265A;stroke-width:0.7087;stroke-miterlimit:10;}
	.st29{fill:#28BFA2;stroke:#4A265A;stroke-width:0.3118;stroke-miterlimit:10;}
	.st30{fill:#FFFFFF;stroke:#FFFFFF;stroke-width:0.085;stroke-miterlimit:10;}
	.st31{fill:#28BFA2;stroke:#28BFA2;stroke-width:0.085;stroke-miterlimit:10;}
	.st32{fill:#FFFFFF;stroke:#28BFA2;stroke-width:0.5669;stroke-miterlimit:10;}
	.st33{fill:none;stroke:#FFFFFF;stroke-width:2.3811;stroke-linecap:round;stroke-miterlimit:10;}
</style>
<g>
	<circle class="st5" cx="56.94" cy="56.94" r="56.94"/>
	<path class="st32" d="M56.94,35.59c-11.78,0-21.36,9.58-21.36,21.36S45.17,78.3,56.94,78.3S78.3,68.72,78.3,56.94
		S68.72,35.59,56.94,35.59z M75.17,58.47c-0.32,3.9-1.87,7.46-4.26,10.28l-2.1-2.1l-2.16,2.16l2.1,2.1
		c-2.83,2.39-6.38,3.94-10.28,4.26V72.2h-3.05v2.97c-3.9-0.32-7.46-1.87-10.28-4.26l2.1-2.1l-2.16-2.16l-2.1,2.1
		c-2.39-2.83-3.94-6.38-4.26-10.28h2.98v-3.05h-2.97c0.32-3.9,1.87-7.46,4.26-10.28l2.1,2.1l2.16-2.16l-2.1-2.1
		c2.83-2.39,6.38-3.94,10.28-4.26v2.98h3.05v-2.97c3.9,0.32,7.46,1.87,10.28,4.26l-2.1,2.1l2.16,2.16l2.1-2.1
		c2.39,2.83,3.94,6.38,4.26,10.28H72.2v3.05L75.17,58.47L75.17,58.47z"/>
	<path class="st32" d="M56.94,52.37c-0.7,0-1.36,0.17-1.96,0.46l-4.59-4.59l-2.16,2.16l4.59,4.59c-0.29,0.6-0.46,1.26-0.46,1.96
		c0,1.99,1.28,3.66,3.05,4.3v3.33h3.05v-3.33c1.77-0.63,3.05-2.31,3.05-4.3C61.52,54.42,59.47,52.37,56.94,52.37z M56.94,58.47
		c-0.84,0-1.53-0.68-1.53-1.53c0-0.84,0.68-1.53,1.53-1.53s1.53,0.68,1.53,1.53S57.79,58.47,56.94,58.47z"/>
	<g>
		<g>
			<g>
				<path class="st33" d="M28.97,54.96c1.37-14.4,13.49-25.66,28.25-25.66c12,0,22.26,7.45,26.41,17.97"/>
				<g>
					<polygon class="st1" points="33.25,50.42 29.02,54.26 25.19,50.02 25.02,53.44 28.84,57.68 33.08,53.85 					"/>
				</g>
			</g>
		</g>
		<g>
			<g>
				<path class="st33" d="M84.92,58.93c-1.37,14.4-13.49,25.66-28.25,25.66c-12,0-22.26-7.45-26.41-17.97"/>
				<g>
					<polygon class="st1" points="80.64,63.46 84.87,59.63 88.7,63.87 88.87,60.45 85.04,56.21 80.81,60.04 					"/>
				</g>
			</g>
		</g>
	</g>
</g>
</svg>
