<?xml version="1.0" encoding="utf-8"?>
<!-- Generator: Adobe Illustrator 25.0.0, SVG Export Plug-In . SVG Version: 6.00 Build 0)  -->
<svg version="1.1" id="Layer_1" xmlns="http://www.w3.org/2000/svg" xmlns:xlink="http://www.w3.org/1999/xlink" x="0px" y="0px"
	 viewBox="0 0 113.89 113.89" style="enable-background:new 0 0 113.89 113.89;" xml:space="preserve">
<style type="text/css">
	.st0{fill:#4A265A;}
	.st1{fill:#FFFFFF;}
	.st2{fill:#28BFA2;stroke:#4A265A;stroke-width:0.1984;stroke-miterlimit:10;}
	.st3{fill:none;stroke:#28BFA2;stroke-width:1.1339;stroke-miterlimit:10;}
	.st4{fill:#FFFFFF;stroke:#4A265A;stroke-width:0.1984;stroke-miterlimit:10;}
	.st5{fill:#28BFA2;}
	.st6{fill:#FFFFFF;stroke:#FFFFFF;stroke-width:0.0567;stroke-miterlimit:10;}
	.st7{fill:#28BFA2;stroke:#4A265A;stroke-width:0.0567;stroke-miterlimit:10;}
	.st8{fill:#FFFFFF;stroke:#4A265A;stroke-width:0.2126;stroke-miterlimit:10;}
	.st9{fill:#28BFA2;stroke:#4A265A;stroke-width:0.2835;stroke-miterlimit:10;}
	.st10{fill:#FFFFFF;stroke:#4A265A;stroke-width:0.2835;stroke-miterlimit:10;}
	.st11{fill:#FFFFFF;stroke:#4A265A;stroke-width:0.0283;stroke-miterlimit:10;}
	.st12{fill:#28BFA2;stroke:#4A265A;stroke-width:0.0283;stroke-miterlimit:10;}
	.st13{fill:none;}
	.st14{fill:#FFFFFF;stroke:#4A265A;stroke-width:0.085;stroke-miterlimit:10;}
	.st15{fill:#28BFA2;stroke:#4A265A;stroke-width:0.085;stroke-miterlimit:10;}
	.st16{fill:#28BFA2;stroke:#4A265A;stroke-width:1.0205;stroke-miterlimit:10;}
	.st17{fill:#FFFFFF;stroke:#4A265A;stroke-width:1.0205;stroke-miterlimit:10;}
	.st18{fill:none;stroke:#28BFA2;stroke-width:1.1339;stroke-linecap:round;stroke-miterlimit:10;}
	.st19{fill:#28BFA2;stroke:#4A265A;stroke-width:0.4819;stroke-miterlimit:10;}
	.st20{fill:#28BFA2;stroke:#28BFA2;stroke-width:0.2551;stroke-miterlimit:10;}
	.st21{fill:#FFFFFF;stroke:#4A265A;stroke-width:0.4819;stroke-miterlimit:10;}
	.st22{fill:none;stroke:#FFFFFF;stroke-width:1.1339;stroke-miterlimit:10;}
	.st23{fill:none;stroke:#FFFFFF;stroke-width:1.1339;stroke-linecap:round;stroke-miterlimit:10;}
	.st24{fill:#FFFFFF;stroke:#FFFFFF;stroke-width:0.4819;stroke-miterlimit:10;}
	.st25{fill:#28BFA2;stroke:#28BFA2;stroke-width:0.4819;stroke-miterlimit:10;}
	.st26{fill:#FFFFFF;stroke:#4A265A;stroke-width:0.3118;stroke-miterlimit:10;}
	.st27{fill:#FFFFFF;stroke:#4A265A;stroke-width:0.7087;stroke-miterlimit:10;}
	.st28{fill:#28BFA2;stroke:#4A265A;stroke-width:0.7087;stroke-miterlimit:10;}
	.st29{fill:#28BFA2;stroke:#4A265A;stroke-width:0.3118;stroke-miterlimit:10;}
	.st30{fill:#FFFFFF;stroke:#FFFFFF;stroke-width:0.085;stroke-miterlimit:10;}
	.st31{fill:#28BFA2;stroke:#28BFA2;stroke-width:0.085;stroke-miterlimit:10;}
	.st32{fill:#FFFFFF;stroke:#28BFA2;stroke-width:0.5669;stroke-miterlimit:10;}
</style>
<g>
	<circle class="st5" cx="56.94" cy="56.94" r="56.95"/>
	<g>
		<path class="st1" d="M56.57,50.39c6.78,0,12.28-5.5,12.28-12.28c0-6.78-5.5-12.28-12.28-12.28c-6.78,0-12.28,5.5-12.28,12.28
			C44.3,44.89,49.79,50.39,56.57,50.39z M56.57,27.65c5.77,0,10.46,4.69,10.46,10.46c0,5.77-4.69,10.46-10.46,10.46
			s-10.46-4.69-10.46-10.46C46.12,32.35,50.81,27.65,56.57,27.65z"/>
		<path class="st1" d="M88.12,56.01c-0.08-0.01-7.63-1.14-11.34-5.32c-0.16-0.18-0.39-0.29-0.63-0.29c-0.01,0-0.02,0-0.03,0
			c-0.23,0-0.45,0.1-0.61,0.26c-0.02,0.02-0.75,0.77-1.99,1.68c-2.26-1.64-4.83-2.91-7.57-3.7c-0.58,0.52-1.21,0.99-1.87,1.4
			c2.8,0.63,5.46,1.79,7.81,3.38c-1.89,1.12-4.38,2.16-7.11,2.16c-0.15,0-0.31,0-0.46-0.01c-0.01,0-0.03,0-0.04,0
			c-0.45,0-0.83,0.36-0.86,0.81c-0.01,0.18-0.21,4.56,1.16,9.59c1.84,6.76,5.65,11.42,11.04,13.47c0.1,0.04,0.2,0.06,0.31,0.06
			c0.07,0,0.15-0.01,0.22-0.03c0.1-0.03,2.13-0.57,4.54-2.49v2.78c0,1.36-1.11,2.46-2.47,2.46H34.95c-1.36,0-2.47-1.1-2.47-2.46
			V69.38c0-5.4,2.31-10.44,6.5-14.19c2.82-2.53,6.35-4.31,10.1-5.15c-0.66-0.42-1.29-0.89-1.87-1.4
			c-9.26,2.68-16.55,10.64-16.55,20.75v10.37c0,2.36,1.92,4.28,4.29,4.28H78.2c2.37,0,4.29-1.92,4.29-4.28v-4.45
			c2.81-2.95,6.18-8.54,6.37-18.44C88.87,56.44,88.55,56.07,88.12,56.01z M81.13,74.1c-2.22,2.32-4.43,3.25-5.19,3.52
			c-4.66-1.89-7.98-6.08-9.62-12.12c-0.95-3.48-1.1-6.61-1.11-8.1c5.09-0.18,9.27-3.38,10.89-4.8c3.45,3.3,8.85,4.65,10.92,5.06
			C86.67,66.5,83.65,71.47,81.13,74.1z"/>
		<path class="st1" d="M71.29,63.87c-0.37-0.34-0.94-0.32-1.29,0.04c-0.34,0.37-0.32,0.94,0.04,1.29l3.84,3.59
			c0.17,0.16,0.4,0.24,0.62,0.24c0.22,0,0.44-0.08,0.61-0.23l7.07-6.37c0.37-0.34,0.4-0.91,0.07-1.28c-0.34-0.37-0.91-0.4-1.28-0.07
			l-6.45,5.81L71.29,63.87z"/>
		<path class="st1" d="M42.7,59.22c0.36-0.35,0.37-0.93,0.02-1.29c-0.35-0.36-0.93-0.37-1.29-0.02c-2.84,2.77-4.41,6.43-4.41,10.29
			v7.6c0,2.02,0.75,2.77,2.76,2.77h13.61c0.5,0,0.91-0.41,0.91-0.91c0-0.5-0.41-0.91-0.91-0.91H39.78c-0.68,0-0.83-0.08-0.84-0.08
			c-0.02-0.02-0.1-0.18-0.1-0.87v-7.6C38.84,64.85,40.21,61.65,42.7,59.22z"/>
		<circle class="st1" cx="44.75" cy="56.3" r="0.91"/>
	</g>
</g>
</svg>
