<?xml version="1.0" encoding="utf-8"?>
<!-- Generator: Adobe Illustrator 25.0.0, SVG Export Plug-In . SVG Version: 6.00 Build 0)  -->
<svg version="1.1" id="Layer_1" xmlns="http://www.w3.org/2000/svg" xmlns:xlink="http://www.w3.org/1999/xlink" x="0px" y="0px"
	 viewBox="0 0 80.38 80.38" style="enable-background:new 0 0 80.38 80.38;" xml:space="preserve">
<style type="text/css">
	.st0{fill:#4A265A;}
	.st1{fill:#FFFFFF;}
	.st2{fill:#28BFA2;stroke:#4A265A;stroke-width:0.1984;stroke-miterlimit:10;}
	.st3{fill:none;stroke:#28BFA2;stroke-width:1.1339;stroke-miterlimit:10;}
	.st4{fill:#FFFFFF;stroke:#4A265A;stroke-width:0.1984;stroke-miterlimit:10;}
	.st5{fill:#28BFA2;}
	.st6{fill:#FFFFFF;stroke:#FFFFFF;stroke-width:0.0567;stroke-miterlimit:10;}
	.st7{fill:#28BFA2;stroke:#4A265A;stroke-width:0.0567;stroke-miterlimit:10;}
	.st8{fill:#FFFFFF;stroke:#4A265A;stroke-width:0.2126;stroke-miterlimit:10;}
	.st9{fill:#28BFA2;stroke:#4A265A;stroke-width:0.2835;stroke-miterlimit:10;}
	.st10{fill:#FFFFFF;stroke:#4A265A;stroke-width:0.2835;stroke-miterlimit:10;}
	.st11{fill:#FFFFFF;stroke:#4A265A;stroke-width:0.0283;stroke-miterlimit:10;}
	.st12{fill:#28BFA2;stroke:#4A265A;stroke-width:0.0283;stroke-miterlimit:10;}
	.st13{fill:none;}
	.st14{fill:#FFFFFF;stroke:#4A265A;stroke-width:0.085;stroke-miterlimit:10;}
	.st15{fill:#28BFA2;stroke:#4A265A;stroke-width:0.085;stroke-miterlimit:10;}
	.st16{fill:#28BFA2;stroke:#4A265A;stroke-width:1.0205;stroke-miterlimit:10;}
	.st17{fill:#FFFFFF;stroke:#4A265A;stroke-width:1.0205;stroke-miterlimit:10;}
	.st18{fill:none;stroke:#28BFA2;stroke-width:1.1339;stroke-linecap:round;stroke-miterlimit:10;}
	.st19{fill:#28BFA2;stroke:#4A265A;stroke-width:0.4819;stroke-miterlimit:10;}
	.st20{fill:#28BFA2;stroke:#28BFA2;stroke-width:0.2551;stroke-miterlimit:10;}
	.st21{fill:#FFFFFF;stroke:#4A265A;stroke-width:0.4819;stroke-miterlimit:10;}
	.st22{fill:none;stroke:#FFFFFF;stroke-width:1.1339;stroke-miterlimit:10;}
	.st23{fill:none;stroke:#FFFFFF;stroke-width:1.1339;stroke-linecap:round;stroke-miterlimit:10;}
	.st24{fill:#FFFFFF;stroke:#FFFFFF;stroke-width:0.4819;stroke-miterlimit:10;}
	.st25{fill:#28BFA2;stroke:#28BFA2;stroke-width:0.4819;stroke-miterlimit:10;}
	.st26{fill:#FFFFFF;stroke:#4A265A;stroke-width:0.3118;stroke-miterlimit:10;}
	.st27{fill:#FFFFFF;stroke:#4A265A;stroke-width:0.7087;stroke-miterlimit:10;}
	.st28{fill:#28BFA2;stroke:#4A265A;stroke-width:0.7087;stroke-miterlimit:10;}
	.st29{fill:#28BFA2;stroke:#4A265A;stroke-width:0.3118;stroke-miterlimit:10;}
	.st30{fill:#FFFFFF;stroke:#FFFFFF;stroke-width:0.085;stroke-miterlimit:10;}
	.st31{fill:#28BFA2;stroke:#28BFA2;stroke-width:0.085;stroke-miterlimit:10;}
	.st32{fill:#FFFFFF;stroke:#28BFA2;stroke-width:0.5669;stroke-miterlimit:10;}
</style>
<g>
	<circle class="st0" cx="40.19" cy="40.19" r="40.19"/>
	<path class="st6" d="M22.44,17.19C22.18,17.24,22,17.47,22,17.73v38.51c0,0.3,0.24,0.53,0.53,0.53h4.81v5.88
		c0,0.3,0.24,0.53,0.53,0.53h29.95c0.3,0,0.53-0.24,0.53-0.53V24.15c0-0.3-0.24-0.53-0.53-0.53h-4.81v-5.88
		c0-0.3-0.24-0.53-0.53-0.53H22.54C22.51,17.19,22.47,17.19,22.44,17.19z M23.07,18.26h28.88V55.7H23.07V18.26L23.07,18.26z
		 M53.03,24.68h4.28v37.44H28.42v-5.35h24.07c0.3,0,0.53-0.24,0.53-0.53V24.68z"/>
	<path class="st7" d="M37.66,21.47c-5.9,0-10.7,4.8-10.7,10.7s4.8,10.7,10.7,10.7s10.7-4.8,10.7-10.7S43.56,21.47,37.66,21.47z
		 M37.66,22.54c5.32,0,9.63,4.3,9.63,9.63s-4.3,9.63-9.63,9.63s-9.63-4.3-9.63-9.63S32.34,22.54,37.66,22.54z M27.93,47.15
		c-0.3,0.03-0.51,0.29-0.48,0.59c0.03,0.29,0.29,0.51,0.58,0.48h19.26c0.3,0,0.54-0.23,0.54-0.53c0-0.3-0.23-0.54-0.53-0.54
		c-0.01,0-0.01,0-0.02,0H28.03C28,47.14,27.97,47.14,27.93,47.15z M27.93,51.42c-0.3,0.03-0.51,0.29-0.49,0.58
		c0.03,0.3,0.29,0.51,0.58,0.49c0,0,0,0,0,0h19.26c0.3,0,0.54-0.23,0.54-0.53c0-0.3-0.23-0.54-0.53-0.54c-0.01,0-0.01,0-0.02,0
		H28.03C28,51.42,27.97,51.42,27.93,51.42z"/>
	<path class="st8" d="M36.65,35.52h4.07v1.35h-6.79v-1.35H35V32.8h-1.07v-1.04H35v-1.61c0-0.51,0.12-0.96,0.35-1.35
		s0.56-0.68,0.99-0.9c0.42-0.21,0.92-0.32,1.48-0.32s1.11,0.09,1.62,0.28c0.52,0.19,0.98,0.45,1.38,0.8l-0.56,1.21
		c-0.82-0.63-1.6-0.95-2.33-0.95c-0.42,0-0.73,0.12-0.96,0.34c-0.22,0.23-0.33,0.56-0.33,1v1.49h2.2v1.04h-2.2V35.52z"/>
</g>
</svg>
