<?xml version="1.0" encoding="utf-8"?>
<!-- Generator: Adobe Illustrator 25.0.0, SVG Export Plug-In . SVG Version: 6.00 Build 0)  -->
<svg version="1.1" id="Layer_1" xmlns="http://www.w3.org/2000/svg" xmlns:xlink="http://www.w3.org/1999/xlink" x="0px" y="0px"
	 viewBox="0 0 80.38 80.38" style="enable-background:new 0 0 80.38 80.38;" xml:space="preserve">
<style type="text/css">
	.st0{fill:#4A265A;}
	.st1{fill:#FFFFFF;}
	.st2{fill:#28BFA2;stroke:#4A265A;stroke-width:0.1984;stroke-miterlimit:10;}
	.st3{fill:none;stroke:#28BFA2;stroke-width:1.1339;stroke-miterlimit:10;}
	.st4{fill:#FFFFFF;stroke:#4A265A;stroke-width:0.1984;stroke-miterlimit:10;}
	.st5{fill:#28BFA2;}
	.st6{fill:#FFFFFF;stroke:#FFFFFF;stroke-width:0.0567;stroke-miterlimit:10;}
	.st7{fill:#28BFA2;stroke:#4A265A;stroke-width:0.0567;stroke-miterlimit:10;}
	.st8{fill:#FFFFFF;stroke:#4A265A;stroke-width:0.2126;stroke-miterlimit:10;}
	.st9{fill:#28BFA2;stroke:#4A265A;stroke-width:0.2835;stroke-miterlimit:10;}
	.st10{fill:#FFFFFF;stroke:#4A265A;stroke-width:0.2835;stroke-miterlimit:10;}
	.st11{fill:#FFFFFF;stroke:#4A265A;stroke-width:0.0283;stroke-miterlimit:10;}
	.st12{fill:#28BFA2;stroke:#4A265A;stroke-width:0.0283;stroke-miterlimit:10;}
	.st13{fill:none;}
	.st14{fill:#FFFFFF;stroke:#4A265A;stroke-width:0.085;stroke-miterlimit:10;}
	.st15{fill:#28BFA2;stroke:#4A265A;stroke-width:0.085;stroke-miterlimit:10;}
	.st16{fill:#28BFA2;stroke:#4A265A;stroke-width:1.0205;stroke-miterlimit:10;}
	.st17{fill:#FFFFFF;stroke:#4A265A;stroke-width:1.0205;stroke-miterlimit:10;}
	.st18{fill:none;stroke:#28BFA2;stroke-width:1.1339;stroke-linecap:round;stroke-miterlimit:10;}
	.st19{fill:#28BFA2;stroke:#4A265A;stroke-width:0.4819;stroke-miterlimit:10;}
	.st20{fill:#28BFA2;stroke:#28BFA2;stroke-width:0.2551;stroke-miterlimit:10;}
	.st21{fill:#FFFFFF;stroke:#4A265A;stroke-width:0.4819;stroke-miterlimit:10;}
	.st22{fill:none;stroke:#FFFFFF;stroke-width:1.1339;stroke-miterlimit:10;}
	.st23{fill:none;stroke:#FFFFFF;stroke-width:1.1339;stroke-linecap:round;stroke-miterlimit:10;}
	.st24{fill:#FFFFFF;stroke:#FFFFFF;stroke-width:0.4819;stroke-miterlimit:10;}
	.st25{fill:#28BFA2;stroke:#28BFA2;stroke-width:0.4819;stroke-miterlimit:10;}
	.st26{fill:#FFFFFF;stroke:#4A265A;stroke-width:0.3118;stroke-miterlimit:10;}
	.st27{fill:#FFFFFF;stroke:#4A265A;stroke-width:0.7087;stroke-miterlimit:10;}
	.st28{fill:#28BFA2;stroke:#4A265A;stroke-width:0.7087;stroke-miterlimit:10;}
	.st29{fill:#28BFA2;stroke:#4A265A;stroke-width:0.3118;stroke-miterlimit:10;}
	.st30{fill:#FFFFFF;stroke:#FFFFFF;stroke-width:0.085;stroke-miterlimit:10;}
	.st31{fill:#28BFA2;stroke:#28BFA2;stroke-width:0.085;stroke-miterlimit:10;}
	.st32{fill:#FFFFFF;stroke:#28BFA2;stroke-width:0.5669;stroke-miterlimit:10;}
</style>
<g>
	<circle class="st0" cx="40.19" cy="40.19" r="40.19"/>
	<g>
		<path class="st24" d="M32.13,50.58l2.46-3.1c1.14-1.48-1.2-3.17-2.33-1.75c-0.83,1.04-1.65,2.09-2.48,3.12
			C28.68,50.34,31.01,51.98,32.13,50.58z M39.12,33.79c-1.47-1.2-3.77-0.97-6.34-0.72c-2.78,0.27-5.87,0.57-8.74-0.78l-1.07,11.1
			c1.63,0.26,2.96,1.21,4.36,2.03l1.65-2.08c1.22-1.54,3.73-0.46,3.54,1.42c1.53-0.71,3.31,0.65,2.95,2.31
			c1.68-0.6,3.41,1.33,2.3,2.91c1.67-0.46,3.05,1.53,1.98,2.93l-0.78,1.03l1.35,1.34c1.5,1.49,3.76-0.77,2.28-2.26l-1.59-1.58
			c-0.29-0.29,0.15-0.74,0.45-0.45l1.57,1.56l0.87,0.87c1.5,1.49,3.74-0.76,2.29-2.25L44.5,49.5c-0.29-0.29,0.15-0.74,0.45-0.45
			l1.85,1.84l0.84,0.84c1.51,1.5,3.77-0.78,2.26-2.28l-1.76-1.75c-0.29-0.29,0.15-0.74,0.44-0.45L50.35,49l0.82,0.81
			c1.42,1.41,3.51-0.54,2.49-2.01c-0.07-0.06-0.14-0.18-0.22-0.27c-2.72-2.76-6.04-6.36-9.03-8.49c-1.37-0.98-2.23-1.29-2.56-0.93
			c-1.35,1.25-3.17,2.58-5.13,2.28c-1.34-0.21-2.29-1.14-2.91-2.01c-0.1-0.13-0.07-0.33,0.06-0.43L39.12,33.79z M24.1,31.62
			c2.77,1.39,5.86,1.09,8.62,0.82c2.77-0.27,5.24-0.51,6.91,0.95l0.56-0.45c1.82-1.44,4.25-1.17,6.33-0.61
			c1.65,0.44,3.51,0.94,7.04,0.02l-0.56-1.24c-0.23-0.52,0-1.13,0.51-1.36l5-2.26c0.52-0.23,1.13,0,1.36,0.51l6.33,13.97
			c0.22,0.52-0.01,1.12-0.52,1.35l-5.01,2.27c-0.51,0.22-1.12-0.01-1.35-0.52L58.6,43.5c-0.27,0.05-0.46,0.1-0.61,0.19
			c-0.18,0.11-0.34,0.29-0.55,0.61c-0.42,0.77-0.91,1.46-1.48,2.05c-0.49,0.51-1.04,0.96-1.64,1.33c1.04,1.94-1.41,4.21-3.28,2.85
			c0.02,1.83-2.23,3.1-3.74,1.74c-0.02,1.74-2.09,2.98-3.58,1.83c0.01,1.88-2.33,3.13-3.84,1.63l-1.29-1.29l-0.41,0.53
			c-1.22,1.53-3.63,0.24-3.22-1.6c-1.35,0.85-3.18-0.24-3.02-1.83c-1.52,0.74-3.32-0.59-3-2.25c-1.8,0.63-3.47-1.48-2.28-3.02
			l0.28-0.35c-1.28-0.74-2.55-1.65-4.02-1.89l-0.15,1.53c-0.05,0.56-0.56,0.98-1.12,0.93l-5.46-0.53c-0.56-0.05-0.98-0.56-0.93-1.12
			l1.47-15.25c0.05-0.56,0.56-0.98,1.12-0.93l5.46,0.53c0.56,0.05,0.98,0.56,0.93,1.12L24.1,31.62z M37.7,54.55l1.55-2.02
			c0.94-1.22-0.93-2.75-1.89-1.55c-0.51,0.69-1.05,1.37-1.58,2.06C34.84,54.25,36.71,55.81,37.7,54.55z M35.09,48.08l-2.29,2.88
			c-1.02,1.33,1.07,2.91,2.13,1.59l2.29-2.88C38.23,48.34,36.13,46.77,35.09,48.08z M27.14,46.65c-1.04,1.37,1.12,2.94,2.17,1.61
			c0.74-0.93,1.65-1.97,2.32-2.92c1.02-1.34-1.09-2.97-2.17-1.62C28.68,44.71,27.91,45.68,27.14,46.65z M23.6,30.24
			c0.02-0.22-0.14-0.42-0.36-0.44l-5.46-0.53c-0.22-0.02-0.42,0.14-0.44,0.36l-1.47,15.25c-0.02,0.22,0.14,0.42,0.36,0.44l5.46,0.53
			c0.22,0.02,0.42-0.14,0.44-0.36C22.62,40.41,23.11,35.32,23.6,30.24z M58.34,42.91l-4.52-9.97c-3.76,1.01-5.73,0.48-7.47,0.01
			c-1.87-0.5-4.14-0.81-5.78,0.49c-2.03,1.6-4.05,3.21-6.08,4.81c0.54,0.69,1.3,1.36,2.32,1.52c1.15,0.18,2.65-0.29,4.57-2.08
			c0.59-0.63,1.72-0.35,3.39,0.85c3.14,2.25,6.46,5.82,9.17,8.63c0.57-0.35,1.09-0.77,1.56-1.26c0.52-0.55,0.98-1.18,1.37-1.9
			l0-0.01l0-0.01l0-0.01l0,0l0,0l0.01-0.02c0.27-0.42,0.49-0.66,0.77-0.83C57.87,43.03,58.07,42.96,58.34,42.91z M65.61,42.21
			L59.3,28.25c-0.09-0.2-0.33-0.29-0.53-0.2l-5,2.26c-0.2,0.09-0.29,0.33-0.2,0.53l0.71,1.57l0,0.01l0,0.01l0,0.01l0,0.01h0l0,0.01
			c1.86,4.12,3.73,8.24,5.6,12.36c0.09,0.19,0.32,0.29,0.51,0.21l5.01-2.27C65.61,42.65,65.71,42.41,65.61,42.21z"/>
	</g>
	<g>
		<path class="st25" d="M22.9,44.02l-0.15,1.53c-0.05,0.56-0.56,0.98-1.12,0.93l-5.46-0.53c-0.56-0.05-0.98-0.56-0.93-1.12
			l1.47-15.25c0.05-0.56,0.56-0.98,1.12-0.93l5.46,0.53c0.56,0.05,0.98,0.56,0.93,1.12l-0.13,1.32l-0.06,0.67l-1.07,11.1L22.9,44.02
			z M58.34,42.91l-4.52-9.97l-0.26-0.58l-0.56-1.24c-0.23-0.52,0-1.13,0.51-1.36l5-2.26c0.52-0.23,1.13,0,1.36,0.51l6.33,13.97
			c0.22,0.52-0.01,1.12-0.52,1.35l-5.01,2.27c-0.51,0.22-1.12-0.01-1.35-0.52L58.6,43.5L58.34,42.91z M23.6,30.24
			c0.02-0.22-0.14-0.42-0.36-0.44l-5.46-0.53c-0.22-0.02-0.42,0.14-0.44,0.36l-1.47,15.25c-0.02,0.22,0.14,0.42,0.36,0.44l5.46,0.53
			c0.22,0.02,0.42-0.14,0.44-0.36C22.62,40.41,23.11,35.32,23.6,30.24z M65.61,42.21L59.3,28.25c-0.09-0.2-0.33-0.29-0.53-0.2
			l-5,2.26c-0.2,0.09-0.29,0.33-0.2,0.53l0.71,1.57l0,0.01l0,0.01l0,0.01l0,0.01h0l0,0.01c1.86,4.12,3.73,8.24,5.6,12.36
			c0.09,0.19,0.32,0.29,0.51,0.21l5.01-2.27C65.61,42.65,65.71,42.41,65.61,42.21z"/>
	</g>
</g>
</svg>
