<?xml version="1.0" encoding="utf-8"?>
<!-- Generator: Adobe Illustrator 25.0.0, SVG Export Plug-In . SVG Version: 6.00 Build 0)  -->
<svg version="1.1" id="Layer_1" xmlns="http://www.w3.org/2000/svg" xmlns:xlink="http://www.w3.org/1999/xlink" x="0px" y="0px"
	 viewBox="0 0 80.38 80.38" style="enable-background:new 0 0 80.38 80.38;" xml:space="preserve">
<style type="text/css">
	.st0{fill:#4A265A;}
	.st1{fill:#FFFFFF;}
	.st2{fill:#28BFA2;stroke:#4A265A;stroke-width:0.1984;stroke-miterlimit:10;}
	.st3{fill:none;stroke:#28BFA2;stroke-width:1.1339;stroke-miterlimit:10;}
	.st4{fill:#FFFFFF;stroke:#4A265A;stroke-width:0.1984;stroke-miterlimit:10;}
	.st5{fill:#28BFA2;}
	.st6{fill:#FFFFFF;stroke:#FFFFFF;stroke-width:0.0567;stroke-miterlimit:10;}
	.st7{fill:#28BFA2;stroke:#4A265A;stroke-width:0.0567;stroke-miterlimit:10;}
	.st8{fill:#FFFFFF;stroke:#4A265A;stroke-width:0.2126;stroke-miterlimit:10;}
	.st9{fill:#28BFA2;stroke:#4A265A;stroke-width:0.2835;stroke-miterlimit:10;}
	.st10{fill:#FFFFFF;stroke:#4A265A;stroke-width:0.2835;stroke-miterlimit:10;}
	.st11{fill:#FFFFFF;stroke:#4A265A;stroke-width:0.0283;stroke-miterlimit:10;}
	.st12{fill:#28BFA2;stroke:#4A265A;stroke-width:0.0283;stroke-miterlimit:10;}
	.st13{fill:none;}
	.st14{fill:#FFFFFF;stroke:#4A265A;stroke-width:0.085;stroke-miterlimit:10;}
	.st15{fill:#28BFA2;stroke:#4A265A;stroke-width:0.085;stroke-miterlimit:10;}
	.st16{fill:#28BFA2;stroke:#4A265A;stroke-width:1.0205;stroke-miterlimit:10;}
	.st17{fill:#FFFFFF;stroke:#4A265A;stroke-width:1.0205;stroke-miterlimit:10;}
	.st18{fill:none;stroke:#28BFA2;stroke-width:1.1339;stroke-linecap:round;stroke-miterlimit:10;}
	.st19{fill:#28BFA2;stroke:#4A265A;stroke-width:0.4819;stroke-miterlimit:10;}
	.st20{fill:#28BFA2;stroke:#28BFA2;stroke-width:0.2551;stroke-miterlimit:10;}
	.st21{fill:#FFFFFF;stroke:#4A265A;stroke-width:0.4819;stroke-miterlimit:10;}
	.st22{fill:none;stroke:#FFFFFF;stroke-width:1.1339;stroke-miterlimit:10;}
	.st23{fill:none;stroke:#FFFFFF;stroke-width:1.1339;stroke-linecap:round;stroke-miterlimit:10;}
	.st24{fill:#FFFFFF;stroke:#FFFFFF;stroke-width:0.4819;stroke-miterlimit:10;}
	.st25{fill:#28BFA2;stroke:#28BFA2;stroke-width:0.4819;stroke-miterlimit:10;}
	.st26{fill:#FFFFFF;stroke:#4A265A;stroke-width:0.3118;stroke-miterlimit:10;}
	.st27{fill:#FFFFFF;stroke:#4A265A;stroke-width:0.7087;stroke-miterlimit:10;}
	.st28{fill:#28BFA2;stroke:#4A265A;stroke-width:0.7087;stroke-miterlimit:10;}
	.st29{fill:#28BFA2;stroke:#4A265A;stroke-width:0.3118;stroke-miterlimit:10;}
	.st30{fill:#FFFFFF;stroke:#FFFFFF;stroke-width:0.085;stroke-miterlimit:10;}
	.st31{fill:#28BFA2;stroke:#28BFA2;stroke-width:0.085;stroke-miterlimit:10;}
	.st32{fill:#FFFFFF;stroke:#28BFA2;stroke-width:0.5669;stroke-miterlimit:10;}
</style>
<g>
	<circle class="st0" cx="40.19" cy="40.19" r="40.19"/>
	<g>
		<path class="st11" d="M53.56,21.19v-3.11h-1.1v3.11H27.93v-3.11h-1.1v3.11h-7.18v9.74V62.3h41.1V30.93v-9.74H53.56z M53.01,25.08
			c0.54,0,0.98,0.44,0.98,0.98c0,0.54-0.44,0.98-0.98,0.98c-0.54,0-0.98-0.44-0.98-0.98C52.03,25.52,52.47,25.08,53.01,25.08z
			 M27.37,25.08c0.54,0,0.98,0.44,0.98,0.98c0,0.54-0.44,0.98-0.98,0.98c-0.54,0-0.98-0.44-0.98-0.98
			C26.39,25.52,26.83,25.08,27.37,25.08z M59.64,61.19h-38.9V30.93h38.9L59.64,61.19L59.64,61.19z M59.64,29.83h-38.9V22.3h6.08
			v1.77c-0.88,0.24-1.53,1.04-1.53,2c0,1.15,0.93,2.08,2.08,2.08s2.08-0.93,2.08-2.08c0-0.96-0.65-1.76-1.53-2V22.3h24.53v1.77
			c-0.88,0.24-1.53,1.04-1.53,2c0,1.15,0.93,2.08,2.08,2.08c1.15,0,2.08-0.93,2.08-2.08c0-0.96-0.65-1.76-1.53-2V22.3h6.08V29.83z"
			/>
		<path class="st12" d="M35.41,59.07h9.56h1.1h10.66v-8.36v-1.1v-7.26v-1.1v-8.36H46.07h-1.1h-9.56h-1.1H23.65v8.36v1.1v7.26v1.1
			v8.36h10.66H35.41z M46.07,33.99h9.56v7.26h-9.56V33.99z M46.07,42.35h9.56v7.26h-9.56V42.35z M46.07,50.71h9.56v7.26h-9.56V50.71
			z M35.41,33.99h9.56v7.26h-9.56V33.99z M35.41,42.35h9.56v7.26h-9.56V42.35z M35.41,50.71h9.56v7.26h-9.56V50.71z M24.75,33.99
			h9.56v7.26h-9.56V33.99z M24.75,42.35h9.56v7.26h-9.56V42.35z M24.75,50.71h9.56v7.26h-9.56V50.71z"/>
		<polygon class="st11" points="51.94,43.58 50.53,44.99 49.11,43.58 48.33,44.36 49.75,45.77 48.33,47.18 49.11,47.96 50.53,46.55 
			51.94,47.96 52.72,47.18 51.31,45.77 52.72,44.36 		"/>
	</g>
</g>
</svg>
