<svg width="16" height="19" viewBox="0 0 16 19" fill="none" xmlns="http://www.w3.org/2000/svg">
<g clip-path="url(#clip0)">
<path d="M6.80357 2.45605L7.59643 1.67559C7.93214 1.34512 8.475 1.34512 8.80714 1.67559L15.75 8.50645C16.0857 8.83691 16.0857 9.37129 15.75 9.69824L8.80714 16.5326C8.47143 16.8631 7.92857 16.8631 7.59643 16.5326L6.80357 15.7521C6.46429 15.4182 6.47143 14.8732 6.81786 14.5463L11.1214 10.5104H0.857143C0.382143 10.5104 0 10.1342 0 9.6666V8.5416C0 8.07402 0.382143 7.69785 0.857143 7.69785H11.1214L6.81786 3.66191C6.46786 3.33496 6.46071 2.79004 6.80357 2.45605Z" fill="#20AA97"/>
</g>
<defs>
<clipPath id="clip0">
<rect y="0.104004" width="16" height="18" fill="white"/>
</clipPath>
</defs>
</svg>
