<svg width="18" height="18" viewBox="0 0 18 18" fill="none" xmlns="http://www.w3.org/2000/svg">
<path fill-rule="evenodd" clip-rule="evenodd" d="M12.2438 11.1742L16.2788 15.2092C16.4206 15.3512 16.5002 15.5436 16.5001 15.7443C16.5001 15.9449 16.4203 16.1373 16.2784 16.2791C16.1365 16.4209 15.944 16.5006 15.7434 16.5005C15.5427 16.5004 15.3503 16.4207 15.2085 16.2787L11.1735 12.2437C9.96729 13.178 8.45047 13.6177 6.9316 13.4733C5.41274 13.3289 4.00593 12.6113 2.99737 11.4664C1.98881 10.3216 1.45425 8.8356 1.50245 7.31065C1.55064 5.7857 2.17797 4.33639 3.25681 3.25755C4.33565 2.1787 5.78497 1.55138 7.30992 1.50318C8.83487 1.45498 10.3209 1.98954 11.4657 2.9981C12.6105 4.00667 13.3281 5.41347 13.4725 6.93234C13.6169 8.4512 13.1773 9.96803 12.243 11.1742H12.2438ZM7.50001 12C8.69348 12 9.83808 11.5259 10.682 10.682C11.5259 9.83806 12 8.69347 12 7.49999C12 6.30652 11.5259 5.16192 10.682 4.31801C9.83808 3.4741 8.69348 2.99999 7.50001 2.99999C6.30653 2.99999 5.16194 3.4741 4.31803 4.31801C3.47411 5.16192 3.00001 6.30652 3.00001 7.49999C3.00001 8.69347 3.47411 9.83806 4.31803 10.682C5.16194 11.5259 6.30653 12 7.50001 12Z" fill="#BFBFBF"/>
</svg>
