<svg xmlns="http://www.w3.org/2000/svg" width="9.26mm" height="7.23mm" viewBox="0 0 26.25 20.51"><defs><style>.cls-1{fill:#114460;}</style></defs><title>close-quote</title><g id="Layer_2" data-name="Layer 2"><g id="Layer_1-2" data-name="Layer 1"><path class="cls-1" d="M5.54,10.36H5A4.78,4.78,0,0,1,1.56,8.8,5,5,0,0,1,0,5.13,4.82,4.82,0,0,1,1.56,1.47,5.32,5.32,0,0,1,5.37,0,5.08,5.08,0,0,1,9.55,2.05a8.94,8.94,0,0,1,1.63,5.71,14.45,14.45,0,0,1-1.42,6.3,13.82,13.82,0,0,1-3.49,4.7,6.06,6.06,0,0,1-3.74,1.75A2.33,2.33,0,0,1,.8,19.84a2.2,2.2,0,0,1-.66-1.62A2.37,2.37,0,0,1,1.54,16a10.29,10.29,0,0,0,2.84-2.32A5.72,5.72,0,0,0,5.54,10.36Zm15,0h-.41a5,5,0,0,1-3.54-1.54A5,5,0,0,1,15,5.13a4.8,4.8,0,0,1,1.57-3.64A5.39,5.39,0,0,1,20.44,0a5.1,5.1,0,0,1,4.2,2,9,9,0,0,1,1.61,5.74,14.3,14.3,0,0,1-1.42,6.37,13.77,13.77,0,0,1-3.48,4.65,6.18,6.18,0,0,1-3.78,1.73,2.35,2.35,0,0,1-1.74-.65,2.19,2.19,0,0,1-.65-1.64A2.42,2.42,0,0,1,16.58,16a10,10,0,0,0,2.9-2.34A5.84,5.84,0,0,0,20.58,10.36Z"/></g></g></svg>