<svg width="35" height="24" viewBox="0 0 35 24" fill="none" xmlns="http://www.w3.org/2000/svg">
<path d="M12.0001 9.9004C12.0001 11.2004 12.0001 12.5004 12.0001 13.8004C14.1001 13.9004 16.2 13.8004 18.3 13.9004C17.4 18.8004 11.0001 20.3004 7.70007 17.2004C4.30007 14.4004 4.40006 8.30042 8.00006 5.70042C10.5001 3.60042 14.1001 4.1004 16.6001 5.9004C17.6001 4.9004 18.5001 3.9004 19.4001 2.9004C17.3001 1.2004 14.8001 -0.0995832 12.0001 0.100417C6.30006 -0.0995832 1.10006 5.10041 1.00006 11.0004C0.600059 15.8004 3.70006 20.6004 8.00006 22.3004C12.3001 24.0004 17.8001 22.8004 20.5001 18.8004C22.3001 16.3004 22.7001 13.0004 22.5001 9.9004C19.0001 9.8004 15.5001 9.8004 12.0001 9.9004ZM31.9001 9.8004C31.9001 8.7004 31.9001 7.60041 31.9001 6.50041H28.8C28.8 7.60041 28.8 8.7004 28.8 9.8004C27.8 9.8004 26.7001 9.8004 25.7001 9.8004V13.1004H28.8C28.8 14.2004 28.8 15.3004 28.8 16.4004H31.9001C31.9001 15.3004 31.9001 14.2004 31.9001 13.1004C33.0001 13.1004 34.0001 13.1004 35.0001 13.1004V9.8004C34.0001 9.8004 32.9001 9.8004 31.9001 9.8004Z" fill="#76C7BA"/>
</svg>
