<svg width="14" height="21" viewBox="0 0 14 21" fill="none" xmlns="http://www.w3.org/2000/svg">
<path d="M7.39539 0.0237088C8.61228 0.131598 9.8392 0.608315 10.8554 1.36605C11.2392 1.65459 11.8866 2.29941 12.1726 2.68329C12.9002 3.6568 13.3293 4.71311 13.4974 5.94254C13.5425 6.25617 13.5425 7.28487 13.4974 7.5985C13.4171 8.18813 13.3368 8.49674 13.0056 9.49283C12.6292 10.6269 12.278 11.475 11.721 12.6015C10.5718 14.9174 9.06641 17.2382 7.09431 19.7297L6.7581 20.1562L6.43192 19.7448C3.4286 15.9511 1.35613 12.3055 0.407714 9.15913C0.114156 8.18562 0.0238303 7.71392 0.00375801 7.0415C-0.056459 5.14215 0.608437 3.4059 1.9031 2.06858C2.92428 1.01729 4.1788 0.349884 5.61648 0.09898C6.17851 0.00112746 6.82333 -0.026472 7.39539 0.0237088ZM6.16596 3.92025C5.25267 4.15359 4.5401 4.86114 4.29422 5.77945C4.23651 6.00275 4.22898 6.07551 4.22898 6.4318C4.22898 6.78557 4.23651 6.86335 4.29171 7.07411C4.5401 7.99744 5.24013 8.69997 6.15593 8.94586C6.37923 9.00356 6.45199 9.01109 6.80828 9.01109C7.16205 9.01109 7.23983 9.00356 7.45059 8.94837C8.37392 8.69997 9.07645 7.99995 9.32233 7.08415C9.38004 6.86084 9.38757 6.78808 9.38757 6.4318C9.38757 6.07802 9.38004 6.00024 9.32484 5.78948C9.04885 4.7658 8.22588 4.02563 7.18212 3.86003C6.92871 3.81989 6.43694 3.85 6.16596 3.92025Z" fill="#999999"/>
</svg>
