<?xml version="1.0" encoding="iso-8859-1"?>
<svg version="1.1" id="Layer_1" xmlns="http://www.w3.org/2000/svg" xmlns:xlink="http://www.w3.org/1999/xlink" x="0px" y="0px"
	 viewBox="0 0 555 326" style="enable-background:new 0 0 555 326;" xml:space="preserve">
<g style="opacity:0.5;">
	<path style="fill:#FFFFFF;" d="M423.095,326H37.272c-20.274,0-36.769-16.897-36.769-37.667V37.668C0.503,16.898,16.997,0,37.272,0
		h385.823c13.162,0,25.619,6.527,33.323,17.461l94.455,134.052c4.841,6.871,4.841,16.104,0,22.974l-94.455,134.052
		C448.714,319.473,436.257,326,423.095,326z M37.272,2.973c-18.632,0-33.79,15.564-33.79,34.695v250.665
		c0,19.131,15.158,34.695,33.79,34.695h385.823c12.193,0,23.739-6.055,30.886-16.198l94.455-134.052
		c4.121-5.848,4.121-13.707,0-19.555L453.981,19.171c-7.147-10.143-18.692-16.198-30.886-16.198H37.272z"/>
</g>
</svg>
