<?xml version="1.0" encoding="iso-8859-1"?>
<!-- Generator: Adobe Illustrator 18.1.1, SVG Export Plug-In . SVG Version: 6.00 Build 0)  -->
<svg version="1.1" id="Layer_1" xmlns="http://www.w3.org/2000/svg" xmlns:xlink="http://www.w3.org/1999/xlink" x="0px" y="0px"
	 viewBox="110.644 297.945 374 246" style="enable-background:new 110.644 297.945 374 246;" xml:space="preserve">
<g style="opacity:0.5;">
	<path style="fill:#FFFFFF;" d="M384.494,543.945H138.386c-15.297,0-27.743-12.75-27.743-28.424V326.369
		c0-15.673,12.445-28.424,27.743-28.424h246.108c9.931,0,19.33,4.925,25.143,13.176l71.267,101.156
		c3.653,5.185,3.653,12.152,0,17.336l-71.267,101.156C403.824,539.02,394.425,543.945,384.494,543.945z M138.386,300.188
		c-14.058,0-25.495,11.745-25.495,26.181v189.152c0,14.436,11.437,26.181,25.495,26.181h246.108c9.2,0,17.911-4.569,23.304-12.223
		l71.267-101.156c3.109-4.413,3.109-10.343,0-14.756l-71.267-101.156c-5.392-7.654-14.103-12.223-23.304-12.223
		C384.494,300.188,138.386,300.188,138.386,300.188z"/>
</g>
</svg>
