<svg width="28" height="23" viewBox="0 0 28 23" fill="none" xmlns="http://www.w3.org/2000/svg">
<path fill-rule="evenodd" clip-rule="evenodd" d="M25.1999 6.5004C25.1999 6.7004 25.1999 7.00041 25.1999 7.20041C25.1999 14.5004 19.5999 23.0004 9.3999 23.0004C6.2999 23.0004 3.3999 22.1004 0.899902 20.5004C1.2999 20.6004 1.79992 20.6004 2.19992 20.6004C4.79992 20.6004 7.19991 19.7004 9.09991 18.2004C6.69991 18.2004 4.5999 16.6004 3.8999 14.3004C4.1999 14.4004 4.5999 14.4004 4.8999 14.4004C5.3999 14.4004 5.8999 14.3004 6.3999 14.2004C3.7999 13.7004 1.99991 11.4004 1.99991 8.80038V8.70041C2.79991 9.10041 3.59991 9.40039 4.49991 9.40039C2.99991 8.40039 1.99991 6.60038 1.99991 4.80038C1.99991 3.80038 2.2999 2.8004 2.7999 2.0004C5.5999 5.5004 9.79992 7.60038 14.1999 7.80038C14.0999 7.40038 14.0999 7.0004 14.0999 6.5004C14.0999 3.4004 16.5999 1.00039 19.5999 0.900391C21.1999 0.900391 22.5999 1.60041 23.5999 2.70041C24.7999 2.50041 25.9999 2.00039 27.0999 1.40039C26.6999 2.70039 25.7999 3.8004 24.6999 4.5004C25.7999 4.4004 26.8999 4.1004 27.8999 3.6004C27.2999 4.7004 26.2999 5.7004 25.1999 6.5004Z" fill="#76C7BA"/>
</svg>
