<?xml version="1.0" encoding="utf-8"?>
<!-- Generator: Adobe Illustrator 25.0.0, SVG Export Plug-In . SVG Version: 6.00 Build 0)  -->
<svg version="1.1" id="Layer_1" xmlns="http://www.w3.org/2000/svg" xmlns:xlink="http://www.w3.org/1999/xlink" x="0px" y="0px"
	 viewBox="0 0 113.89 113.89" style="enable-background:new 0 0 113.89 113.89;" xml:space="preserve">
<style type="text/css">
	.st0{fill:#4A265A;}
	.st1{fill:#FFFFFF;}
	.st2{fill:#28BFA2;stroke:#4A265A;stroke-width:0.1984;stroke-miterlimit:10;}
	.st3{fill:none;stroke:#28BFA2;stroke-width:1.1339;stroke-miterlimit:10;}
	.st4{fill:#FFFFFF;stroke:#4A265A;stroke-width:0.1984;stroke-miterlimit:10;}
	.st5{fill:#28BFA2;}
	.st6{fill:#FFFFFF;stroke:#FFFFFF;stroke-width:0.0567;stroke-miterlimit:10;}
	.st7{fill:#28BFA2;stroke:#4A265A;stroke-width:0.0567;stroke-miterlimit:10;}
	.st8{fill:#FFFFFF;stroke:#4A265A;stroke-width:0.2126;stroke-miterlimit:10;}
	.st9{fill:#28BFA2;stroke:#4A265A;stroke-width:0.2835;stroke-miterlimit:10;}
	.st10{fill:#FFFFFF;stroke:#4A265A;stroke-width:0.2835;stroke-miterlimit:10;}
	.st11{fill:#FFFFFF;stroke:#4A265A;stroke-width:0.0283;stroke-miterlimit:10;}
	.st12{fill:#28BFA2;stroke:#4A265A;stroke-width:0.0283;stroke-miterlimit:10;}
	.st13{fill:none;}
	.st14{fill:#FFFFFF;stroke:#4A265A;stroke-width:0.085;stroke-miterlimit:10;}
	.st15{fill:#28BFA2;stroke:#4A265A;stroke-width:0.085;stroke-miterlimit:10;}
	.st16{fill:#28BFA2;stroke:#4A265A;stroke-width:1.0205;stroke-miterlimit:10;}
	.st17{fill:#FFFFFF;stroke:#4A265A;stroke-width:1.0205;stroke-miterlimit:10;}
	.st18{fill:none;stroke:#28BFA2;stroke-width:1.1339;stroke-linecap:round;stroke-miterlimit:10;}
	.st19{fill:#28BFA2;stroke:#4A265A;stroke-width:0.4819;stroke-miterlimit:10;}
	.st20{fill:#28BFA2;stroke:#28BFA2;stroke-width:0.2551;stroke-miterlimit:10;}
	.st21{fill:#FFFFFF;stroke:#4A265A;stroke-width:0.4819;stroke-miterlimit:10;}
	.st22{fill:none;stroke:#FFFFFF;stroke-width:1.1339;stroke-miterlimit:10;}
	.st23{fill:none;stroke:#FFFFFF;stroke-width:1.1339;stroke-linecap:round;stroke-miterlimit:10;}
	.st24{fill:#FFFFFF;stroke:#FFFFFF;stroke-width:0.4819;stroke-miterlimit:10;}
	.st25{fill:#28BFA2;stroke:#28BFA2;stroke-width:0.4819;stroke-miterlimit:10;}
	.st26{fill:#FFFFFF;stroke:#4A265A;stroke-width:0.3118;stroke-miterlimit:10;}
	.st27{fill:#FFFFFF;stroke:#4A265A;stroke-width:0.7087;stroke-miterlimit:10;}
	.st28{fill:#28BFA2;stroke:#4A265A;stroke-width:0.7087;stroke-miterlimit:10;}
	.st29{fill:#28BFA2;stroke:#4A265A;stroke-width:0.3118;stroke-miterlimit:10;}
	.st30{fill:#FFFFFF;stroke:#FFFFFF;stroke-width:0.085;stroke-miterlimit:10;}
	.st31{fill:#28BFA2;stroke:#28BFA2;stroke-width:0.085;stroke-miterlimit:10;}
	.st32{fill:#FFFFFF;stroke:#28BFA2;stroke-width:0.5669;stroke-miterlimit:10;}
</style>
<g>
	<circle class="st5" cx="56.94" cy="56.94" r="56.95"/>
	<g>
		<path class="st24" d="M45.52,71.66l3.49-4.39c1.61-2.09-1.7-4.5-3.3-2.47c-1.17,1.47-2.33,2.96-3.51,4.42
			C40.63,71.32,43.93,73.65,45.52,71.66z M55.42,47.87c-2.09-1.69-5.34-1.38-8.99-1.02c-3.93,0.39-8.32,0.81-12.39-1.1l-1.52,15.73
			c2.31,0.37,4.19,1.71,6.17,2.87l2.34-2.94c1.73-2.18,5.28-0.66,5.02,2.01c2.17-1,4.69,0.93,4.18,3.27
			c2.39-0.85,4.83,1.89,3.27,4.13c2.36-0.65,4.33,2.17,2.8,4.15l-1.11,1.45l1.92,1.9c2.13,2.12,5.32-1.09,3.23-3.21l-2.25-2.23
			c-0.42-0.42,0.22-1.05,0.63-0.63l2.23,2.21l1.24,1.23c2.12,2.11,5.31-1.07,3.24-3.19l-2.38-2.37c-0.42-0.42,0.21-1.05,0.63-0.63
			l2.62,2.6l1.2,1.19c2.13,2.12,5.34-1.11,3.21-3.23l-2.5-2.48c-0.42-0.42,0.21-1.05,0.63-0.64l2.5,2.48l1.16,1.15
			c2.01,2,4.97-0.76,3.53-2.85c-0.1-0.09-0.2-0.26-0.32-0.38c-3.86-3.92-8.56-9.01-12.79-12.03c-1.94-1.39-3.15-1.83-3.63-1.32
			c-1.92,1.76-4.49,3.66-7.27,3.23c-1.9-0.3-3.24-1.61-4.12-2.85c-0.14-0.19-0.1-0.46,0.09-0.61L55.42,47.87z M34.14,44.8
			c3.93,1.97,8.3,1.54,12.21,1.16c3.93-0.38,7.43-0.72,9.79,1.35l0.8-0.63c2.57-2.04,6.02-1.66,8.97-0.86
			c2.34,0.63,4.97,1.34,9.98,0.02l-0.8-1.76c-0.33-0.73-0.01-1.6,0.73-1.93l7.08-3.21c0.73-0.33,1.6,0,1.93,0.73l8.96,19.8
			c0.32,0.73-0.01,1.58-0.73,1.91l-7.1,3.22c-0.73,0.32-1.58-0.01-1.91-0.73l-1.01-2.23c-0.38,0.07-0.65,0.14-0.86,0.27
			c-0.26,0.15-0.48,0.41-0.78,0.86c-0.59,1.1-1.29,2.06-2.1,2.9c-0.7,0.73-1.47,1.36-2.33,1.89c1.47,2.75-2,5.96-4.65,4.04
			c0.02,2.6-3.16,4.4-5.31,2.46c-0.03,2.46-2.95,4.22-5.07,2.6c0.01,2.66-3.31,4.43-5.44,2.31l-1.83-1.82l-0.58,0.75
			c-1.72,2.16-5.14,0.34-4.57-2.27c-1.91,1.2-4.51-0.35-4.28-2.59c-2.15,1.05-4.71-0.84-4.25-3.19c-2.55,0.89-4.91-2.09-3.23-4.28
			l0.39-0.5c-1.81-1.05-3.61-2.34-5.69-2.68l-0.21,2.17c-0.08,0.8-0.8,1.39-1.59,1.31L22.9,65.1c-0.8-0.08-1.39-0.79-1.31-1.59
			l2.09-21.61c0.08-0.8,0.79-1.39,1.59-1.31l7.74,0.75c0.8,0.08,1.39,0.8,1.31,1.59L34.14,44.8z M53.41,77.28l2.19-2.86
			c1.34-1.73-1.32-3.9-2.68-2.2c-0.72,0.98-1.49,1.95-2.23,2.91C49.36,76.87,52.02,79.08,53.41,77.28z M49.71,68.12l-3.24,4.08
			c-1.44,1.88,1.51,4.13,3.02,2.25l3.25-4.08C54.17,68.49,51.2,66.26,49.71,68.12z M38.45,66.1c-1.47,1.94,1.58,4.16,3.08,2.29
			c1.05-1.32,2.33-2.79,3.29-4.14c1.45-1.89-1.55-4.21-3.07-2.29C40.64,63.34,39.55,64.72,38.45,66.1z M33.43,42.84
			c0.03-0.31-0.2-0.59-0.51-0.62l-7.74-0.75c-0.31-0.03-0.59,0.2-0.62,0.51L22.48,63.6c-0.03,0.31,0.2,0.59,0.51,0.62l7.74,0.75
			c0.31,0.03,0.59-0.2,0.62-0.51C32.04,57.25,32.74,50.04,33.43,42.84z M82.65,60.79l-6.4-14.13c-5.33,1.43-8.12,0.68-10.59,0.02
			c-2.65-0.71-5.86-1.14-8.19,0.7c-2.87,2.27-5.74,4.55-8.61,6.82c0.77,0.98,1.85,1.93,3.28,2.15c1.63,0.25,3.75-0.41,6.47-2.95
			c0.83-0.9,2.43-0.49,4.8,1.2c4.46,3.19,9.15,8.24,13,12.23c0.81-0.5,1.55-1.09,2.21-1.78c0.74-0.77,1.39-1.67,1.94-2.69l0.01-0.01
			l0.01-0.01l0-0.01l0,0l0.01-0.01l0.01-0.02c0.39-0.59,0.69-0.94,1.1-1.17C81.99,60.97,82.28,60.87,82.65,60.79z M92.97,59.81
			l-8.95-19.78c-0.13-0.28-0.47-0.41-0.75-0.28l-7.08,3.21c-0.28,0.13-0.41,0.47-0.28,0.75l1,2.22l0.01,0.01l0,0.01l0.01,0.01
			l0,0.01h0l0,0.01c2.64,5.84,5.29,11.68,7.93,17.51c0.12,0.27,0.45,0.4,0.73,0.29l7.1-3.22C92.97,60.43,93.1,60.09,92.97,59.81z"/>
	</g>
</g>
</svg>
