<?xml version="1.0" encoding="UTF-8"?>
<svg id="Layer_1" data-name="Layer 1" xmlns="http://www.w3.org/2000/svg" viewBox="0 0 368.5 368.5">
  <defs>
    <style>
      .cls-1 {
        fill: none;
        stroke: #371e55;
        stroke-miterlimit: 10;
        stroke-width: 4.39px;
      }

      .cls-2 {
        fill: #ceebe6;
      }

      .cls-3 {
        fill: #371e55;
      }
    </style>
  </defs>
  <circle class="cls-2" cx="187.51" cy="184.25" r="159.9"/>
  <polygon class="cls-3" points="237.15 254.68 95.91 254.68 99.89 247.87 99.9 250.6 232.29 250.6 233.4 247.44 234.97 250.6 237.15 254.68"/>
  <polygon class="cls-1" points="210.24 109.64 167.72 109.64 167.72 86.45 210.24 86.45 198.83 98.04 210.24 109.64"/>
  <line class="cls-1" x1="167.72" y1="120.14" x2="167.72" y2="92.06"/>
  <polyline class="cls-1" points="143.87 163.79 158.49 180.42 172.46 171.85 180.77 187.21 196.22 178.52"/>
  <path class="cls-3" d="m234.97,250.62l-32.23-65.25-17.56-35.42-15.98-32.22c-.34-.69-1.05-1.13-1.82-1.13h0c-.77,0-1.47.43-1.82,1.12l-67.14,132.9c-.68,1.35.3,2.95,1.81,2.95h0c.77,0,1.47-.43,1.81-1.12l28.92-57.24,2.37-4.69,34.02-67.34,16.73,33.73,14.11,28.46,2.15,4.35s-.02.03-.03.05l2.37,4.68,28.64,57.98c.34.69,1.05,1.13,1.82,1.13,1.51,0,2.49-1.58,1.82-2.93Z"/>
  <path class="cls-3" d="m234.97,250.62l-32.23-65.25-17.56-35.42-15.98-32.22c-.34-.69-1.05-1.13-1.82-1.13h0c-.77,0-1.47.43-1.82,1.12l-67.14,132.9c-.68,1.35.3,2.95,1.81,2.95h0c.77,0,1.47-.43,1.81-1.12l28.92-57.24,2.37-4.69,34.02-67.34,16.73,33.73,14.11,28.46,2.15,4.35s-.02.03-.03.05l2.37,4.68,28.64,57.98c.34.69,1.05,1.13,1.82,1.13,1.51,0,2.49-1.58,1.82-2.93Z"/>
  <polygon class="cls-3" points="210.01 183.75 211.63 187.03 228.47 154.48 277.01 250.53 243 250.53 244.79 254.16 282.9 254.16 228.51 146.52 209.63 183 210.01 183.75"/>
</svg>