<?xml version="1.0" encoding="utf-8"?>
<!-- Generator: Adobe Illustrator 25.0.0, SVG Export Plug-In . SVG Version: 6.00 Build 0)  -->
<svg version="1.1" id="Layer_1" xmlns="http://www.w3.org/2000/svg" xmlns:xlink="http://www.w3.org/1999/xlink" x="0px" y="0px"
	 viewBox="0 0 80.38 80.38" style="enable-background:new 0 0 80.38 80.38;" xml:space="preserve">
<style type="text/css">
	.st0{fill:#4A265A;}
	.st1{fill:#FFFFFF;}
	.st2{fill:#28BFA2;stroke:#4A265A;stroke-width:0.1984;stroke-miterlimit:10;}
	.st3{fill:none;stroke:#28BFA2;stroke-width:1.1339;stroke-miterlimit:10;}
	.st4{fill:#FFFFFF;stroke:#4A265A;stroke-width:0.1984;stroke-miterlimit:10;}
	.st5{fill:#28BFA2;}
	.st6{fill:#FFFFFF;stroke:#FFFFFF;stroke-width:0.0567;stroke-miterlimit:10;}
	.st7{fill:#28BFA2;stroke:#4A265A;stroke-width:0.0567;stroke-miterlimit:10;}
	.st8{fill:#FFFFFF;stroke:#4A265A;stroke-width:0.2126;stroke-miterlimit:10;}
	.st9{fill:#28BFA2;stroke:#4A265A;stroke-width:0.2835;stroke-miterlimit:10;}
	.st10{fill:#FFFFFF;stroke:#4A265A;stroke-width:0.2835;stroke-miterlimit:10;}
	.st11{fill:#FFFFFF;stroke:#4A265A;stroke-width:0.0283;stroke-miterlimit:10;}
	.st12{fill:#28BFA2;stroke:#4A265A;stroke-width:0.0283;stroke-miterlimit:10;}
	.st13{fill:none;}
	.st14{fill:#FFFFFF;stroke:#4A265A;stroke-width:0.085;stroke-miterlimit:10;}
	.st15{fill:#28BFA2;stroke:#4A265A;stroke-width:0.085;stroke-miterlimit:10;}
	.st16{fill:#28BFA2;stroke:#4A265A;stroke-width:1.0205;stroke-miterlimit:10;}
	.st17{fill:#FFFFFF;stroke:#4A265A;stroke-width:1.0205;stroke-miterlimit:10;}
	.st18{fill:none;stroke:#28BFA2;stroke-width:1.1339;stroke-linecap:round;stroke-miterlimit:10;}
	.st19{fill:#28BFA2;stroke:#4A265A;stroke-width:0.4819;stroke-miterlimit:10;}
	.st20{fill:#28BFA2;stroke:#28BFA2;stroke-width:0.2551;stroke-miterlimit:10;}
	.st21{fill:#FFFFFF;stroke:#4A265A;stroke-width:0.4819;stroke-miterlimit:10;}
	.st22{fill:none;stroke:#FFFFFF;stroke-width:1.1339;stroke-miterlimit:10;}
	.st23{fill:none;stroke:#FFFFFF;stroke-width:1.1339;stroke-linecap:round;stroke-miterlimit:10;}
	.st24{fill:#FFFFFF;stroke:#FFFFFF;stroke-width:0.4819;stroke-miterlimit:10;}
	.st25{fill:#28BFA2;stroke:#28BFA2;stroke-width:0.4819;stroke-miterlimit:10;}
	.st26{fill:#FFFFFF;stroke:#4A265A;stroke-width:0.3118;stroke-miterlimit:10;}
	.st27{fill:#FFFFFF;stroke:#4A265A;stroke-width:0.7087;stroke-miterlimit:10;}
	.st28{fill:#28BFA2;stroke:#4A265A;stroke-width:0.7087;stroke-miterlimit:10;}
	.st29{fill:#28BFA2;stroke:#4A265A;stroke-width:0.3118;stroke-miterlimit:10;}
	.st30{fill:#FFFFFF;stroke:#FFFFFF;stroke-width:0.085;stroke-miterlimit:10;}
	.st31{fill:#28BFA2;stroke:#28BFA2;stroke-width:0.085;stroke-miterlimit:10;}
	.st32{fill:#FFFFFF;stroke:#28BFA2;stroke-width:0.5669;stroke-miterlimit:10;}
</style>
<g>
	<circle class="st0" cx="57.04" cy="-213.14" r="56.94"/>
	<g>
		<path class="st1" d="M26.78-209.67v4.09H12.87v-3.81l6.44-6.69c1.23-1.29,1.85-2.47,1.85-3.56c0-1.31-0.77-1.96-2.32-1.96
			c-0.75,0-1.55,0.15-2.42,0.46c-0.87,0.31-1.74,0.74-2.62,1.3l-1.6-3.64c0.78-0.63,1.81-1.14,3.07-1.53
			c1.26-0.38,2.54-0.57,3.85-0.57c1.42,0,2.66,0.23,3.74,0.69c1.07,0.46,1.9,1.11,2.48,1.95s0.87,1.82,0.87,2.94
			c0,1.14-0.23,2.18-0.69,3.12c-0.46,0.94-1.24,1.99-2.34,3.15l-3.98,4.06H26.78z"/>
		<path class="st1" d="M30.84-207.94c-1.29-1.74-1.93-4.25-1.93-7.53c0-3.23,0.65-5.71,1.95-7.45c1.3-1.74,3.16-2.6,5.59-2.6
			c2.43,0,4.29,0.87,5.59,2.6c1.3,1.74,1.95,4.22,1.95,7.45c0,3.29-0.64,5.8-1.93,7.53c-1.29,1.74-3.15,2.6-5.6,2.6
			S32.13-206.2,30.84-207.94z M38.38-210.68c0.39-0.97,0.59-2.57,0.59-4.79c0-2.18-0.2-3.76-0.59-4.72
			c-0.39-0.96-1.04-1.44-1.93-1.44s-1.54,0.48-1.93,1.44c-0.39,0.96-0.59,2.53-0.59,4.72c0,2.22,0.2,3.82,0.59,4.79
			c0.39,0.97,1.04,1.46,1.93,1.46S37.98-209.71,38.38-210.68z"/>
		<path class="st1" d="M51.23-210.68v3.22c0,1.19-0.21,2.28-0.64,3.25c-0.43,0.97-1.16,1.96-2.18,2.97l-1.88-1.48
			c1.01-1.01,1.63-1.96,1.88-2.86h-2.35v-5.1H51.23z"/>
		<path class="st1" d="M55.26-207.94c-1.29-1.74-1.93-4.25-1.93-7.53c0-3.23,0.65-5.71,1.95-7.45c1.3-1.74,3.16-2.6,5.59-2.6
			c2.43,0,4.29,0.87,5.59,2.6c1.3,1.74,1.95,4.22,1.95,7.45c0,3.29-0.64,5.8-1.93,7.53c-1.29,1.74-3.15,2.6-5.6,2.6
			S56.55-206.2,55.26-207.94z M62.79-210.68c0.39-0.97,0.59-2.57,0.59-4.79c0-2.18-0.2-3.76-0.59-4.72
			c-0.39-0.96-1.04-1.44-1.93-1.44s-1.54,0.48-1.93,1.44c-0.39,0.96-0.59,2.53-0.59,4.72c0,2.22,0.2,3.82,0.59,4.79
			c0.39,0.97,1.04,1.46,1.93,1.46S62.4-209.71,62.79-210.68z"/>
		<path class="st1" d="M72.06-207.94c-1.29-1.74-1.93-4.25-1.93-7.53c0-3.23,0.65-5.71,1.95-7.45c1.3-1.74,3.16-2.6,5.59-2.6
			c2.43,0,4.29,0.87,5.59,2.6c1.3,1.74,1.95,4.22,1.95,7.45c0,3.29-0.64,5.8-1.93,7.53c-1.29,1.74-3.15,2.6-5.6,2.6
			S73.35-206.2,72.06-207.94z M79.59-210.68c0.39-0.97,0.59-2.57,0.59-4.79c0-2.18-0.2-3.76-0.59-4.72
			c-0.39-0.96-1.04-1.44-1.93-1.44s-1.54,0.48-1.93,1.44c-0.39,0.96-0.59,2.53-0.59,4.72c0,2.22,0.2,3.82,0.59,4.79
			c0.39,0.97,1.04,1.46,1.93,1.46S79.2-209.71,79.59-210.68z"/>
		<path class="st1" d="M88.86-207.94c-1.29-1.74-1.93-4.25-1.93-7.53c0-3.23,0.65-5.71,1.95-7.45c1.3-1.74,3.16-2.6,5.59-2.6
			c2.43,0,4.29,0.87,5.59,2.6c1.3,1.74,1.95,4.22,1.95,7.45c0,3.29-0.64,5.8-1.93,7.53c-1.29,1.74-3.15,2.6-5.6,2.6
			S90.15-206.2,88.86-207.94z M96.39-210.68c0.39-0.97,0.59-2.57,0.59-4.79c0-2.18-0.2-3.76-0.59-4.72
			c-0.39-0.96-1.04-1.44-1.93-1.44s-1.54,0.48-1.93,1.44c-0.39,0.96-0.59,2.53-0.59,4.72c0,2.22,0.2,3.82,0.59,4.79
			c0.39,0.97,1.04,1.46,1.93,1.46S96-209.71,96.39-210.68z"/>
	</g>
</g>
<g>
	<path class="st1" d="M305.49-209.67h8.09v4.09h-14.95v-4.09h1.76v-4.34h-1.76v-2.91h1.76v-3c0-1.1,0.28-2.08,0.85-2.94
		c0.57-0.86,1.36-1.53,2.38-2c1.02-0.48,2.19-0.71,3.51-0.71c1.31,0,2.54,0.18,3.71,0.55c1.17,0.36,2.19,0.88,3.07,1.55l-1.6,3.64
		c-1.9-1.18-3.48-1.76-4.73-1.76c-0.69,0-1.21,0.17-1.57,0.52s-0.53,0.84-0.53,1.5v2.66h4.31v2.91h-4.31V-209.67z"/>
	<path class="st1" d="M326.38-209.67h4.23v4.09H317v-4.09h4.23v-10.05l-3.33,1.9l-1.85-3.7l6.69-3.81h3.64V-209.67z"/>
	<path class="st1" d="M344.13-217.7c0.95,0.53,1.69,1.28,2.23,2.24c0.53,0.96,0.8,2.07,0.8,3.32c0,1.36-0.33,2.56-0.98,3.58
		c-0.65,1.03-1.58,1.82-2.77,2.37c-1.19,0.55-2.6,0.83-4.2,0.83c-1.29,0-2.56-0.19-3.82-0.57c-1.26-0.38-2.26-0.89-3.01-1.53
		l1.6-3.64c1.75,1.18,3.52,1.76,5.29,1.76c1.04,0,1.82-0.21,2.32-0.63c0.5-0.42,0.76-1.08,0.76-1.97c0-0.86-0.27-1.52-0.8-1.97
		c-0.53-0.46-1.27-0.69-2.23-0.69c-0.52,0-1.09,0.09-1.69,0.27c-0.61,0.18-1.16,0.42-1.67,0.71h-2.83v-11.7h13.02v3.89h-8.01v3.44
		c0.73-0.34,1.64-0.5,2.74-0.5C342.09-218.49,343.18-218.23,344.13-217.7z"/>
	<path class="st1" d="M350.74-207.94c-1.29-1.74-1.93-4.25-1.93-7.53c0-3.23,0.65-5.71,1.95-7.45c1.3-1.74,3.16-2.6,5.59-2.6
		c2.43,0,4.29,0.87,5.59,2.6c1.3,1.74,1.95,4.22,1.95,7.45c0,3.29-0.64,5.8-1.93,7.53c-1.29,1.74-3.15,2.6-5.6,2.6
		S352.02-206.2,350.74-207.94z M358.27-210.68c0.39-0.97,0.59-2.57,0.59-4.79c0-2.18-0.2-3.76-0.59-4.72
		c-0.39-0.96-1.04-1.44-1.93-1.44s-1.54,0.48-1.93,1.44c-0.39,0.96-0.59,2.53-0.59,4.72c0,2.22,0.2,3.82,0.59,4.79
		c0.39,0.97,1.04,1.46,1.93,1.46S357.88-209.71,358.27-210.68z"/>
	<path class="st1" d="M387.35-218.24c0.77,0.97,1.16,2.46,1.16,4.48v8.18h-4.98v-8.04c0-0.8-0.12-1.38-0.36-1.74
		c-0.24-0.35-0.64-0.53-1.2-0.53c-0.69,0-1.22,0.24-1.58,0.73c-0.36,0.49-0.55,1.18-0.55,2.07v7.5h-4.98v-8.04
		c0-0.8-0.12-1.38-0.36-1.74c-0.24-0.35-0.64-0.53-1.2-0.53c-0.69,0-1.21,0.24-1.57,0.73c-0.35,0.49-0.53,1.18-0.53,2.07v7.5h-4.98
		v-13.78h4.84v1.74c0.91-1.38,2.31-2.07,4.2-2.07c1.98,0,3.31,0.81,4,2.44c0.49-0.77,1.12-1.36,1.92-1.79
		c0.79-0.43,1.67-0.64,2.62-0.64C385.38-219.7,386.57-219.21,387.35-218.24z"/>
</g>
<circle class="st0" cx="198.38" cy="-213.14" r="56.94"/>
<g>
	<path class="st1" d="M160.16-209.67h8.09v4.09H153.3v-4.09h1.76v-4.34h-1.76v-2.91h1.76v-3c0-1.1,0.28-2.08,0.85-2.94
		c0.57-0.86,1.36-1.53,2.38-2c1.02-0.48,2.19-0.71,3.51-0.71c1.31,0,2.54,0.18,3.71,0.55c1.17,0.36,2.19,0.88,3.07,1.55l-1.6,3.64
		c-1.9-1.18-3.48-1.76-4.73-1.76c-0.69,0-1.21,0.17-1.57,0.52s-0.53,0.84-0.53,1.5v2.66h4.31v2.91h-4.31V-209.67z"/>
	<path class="st1" d="M181.05-209.67h4.23v4.09h-13.61v-4.09h4.23v-10.05l-3.33,1.9l-1.85-3.7l6.69-3.81h3.64V-209.67z"/>
	<path class="st1" d="M198.8-217.7c0.95,0.53,1.69,1.28,2.23,2.24c0.53,0.96,0.8,2.07,0.8,3.32c0,1.36-0.33,2.56-0.98,3.58
		c-0.65,1.03-1.58,1.82-2.77,2.37c-1.19,0.55-2.6,0.83-4.2,0.83c-1.29,0-2.56-0.19-3.82-0.57c-1.26-0.38-2.26-0.89-3.01-1.53
		l1.6-3.64c1.75,1.18,3.52,1.76,5.29,1.76c1.04,0,1.82-0.21,2.32-0.63c0.5-0.42,0.76-1.08,0.76-1.97c0-0.86-0.27-1.52-0.8-1.97
		c-0.53-0.46-1.27-0.69-2.23-0.69c-0.52,0-1.09,0.09-1.69,0.27c-0.61,0.18-1.16,0.42-1.67,0.71h-2.83v-11.7h13.02v3.89h-8.01v3.44
		c0.73-0.34,1.64-0.5,2.74-0.5C196.77-218.49,197.85-218.23,198.8-217.7z"/>
	<path class="st1" d="M205.41-207.94c-1.29-1.74-1.93-4.25-1.93-7.53c0-3.23,0.65-5.71,1.95-7.45c1.3-1.74,3.16-2.6,5.59-2.6
		c2.43,0,4.29,0.87,5.59,2.6c1.3,1.74,1.95,4.22,1.95,7.45c0,3.29-0.64,5.8-1.93,7.53c-1.29,1.74-3.15,2.6-5.6,2.6
		S206.7-206.2,205.41-207.94z M212.94-210.68c0.39-0.97,0.59-2.57,0.59-4.79c0-2.18-0.2-3.76-0.59-4.72
		c-0.39-0.96-1.04-1.44-1.93-1.44s-1.54,0.48-1.93,1.44c-0.39,0.96-0.59,2.53-0.59,4.72c0,2.22,0.2,3.82,0.59,4.79
		c0.39,0.97,1.04,1.46,1.93,1.46S212.55-209.71,212.94-210.68z"/>
	<path class="st1" d="M242.02-218.24c0.77,0.97,1.16,2.46,1.16,4.48v8.18h-4.98v-8.04c0-0.8-0.12-1.38-0.36-1.74
		c-0.24-0.35-0.64-0.53-1.2-0.53c-0.69,0-1.22,0.24-1.58,0.73c-0.36,0.49-0.55,1.18-0.55,2.07v7.5h-4.98v-8.04
		c0-0.8-0.12-1.38-0.36-1.74c-0.24-0.35-0.64-0.53-1.2-0.53c-0.69,0-1.21,0.24-1.57,0.73c-0.35,0.49-0.53,1.18-0.53,2.07v7.5h-4.98
		v-13.78h4.84v1.74c0.91-1.38,2.31-2.07,4.2-2.07c1.98,0,3.31,0.81,4,2.44c0.49-0.77,1.12-1.36,1.92-1.79
		c0.79-0.43,1.67-0.64,2.62-0.64C240.05-219.7,241.24-219.21,242.02-218.24z"/>
</g>
<circle class="st0" cx="343.71" cy="-213.14" r="56.94"/>
<g>
	<path class="st1" d="M326.29-209.67v4.09h-13.92v-3.81l6.44-6.69c1.23-1.29,1.85-2.47,1.85-3.56c0-1.31-0.77-1.96-2.32-1.96
		c-0.75,0-1.55,0.15-2.42,0.46c-0.87,0.31-1.74,0.74-2.62,1.3l-1.6-3.64c0.78-0.63,1.81-1.14,3.07-1.53
		c1.26-0.38,2.54-0.57,3.85-0.57c1.42,0,2.66,0.23,3.74,0.69c1.07,0.46,1.9,1.11,2.48,1.95s0.87,1.82,0.87,2.94
		c0,1.14-0.23,2.18-0.69,3.12c-0.46,0.94-1.24,1.99-2.34,3.15l-3.98,4.06H326.29z"/>
	<path class="st1" d="M330.35-207.94c-1.29-1.74-1.93-4.25-1.93-7.53c0-3.23,0.65-5.71,1.95-7.45c1.3-1.74,3.16-2.6,5.59-2.6
		c2.43,0,4.29,0.87,5.59,2.6c1.3,1.74,1.95,4.22,1.95,7.45c0,3.29-0.64,5.8-1.93,7.53c-1.29,1.74-3.15,2.6-5.6,2.6
		S331.64-206.2,330.35-207.94z M337.88-210.68c0.39-0.97,0.59-2.57,0.59-4.79c0-2.18-0.2-3.76-0.59-4.72
		c-0.39-0.96-1.04-1.44-1.93-1.44s-1.54,0.48-1.93,1.44c-0.39,0.96-0.59,2.53-0.59,4.72c0,2.22,0.2,3.82,0.59,4.79
		c0.39,0.97,1.04,1.46,1.93,1.46S337.49-209.71,337.88-210.68z"/>
	<path class="st1" d="M347.15-207.94c-1.29-1.74-1.93-4.25-1.93-7.53c0-3.23,0.65-5.71,1.95-7.45c1.3-1.74,3.16-2.6,5.59-2.6
		c2.43,0,4.29,0.87,5.59,2.6c1.3,1.74,1.95,4.22,1.95,7.45c0,3.29-0.64,5.8-1.93,7.53c-1.29,1.74-3.15,2.6-5.6,2.6
		S348.44-206.2,347.15-207.94z M354.68-210.68c0.39-0.97,0.59-2.57,0.59-4.79c0-2.18-0.2-3.76-0.59-4.72
		c-0.39-0.96-1.04-1.44-1.93-1.44s-1.54,0.48-1.93,1.44c-0.39,0.96-0.59,2.53-0.59,4.72c0,2.22,0.2,3.82,0.59,4.79
		c0.39,0.97,1.04,1.46,1.93,1.46S354.29-209.71,354.68-210.68z"/>
	<path class="st1" d="M374.25-217.75c0.9,0.55,1.6,1.32,2.11,2.3c0.51,0.98,0.77,2.09,0.77,3.32c0,1.31-0.29,2.48-0.88,3.51
		s-1.41,1.84-2.46,2.42c-1.05,0.58-2.25,0.87-3.57,0.87c-2.63,0-4.66-0.86-6.09-2.58c-1.43-1.72-2.14-4.16-2.14-7.34
		c0-2.13,0.35-3.97,1.04-5.52c0.69-1.55,1.68-2.74,2.98-3.57c1.3-0.83,2.82-1.25,4.58-1.25c1.23,0,2.43,0.18,3.6,0.55
		c1.17,0.36,2.15,0.88,2.95,1.55l-1.6,3.64c-0.86-0.6-1.69-1.04-2.49-1.33c-0.8-0.29-1.55-0.43-2.24-0.43
		c-1.1,0-1.96,0.42-2.58,1.25c-0.62,0.83-0.98,2.07-1.09,3.71c0.41-0.6,0.98-1.07,1.71-1.41c0.73-0.34,1.52-0.52,2.38-0.52
		C372.35-218.58,373.36-218.3,374.25-217.75z M371.68-210.01c0.43-0.49,0.64-1.13,0.64-1.93c0-0.82-0.21-1.47-0.63-1.95
		c-0.42-0.48-1-0.71-1.75-0.71c-0.73,0-1.31,0.24-1.75,0.73c-0.44,0.49-0.66,1.13-0.66,1.93c0,0.78,0.22,1.42,0.66,1.92
		c0.44,0.5,1.02,0.74,1.75,0.74S371.25-209.52,371.68-210.01z"/>
</g>
<g>
	<circle class="st0" cx="40.19" cy="-71.96" r="40.19"/>
	<path class="st2" d="M29.29-73.97c-5.44,0-9.86,4.42-9.86,9.86c0,5.44,4.42,9.86,9.86,9.86c5.44,0,9.86-4.42,9.86-9.86
		C39.15-69.55,34.73-73.97,29.29-73.97z M29.29-55.57c-4.71,0-8.54-3.83-8.54-8.54c0-4.71,3.83-8.54,8.54-8.54
		c4.71,0,8.54,3.83,8.54,8.54C37.83-59.4,34-55.57,29.29-55.57z"/>
	<path class="st3" d="M29.29-69.35c-2.89,0-5.25,2.35-5.25,5.24c0,2.89,2.35,5.24,5.25,5.24c2.89,0,5.24-2.35,5.24-5.24
		C34.54-67,32.19-69.35,29.29-69.35z"/>
	<path class="st4" d="M53.47-75.22h-6.89l-4.81-14.17c-0.06-0.16-0.21-0.28-0.38-0.28H24.53c-0.22,0-0.41,0.18-0.41,0.41v0.51
		c0,0.22,0.18,0.41,0.41,0.41h2.31l-2.87,11.77c-4.65,2.05-7.9,6.7-7.9,12.1c0,0.22,0.18,0.41,0.41,0.41h0.51
		c0.22,0,0.41-0.18,0.41-0.41c0-6.56,5.34-11.9,11.9-11.9c1.75,0,3.42,0.38,4.92,1.06c0.07,0.05,0.15,0.09,0.24,0.11
		c3.99,1.92,6.74,6.01,6.74,10.72v2.48c0,0.22,0.18,0.41,0.41,0.41h12.23c-0.14,0.48-0.22,0.99-0.22,1.53c0,2.95,2.4,5.35,5.35,5.35
		c2.95,0,5.35-2.4,5.35-5.35c0-1.08-0.32-2.09-0.88-2.93v-8.87c0-1.85-1.5-3.35-3.35-3.35h-5.44L53.47-75.22z M25.47-77.13
		l2.74-11.21h12.52l4.45,13.13h-2.82l-1.11-2.5l1.31-0.9c0.26-0.18,0.33-0.52,0.17-0.79c-0.16-0.27-0.5-0.36-0.78-0.22l-4.02,2.11
		c-0.29,0.15-0.4,0.51-0.25,0.79c0.1,0.2,0.31,0.31,0.52,0.31c0.09,0,0.19-0.02,0.27-0.07l1.65-0.87l0.94,2.12H37
		c-0.6-0.43-1.23-0.81-1.9-1.14l-0.87-7.18c-0.02-0.17-0.12-0.33-0.27-0.43c-0.15-0.09-0.33-0.12-0.5-0.06l-1.4,0.46
		c-0.22,0.07-0.38,0.27-0.4,0.5l-0.53,5.49c-0.6-0.08-1.21-0.13-1.83-0.13C27.96-77.69,26.68-77.5,25.47-77.13z M33.84-76.89
		c-0.51-0.19-1.03-0.34-1.56-0.47l0.5-5.2l0.36-0.12L33.84-76.89z M42.52-62.91v-1.56c0-3.68-1.51-7.02-3.95-9.42h21.52
		c0.91,0,1.69,0.61,1.94,1.44h-3.06c-0.37,0-0.66,0.3-0.66,0.66s0.3,0.66,0.66,0.66h3.15v1.43h-3.15c-0.37,0-0.66,0.3-0.66,0.66
		c0,0.37,0.3,0.66,0.66,0.66h3.15v3.99c-0.88-0.64-1.97-1.03-3.15-1.03c-1.9,0-3.58,1-4.53,2.5L42.52-62.91L42.52-62.91z
		 M58.96-56.03c-2.22,0-4.03-1.81-4.03-4.03c0-2.22,1.81-4.03,4.03-4.03c2.22,0,4.02,1.81,4.02,4.03S61.18-56.03,58.96-56.03z"/>
	<path class="st5" d="M53.49-75.12v-6.12c0-0.04,0-0.07-0.01-0.11c-0.04-0.2-0.07-0.8,0.2-1.13c0.17-0.2,0.44-0.3,0.84-0.3
		c0.32,0,0.59-0.26,0.59-0.59s-0.26-0.59-0.59-0.59c-0.95,0-1.48,0.4-1.75,0.73c-0.61,0.74-0.5,1.75-0.46,2.03v6.07"/>
</g>
<g>
	<circle class="st0" cx="141.44" cy="-71.96" r="40.19"/>
	<path class="st6" d="M123.68-94.96c-0.26,0.05-0.44,0.27-0.43,0.53v38.51c0,0.3,0.24,0.53,0.53,0.53h4.81v5.88
		c0,0.3,0.24,0.53,0.53,0.53h29.95c0.3,0,0.53-0.24,0.53-0.53V-88c0-0.3-0.24-0.53-0.53-0.53h-4.81v-5.88c0-0.3-0.24-0.53-0.53-0.53
		h-29.95C123.75-94.96,123.72-94.96,123.68-94.96z M124.32-93.89h28.88v37.44h-28.88V-93.89L124.32-93.89z M154.27-87.47h4.28v37.44
		h-28.88v-5.35h24.07c0.3,0,0.53-0.24,0.53-0.53V-87.47z"/>
	<path class="st7" d="M138.91-90.68c-5.9,0-10.7,4.8-10.7,10.7s4.8,10.7,10.7,10.7s10.7-4.8,10.7-10.7S144.81-90.68,138.91-90.68z
		 M138.91-89.61c5.32,0,9.63,4.3,9.63,9.63s-4.3,9.63-9.63,9.63s-9.63-4.3-9.63-9.63S133.58-89.61,138.91-89.61z M129.18-65
		c-0.3,0.03-0.51,0.29-0.48,0.59c0.03,0.29,0.29,0.51,0.58,0.48h19.26c0.3,0,0.54-0.23,0.54-0.53c0-0.3-0.23-0.54-0.53-0.54
		c-0.01,0-0.01,0-0.02,0h-19.26C129.25-65,129.21-65,129.18-65z M129.18-60.72c-0.3,0.03-0.51,0.29-0.49,0.58
		c0.03,0.3,0.29,0.51,0.58,0.49c0,0,0,0,0,0h19.26c0.3,0,0.54-0.23,0.54-0.53c0-0.3-0.23-0.54-0.53-0.54c-0.01,0-0.01,0-0.02,0
		h-19.26C129.25-60.73,129.21-60.73,129.18-60.72z"/>
	<path class="st8" d="M137.89-76.63h4.07v1.35h-6.79v-1.35h1.07v-2.72h-1.07v-1.04h1.07V-82c0-0.51,0.12-0.96,0.35-1.35
		s0.56-0.68,0.99-0.9c0.42-0.21,0.92-0.32,1.48-0.32s1.11,0.09,1.62,0.28c0.52,0.19,0.98,0.45,1.38,0.8l-0.56,1.21
		c-0.82-0.63-1.6-0.95-2.33-0.95c-0.42,0-0.73,0.12-0.96,0.34c-0.22,0.23-0.33,0.56-0.33,1v1.49h2.2v1.04h-2.2V-76.63z"/>
</g>
<g>
	<circle class="st0" cx="246.66" cy="-71.96" r="40.19"/>
	<g>
		<path class="st9" d="M260.46-68.35v-10.73c0.01-5.04-3.76-9.3-8.77-9.89l2.56-5.1c0.19-0.38,0.04-0.84-0.34-1.03
			c-0.11-0.05-0.23-0.08-0.35-0.08h-13.8c-0.42,0-0.77,0.34-0.77,0.77c0,0.12,0.03,0.24,0.08,0.34l2.55,5.1
			c-5,0.61-8.76,4.85-8.77,9.89v13.8h1.53v-13.8c0.01-4.66,3.78-8.43,8.43-8.43h7.67c4.65-0.01,8.43,3.76,8.43,8.41
			c0,0.01,0,0.02,0,0.02v10.73H260.46z M250.02-89.05h-6.72l-2.3-4.6h11.32L250.02-89.05z"/>
		<path class="st9" d="M240.15-83.73c0.42-0.24,0.87-0.43,1.34-0.55l-0.38-1.48c-0.6,0.16-1.19,0.39-1.73,0.71L240.15-83.73z"/>
		<path class="st9" d="M235.93-76.02h1.53v-3.07c0-1.45,0.58-2.84,1.63-3.85l-1.07-1.1c-1.34,1.29-2.1,3.08-2.1,4.95V-76.02z"/>
		<path class="st10" d="M225.85-57.5l13.02,7.1c1.46,0.8,3.11,1.22,4.78,1.22h25.26c0.42,0,0.77-0.34,0.77-0.77v-13.8
			c0-0.42-0.34-0.77-0.77-0.77h-5.87l-0.09-0.07c-0.9-0.7-1.9-1.28-2.96-1.7c-3.72-1.52-7.94-1.15-11.34,1h-5.82
			c-2.12,0-3.83,1.72-3.83,3.83c0,0.39,0.06,0.78,0.18,1.15l-9.48-4.75c-1.41-0.71-3.1-0.55-4.34,0.42
			c-1.06,0.79-1.69,2.04-1.69,3.37v0.08C223.66-59.65,224.5-58.23,225.85-57.5z M263.53-62.98h4.6v12.27h-4.6V-62.98z M225.2-61.27
			c0.01-0.86,0.42-1.66,1.11-2.17c0.78-0.59,1.83-0.68,2.7-0.24l11.95,5.98c0.11,0.05,0.22,0.08,0.34,0.08h11.5v-1.53h-9.97
			c-1.27,0-2.3-1.03-2.3-2.3c0-1.27,1.03-2.3,2.3-2.3h6.04c0.15,0,0.3-0.04,0.42-0.13c3-1.98,6.79-2.35,10.12-0.99
			c0.93,0.37,1.8,0.87,2.58,1.48v12.66h-18.35c-1.41,0-2.8-0.36-4.04-1.03l-13.02-7.1c-0.85-0.46-1.39-1.36-1.38-2.33V-61.27z"/>
		<rect x="265.07" y="-54.55" class="st10" width="1.53" height="1.53"/>
	</g>
	<path class="st8" d="M245.94-73.09h4.07v1.35h-6.79v-1.35h1.07v-2.72h-1.07v-1.04h1.07v-1.61c0-0.51,0.12-0.96,0.35-1.35
		s0.56-0.68,0.99-0.9c0.42-0.21,0.92-0.32,1.48-0.32s1.11,0.09,1.62,0.28c0.52,0.19,0.98,0.45,1.38,0.8l-0.56,1.21
		c-0.82-0.63-1.6-0.95-2.33-0.95c-0.42,0-0.73,0.12-0.96,0.34c-0.22,0.23-0.33,0.56-0.33,1v1.49h2.2v1.04h-2.2V-73.09z"/>
</g>
<g>
	<circle class="st0" cx="360.55" cy="-71.96" r="40.19"/>
	<g>
		<path class="st11" d="M373.92-90.95v-3.11h-1.1v3.11h-24.53v-3.11h-1.1v3.11H340v9.74v31.37h41.1v-31.37v-9.74H373.92z
			 M373.37-87.07c0.54,0,0.98,0.44,0.98,0.98c0,0.54-0.44,0.98-0.98,0.98c-0.54,0-0.98-0.44-0.98-0.98
			C372.39-86.63,372.83-87.07,373.37-87.07z M347.74-87.07c0.54,0,0.98,0.44,0.98,0.98c0,0.54-0.44,0.98-0.98,0.98
			c-0.54,0-0.98-0.44-0.98-0.98C346.76-86.63,347.2-87.07,347.74-87.07z M380-50.95h-38.9v-30.26H380L380-50.95L380-50.95z
			 M380-82.32h-38.9v-7.53h6.08v1.77c-0.88,0.24-1.53,1.04-1.53,2c0,1.15,0.93,2.08,2.08,2.08c1.15,0,2.08-0.93,2.08-2.08
			c0-0.96-0.65-1.76-1.53-2v-1.77h24.53v1.77c-0.88,0.24-1.53,1.04-1.53,2c0,1.15,0.93,2.08,2.08,2.08c1.15,0,2.08-0.93,2.08-2.08
			c0-0.96-0.65-1.76-1.53-2v-1.77H380V-82.32z"/>
		<path class="st12" d="M355.77-53.08h9.56h1.1h10.66v-8.36v-1.1v-7.26v-1.1v-8.36h-10.66h-1.1h-9.56h-1.1h-10.66v8.36v1.1v7.26v1.1
			v8.36h10.66H355.77z M366.43-78.16h9.56v7.26h-9.56V-78.16z M366.43-69.8h9.56v7.26h-9.56V-69.8z M366.43-61.44h9.56v7.26h-9.56
			V-61.44z M355.77-78.16h9.56v7.26h-9.56V-78.16z M355.77-69.8h9.56v7.26h-9.56V-69.8z M355.77-61.44h9.56v7.26h-9.56V-61.44z
			 M345.11-78.16h9.56v7.26h-9.56V-78.16z M345.11-69.8h9.56v7.26h-9.56V-69.8z M345.11-61.44h9.56v7.26h-9.56V-61.44z"/>
		<polygon class="st11" points="372.3,-68.57 370.89,-67.15 369.48,-68.57 368.7,-67.79 370.11,-66.38 368.7,-64.96 369.48,-64.18 
			370.89,-65.6 372.3,-64.18 373.08,-64.96 371.67,-66.38 373.08,-67.79 		"/>
	</g>
</g>
<g>
	<circle class="st0" cx="483.98" cy="-71.96" r="40.19"/>
	<g>
		<path class="st13" d="M480.2-93.6c-4.32,0-7.84,3.52-7.84,7.84c0,1.68,0.54,3.24,1.44,4.51l0.37-0.44
			c1.71-1.71,4.01-2.66,6.46-2.66c0.33,0,0.67,0,0.99,0.05l0.05,0.01l0.04-0.02c1.87-0.91,3.93-1.14,5.98-0.66l0,0
			c0,0,0.1,0.02,0.28,0.08c0.03-0.28,0.05-0.57,0.05-0.86C488.04-90.09,484.52-93.6,480.2-93.6z"/>
		<path class="st13" d="M480.68-77.95c0.33-0.01,0.58,0.22,0.6,0.53c0.02,0.31-0.22,0.58-0.53,0.6c-0.18,0.01-0.36,0.02-0.54,0.02
			c-0.37,0-0.74-0.03-1.1-0.08c0.23,0.67,0.86,1.14,1.54,1.14c0.88,0,1.63-0.75,1.63-1.63c0-0.88-0.75-1.63-1.63-1.63
			c-0.59,0-1.13,0.32-1.41,0.84l0,0c0,0-0.03,0.06-0.07,0.15c0.34,0.05,0.69,0.08,1.04,0.08C480.36-77.93,480.52-77.94,480.68-77.95
			z"/>
		<path class="st13" d="M488.15-83.75c-0.22-0.07-0.44-0.14-0.67-0.19c-1.09-0.24-2.17-0.25-3.3-0.05l-0.52,0.09l0.49,0.2
			c3.43,1.42,5.65,4.74,5.65,8.45c0,2.62-1.13,5.12-3.09,6.84l-0.22,0.2l0.29,0.07c0.19,0.05,0.32,0.13,0.39,0.27l1.34,2.19
			l2.81,0.29c0.22,0.06,0.38,0.15,0.43,0.26c0.09,0.18,0.11,0.37,0.04,0.51l-0.92,2.61l-0.02,0.07l0.66,1.05l2.81,0.29
			c0.22,0.06,0.38,0.15,0.43,0.26c0.09,0.18,0.11,0.37,0.04,0.51l-0.94,2.68l1,1.52l4.01,0.51l1.27-3.81l-7.67-12.28
			c-0.12-0.19-0.12-0.42,0-0.61c1.66-2.59,1.68-5.95,0.05-8.57c-0.94-1.52-2.38-2.65-4.11-3.27c-0.01,0-0.02,0-0.04,0
			C488.28-83.68,488.21-83.71,488.15-83.75z"/>
		<path class="st13" d="M477.8-78.31c0.07-0.2,0.13-0.34,0.13-0.35c0.47-1.12,1.57-1.84,2.8-1.84c1.7,0,3.08,1.38,3.08,3.08
			c0,1.7-1.38,3.08-3.08,3.08c-1.64,0-2.97-1.24-3.07-2.84c-1.44-0.43-2.74-1.2-3.78-2.24c-0.8,1.25-1.23,2.69-1.23,4.21
			c0,3.08,1.8,5.92,4.59,7.24c0.18,0.07,0.29,0.25,0.29,0.48v2.59l2.24,1.74c0.15,0.11,0.23,0.26,0.23,0.46
			c0,0.19-0.07,0.34-0.23,0.46l-2.23,1.74v1.21l2.24,1.74c0.15,0.11,0.23,0.26,0.23,0.45c0,0.19-0.07,0.34-0.23,0.46l-2.23,1.74
			v1.84l3.1,2.59l3.1-2.59v-14.37c0-0.3,0.27-0.46,0.44-0.54c2.78-1.34,4.58-4.18,4.58-7.24c0-4.43-3.6-8.03-8.03-8.03
			c-2.21,0-4.27,0.87-5.81,2.46l-0.34,0.43C475.46-79.41,476.56-78.71,477.8-78.31z"/>
		<path class="st0" d="M480.64-75.58c0.97,0,1.79-0.82,1.79-1.79c0-0.97-0.82-1.79-1.79-1.79c-0.68,0-1.26,0.39-1.55,0.92
			c0,0-0.04,0.08-0.09,0.2c0.05,0.01,0.1,0.02,0.16,0.02c0.04-0.09,0.07-0.15,0.07-0.15l0,0c0.28-0.52,0.82-0.84,1.41-0.84
			c0.88,0,1.63,0.75,1.63,1.63c0,0.88-0.75,1.63-1.63,1.63c-0.68,0-1.31-0.47-1.54-1.14c-0.06-0.01-0.11-0.02-0.17-0.03
			c0.01,0.02,0.01,0.04,0.02,0.06C479.19-76.11,479.86-75.58,480.64-75.58z"/>
		<path class="st1" d="M480.73-74.33c1.7,0,3.08-1.38,3.08-3.08c0-1.7-1.38-3.08-3.08-3.08c-1.24,0-2.34,0.72-2.8,1.84
			c0,0.01-0.06,0.15-0.13,0.35c0.34,0.11,0.69,0.19,1.04,0.25c0.05-0.14,0.1-0.24,0.11-0.25c0.34-0.62,0.98-1,1.68-1
			c1.05,0,1.94,0.89,1.94,1.94c0,1.05-0.89,1.94-1.94,1.94c-0.82,0-1.57-0.56-1.84-1.36c-0.02-0.05-0.02-0.09-0.03-0.14
			c-0.37-0.06-0.74-0.14-1.1-0.24C477.77-75.57,479.09-74.33,480.73-74.33z"/>
		<path class="st1" d="M479.09-78.24c0.29-0.53,0.87-0.92,1.55-0.92c0.97,0,1.79,0.82,1.79,1.79c0,0.97-0.82,1.79-1.79,1.79
			c-0.77,0-1.45-0.53-1.69-1.26c-0.01-0.02-0.01-0.04-0.02-0.06c-0.06-0.01-0.11-0.02-0.17-0.03c0.01,0.05,0.02,0.09,0.03,0.14
			c0.27,0.8,1.02,1.36,1.84,1.36c1.05,0,1.94-0.89,1.94-1.94c0-1.05-0.89-1.94-1.94-1.94c-0.7,0-1.35,0.38-1.68,1
			c-0.01,0.02-0.06,0.11-0.11,0.25c0.05,0.01,0.11,0.02,0.16,0.02C479.05-78.16,479.09-78.24,479.09-78.24z"/>
		<path class="st1" d="M501.22-59.33l-7.62-12.09l0.05-0.08c1.66-2.9,1.59-6.59-0.19-9.4c-0.92-1.48-2.22-2.63-3.85-3.42
			c-0.19-0.08-0.36-0.15-0.52-0.21c-0.02,0.14-0.03,0.28-0.06,0.42c-0.05,0.3-0.33,0.49-0.63,0.45c1.73,0.62,3.17,1.75,4.11,3.27
			c1.63,2.62,1.61,5.98-0.05,8.57c-0.11,0.19-0.11,0.42,0,0.61l7.67,12.28l-1.27,3.81l-4.01-0.51l-1-1.52l0.94-2.68
			c0.07-0.14,0.05-0.32-0.04-0.51c-0.05-0.11-0.21-0.2-0.43-0.26l-2.81-0.29l-0.66-1.05l0.02-0.07l0.92-2.61
			c0.07-0.14,0.05-0.32-0.04-0.51c-0.05-0.11-0.21-0.2-0.43-0.26l-2.81-0.29l-1.34-2.19c-0.07-0.13-0.2-0.22-0.39-0.27l-0.29-0.07
			l0.22-0.2c1.96-1.72,3.09-4.21,3.09-6.84c0-3.71-2.22-7.03-5.65-8.45l-0.49-0.2l0.52-0.09c1.13-0.2,2.2-0.19,3.3,0.05
			c0.23,0.05,0.45,0.12,0.67,0.19c-0.18-0.12-0.29-0.35-0.24-0.58c0.04-0.19,0.06-0.39,0.08-0.59c-0.18-0.05-0.28-0.07-0.28-0.08
			l0,0c-2.05-0.48-4.12-0.25-5.98,0.66l-0.04,0.02l-0.05-0.01c-0.33-0.05-0.66-0.05-0.99-0.05c-2.45,0-4.74,0.94-6.46,2.66
			l-0.37,0.44c0.23,0.33,0.49,0.64,0.77,0.93l0.34-0.43c1.54-1.59,3.6-2.46,5.81-2.46c4.43,0,8.03,3.6,8.03,8.03
			c0,3.06-1.8,5.9-4.58,7.24c-0.17,0.07-0.44,0.23-0.44,0.54v14.37l-3.1,2.59l-3.1-2.59v-1.84l2.23-1.74
			c0.15-0.12,0.23-0.27,0.23-0.46c0-0.19-0.07-0.34-0.23-0.45l-2.24-1.74v-1.21l2.23-1.74c0.15-0.12,0.23-0.27,0.23-0.46
			c0-0.19-0.07-0.34-0.23-0.46l-2.24-1.74v-2.59c0-0.23-0.11-0.41-0.29-0.48c-2.79-1.32-4.59-4.16-4.59-7.24
			c0-1.52,0.43-2.97,1.23-4.21c-0.29-0.29-0.56-0.6-0.81-0.93c-1.05,1.54-1.61,3.32-1.61,5.14c0,3.34,1.86,6.43,4.84,8.07l0.08,0.04
			v2.51c0,0.19,0.07,0.34,0.23,0.46l1.9,1.48l-1.9,1.43c-0.15,0.12-0.23,0.26-0.23,0.46v1.79c0,0.19,0.07,0.34,0.23,0.46l1.9,1.48
			l-1.9,1.48c-0.16,0.12-0.23,0.27-0.23,0.46v2.37c0,0.15,0.08,0.34,0.17,0.4l3.68,3.05c0.11,0.07,0.22,0.11,0.33,0.11
			c0.12,0,0.27-0.04,0.33-0.1l3.68-3.05c0.11-0.11,0.18-0.27,0.18-0.41v-14.18l0.17,0.02c0.42,0.05,0.85,0.05,1.27,0l0.1-0.01
			l1.31,2.11c0.06,0.12,0.21,0.21,0.44,0.27l2.35,0.26L489.62-62c-0.07,0.14-0.05,0.32,0.04,0.51l0.96,1.48
			c0.06,0.12,0.22,0.22,0.44,0.27l2.35,0.26l-0.79,2.26c-0.07,0.14-0.05,0.32,0.04,0.51l1.25,2.02c0.07,0.14,0.21,0.22,0.43,0.27
			l4.72,0.63l0.08,0c0.23,0,0.46-0.16,0.53-0.38l1.5-4.54C501.3-59.05,501.29-59.19,501.22-59.33z"/>
		<path class="st5" d="M479.09-76.88C479.1-76.88,479.1-76.88,479.09-76.88c0.37,0.05,0.73,0.08,1.11,0.08
			c0.18,0,0.36-0.01,0.54-0.02c0.31-0.02,0.55-0.29,0.53-0.6c-0.02-0.31-0.27-0.54-0.6-0.53c-0.16,0.01-0.32,0.01-0.48,0.01
			c-0.35,0-0.7-0.03-1.04-0.08C479.07-77.79,478.94-77.34,479.09-76.88z"/>
		<path class="st5" d="M488.36-83.66c0.01,0,0.02,0,0.04,0c-0.08-0.03-0.16-0.06-0.24-0.08C488.21-83.71,488.28-83.68,488.36-83.66z
			"/>
		<path class="st5" d="M473.89-79.41c1.04,1.03,2.34,1.81,3.78,2.24c0-0.04-0.01-0.07-0.01-0.1l0-0.02
			c-0.04-0.34,0.06-0.74,0.15-1.02c-1.24-0.4-2.34-1.1-3.22-2.01l-0.59,0.75C473.95-79.52,473.92-79.46,473.89-79.41z"/>
		<path class="st5" d="M473.81-81.25c-0.9-1.28-1.44-2.83-1.44-4.51c0-4.32,3.51-7.84,7.84-7.84c4.32,0,7.84,3.52,7.84,7.84
			c0,0.29-0.02,0.57-0.05,0.86c0.23,0.07,0.6,0.19,1.09,0.38c0.06-0.41,0.09-0.82,0.09-1.23c0-4.95-4.02-8.97-8.97-8.97
			c-4.95,0-8.97,4.02-8.97,8.97c0,2.04,0.69,3.92,1.85,5.43c0.05-0.07,0.09-0.14,0.14-0.21L473.81-81.25z"/>
		<path class="st5" d="M479.09-76.88c-0.15-0.46-0.02-0.9,0.07-1.13c-0.05-0.01-0.11-0.02-0.16-0.02c-0.09,0.24-0.2,0.67-0.07,1.13
			C478.99-76.89,479.04-76.88,479.09-76.88C479.1-76.88,479.1-76.88,479.09-76.88z"/>
		<path class="st5" d="M478.84-78.06c-0.36-0.06-0.71-0.15-1.04-0.25c-0.09,0.28-0.19,0.68-0.15,1.02l0,0.02
			c0,0.04,0.01,0.07,0.01,0.1c0.36,0.11,0.72,0.18,1.1,0.24C478.66-77.38,478.75-77.8,478.84-78.06z"/>
		<path class="st5" d="M478.77-76.92c0.06,0.01,0.11,0.02,0.17,0.03c-0.13-0.46-0.02-0.89,0.07-1.13c-0.05-0.01-0.11-0.01-0.16-0.02
			C478.75-77.8,478.66-77.38,478.77-76.92z"/>
		<path class="st5" d="M473.89-79.41c0.04-0.06,0.06-0.12,0.1-0.17l0.59-0.75c-0.28-0.29-0.54-0.6-0.77-0.93l-0.59,0.7
			c-0.05,0.07-0.09,0.14-0.14,0.21C473.33-80.01,473.6-79.7,473.89-79.41z"/>
		<path class="st1" d="M487.91-84.32c-0.04,0.23,0.06,0.45,0.24,0.58c0.08,0.03,0.16,0.06,0.24,0.08c0.3,0.04,0.57-0.16,0.63-0.45
			c0.03-0.14,0.04-0.28,0.06-0.42c-0.49-0.19-0.86-0.31-1.09-0.38C487.97-84.72,487.94-84.52,487.91-84.32z"/>
	</g>
</g>
<g>
	<circle class="st0" cx="40.19" cy="40.19" r="40.19"/>
	<path class="st5" d="M40.7,35.34c-1.21,0-2.2,0.99-2.2,2.2s0.98,2.2,2.2,2.2s2.2-0.99,2.2-2.2S41.91,35.34,40.7,35.34z M40.7,38.74
		c-0.66,0-1.2-0.54-1.2-1.2s0.54-1.2,1.2-1.2s1.2,0.54,1.2,1.2S41.36,38.74,40.7,38.74z"/>
	<path class="st1" d="M50.19,18.09H31.77c-5.87,0-10.64,4.77-10.64,10.64v3.87c0,0.3,0.25,0.55,0.55,0.55h2.72v1.74h-6.16
		c-0.88,0-1.59,0.71-1.59,1.59v2.29c0,0.88,0.71,1.59,1.59,1.59h6.16v15.99h-2.72c-0.3,0-0.55,0.25-0.55,0.55v1.25
		c0,2.28,1.86,4.14,4.14,4.14H56.7c2.28,0,4.14-1.86,4.14-4.14v-1.25c0-0.3-0.25-0.55-0.55-0.55h-3.07V33.15h3.07
		c0.3,0,0.55-0.25,0.55-0.55v-3.87C60.83,22.86,56.06,18.09,50.19,18.09z M25.51,33.15h8.76v4.03h-3.82v-0.69
		c0-0.88-0.71-1.59-1.59-1.59h-3.35V33.15z M35.37,33.15h10.67v7.13c0,1.01-0.82,1.83-1.83,1.83H37.2c-1.01,0-1.83-0.82-1.83-1.83
		V33.15z M17.76,38.77v-2.29c0-0.27,0.22-0.49,0.49-0.49h10.61c0.27,0,0.49,0.22,0.49,0.49v2.29c0,0.27-0.22,0.49-0.49,0.49H18.25
		C17.98,39.26,17.76,39.04,17.76,38.77z M59.73,58.16c0,1.67-1.36,3.03-3.03,3.03H25.27c-1.67,0-3.03-1.36-3.03-3.03v-0.7h37.49
		V58.16z M44.11,56.36h-6.22 M33.73,52.79 M36.09,56.36H25.51V40.36h3.35c0.88,0,1.59-0.71,1.59-1.59v-0.49h3.82v2
		c0,1.62,1.31,2.93,2.93,2.93h7.02c1.62,0,2.93-1.32,2.93-2.93v-7.13h8.95v23.21H45.92 M59.73,32.04H22.24v-3.31
		c0-5.26,4.28-9.54,9.54-9.54h18.42c5.26,0,9.54,4.28,9.54,9.54V32.04z"/>
	<path class="st5" d="M45.75,56.36c3.96-3.63,3.08-9.5,3.04-9.78c-0.04-0.27-0.27-0.47-0.55-0.47H33.42c-0.27,0-0.51,0.2-0.55,0.47
		c-0.01,0.07-0.07,0.5-0.09,1.16c-0.54-0.08-1.32-0.09-1.91,0.34c-0.35,0.25-0.76,0.75-0.76,1.71c0,2.43,2.05,3.52,4.04,4.59
		l0.26,0.14c0.4,0.65,0.9,1.27,1.51,1.83 M31.22,49.8c0-0.6,0.23-0.76,0.3-0.82c0.32-0.23,0.9-0.19,1.28-0.11
		c0.05,1.12,0.24,2.52,0.77,3.93C32.09,51.94,31.22,51.16,31.22,49.8z M33.92,47.22h13.82c0.12,1.55,0.18,6.57-3.8,9.14h-6.22
		C33.79,53.82,33.81,48.78,33.92,47.22z"/>
</g>
<circle class="st0" cx="246.66" cy="40.19" r="40.19"/>
<path class="st14" d="M257.78,43.02h-0.26l0.63-5.15h1.88c0.33,0,0.6-0.27,0.6-0.6v-4.64c0-0.33-0.27-0.6-0.6-0.6h-2.34l-1.35-4.22
	c-0.08-0.25-0.31-0.42-0.57-0.42h-18.18c-0.26,0-0.49,0.17-0.58,0.42l-1.35,4.22h-2.34c-0.33,0-0.6,0.27-0.6,0.6v4.64
	c0,0.33,0.27,0.6,0.6,0.6h1.88l0.63,5.15h-0.26c-0.17,0-0.34,0.07-0.45,0.2c-0.11,0.13-0.17,0.3-0.15,0.47l1.42,11.6
	c0.04,0.3,0.29,0.53,0.6,0.53h0.41l0.71,5.82c0.04,0.3,0.29,0.53,0.6,0.53h15.95c0.31,0,0.56-0.23,0.6-0.53l0.71-5.82h0.41
	c0.31,0,0.56-0.23,0.6-0.53l1.42-11.6c0.02-0.17-0.03-0.34-0.15-0.47C258.12,43.09,257.95,43.02,257.78,43.02z M238.02,28.59h17.3
	l1.1,3.43h-19.5L238.02,28.59z M233.91,33.23h2.18h21.15h0.01h2.17v3.43h-25.51V33.23z M236.4,37.87h20.53l-0.63,5.15h-19.27
	L236.4,37.87z M254.11,60.96h-14.89l-0.63-5.15h16.14L254.11,60.96z M255.83,54.61H237.5l-1.27-10.39h20.87L255.83,54.61z"/>
<path class="st15" d="M246.66,46.22c-1.77,0-3.2,1.44-3.2,3.2c0,1.77,1.44,3.2,3.2,3.2c1.76,0,3.2-1.44,3.2-3.2
	C249.86,47.65,248.43,46.22,246.66,46.22z M246.66,51.41c-1.1,0-1.99-0.89-1.99-1.99c0-1.1,0.89-1.99,1.99-1.99
	c1.1,0,1.99,0.89,1.99,1.99C248.66,50.52,247.76,51.41,246.66,51.41z"/>
<g>
	<path class="st15" d="M243.78,19.97c-1.38,0-2.51,1.12-2.51,2.5c0,1.38,1.12,2.5,2.51,2.5c0.33,0,0.6-0.27,0.6-0.6
		s-0.27-0.6-0.6-0.6c-0.72,0-1.3-0.58-1.3-1.3s0.58-1.3,1.3-1.3c1.38,0,2.51-1.12,2.51-2.5s-1.12-2.5-2.51-2.5
		c-0.33,0-0.6,0.27-0.6,0.6s0.27,0.6,0.6,0.6c0.72,0,1.3,0.58,1.3,1.3S244.5,19.97,243.78,19.97z"/>
	<path class="st15" d="M249.55,19.97c-1.38,0-2.51,1.12-2.51,2.5c0,1.38,1.12,2.5,2.51,2.5c0.33,0,0.6-0.27,0.6-0.6
		s-0.27-0.6-0.6-0.6c-0.72,0-1.3-0.58-1.3-1.3s0.58-1.3,1.3-1.3c1.38,0,2.51-1.12,2.51-2.5s-1.12-2.5-2.51-2.5
		c-0.33,0-0.6,0.27-0.6,0.6s0.27,0.6,0.6,0.6c0.72,0,1.3,0.58,1.3,1.3S250.26,19.97,249.55,19.97z"/>
</g>
<g>
	<circle class="st0" cx="483.98" cy="40.19" r="40.19"/>
	<g>
		<path class="st1" d="M511.94,33.79c-0.32-0.28-0.73-0.42-1.15-0.39c-0.45,0.03-0.88,0.25-1.18,0.6l-1.48,1.71
			c-0.22-0.1-0.47-0.16-0.73-0.14c-0.42,0.03-0.82,0.24-1.09,0.58l-6.92,8.42V17.82h-33.12v43.23h19.58l-0.78,0.94l-1.22,4.53
			l4.26-1.84l3.3-3.64h7.99v-8.83l9.06-10.01l0.19,0.17c0.3,0.27,0.31,0.77,0.01,1.11l-5.58,6.47l0.85,0.73l5.58-6.47
			c0.69-0.81,0.64-2.01-0.12-2.68l-0.19-0.17l1.34-1.48l0,0c0.29-0.32,0.44-0.74,0.41-1.16c-0.02-0.34-0.15-0.65-0.37-0.9l1.46-1.69
			C512.65,35.43,512.6,34.38,511.94,33.79z M467.39,59.93V18.95h30.88v26.95h0.04l-11.53,14.04H467.39z M485.54,64.57l0.47-1.74
			l1.16,1.03L485.54,64.57z M498.27,59.93h-5.85l5.85-6.47L498.27,59.93L498.27,59.93z M488.02,63.11l-1.39-1.24l18.55-22.58
			l2.43,2.17L488.02,63.11z M509.71,39.14l-1.35,1.49l-2.47-2.2l1.29-1.57c0.08-0.1,0.2-0.16,0.31-0.17c0.07,0,0.16,0.01,0.25,0.08
			l1.98,1.77c0.09,0.08,0.11,0.19,0.12,0.25C509.84,38.91,509.8,39.04,509.71,39.14z M511.2,35.41l-1.43,1.66l-0.74-0.66l1.45-1.68
			c0.11-0.12,0.25-0.2,0.4-0.21c0.09-0.01,0.22,0.01,0.33,0.11C511.4,34.82,511.4,35.16,511.2,35.41z"/>
	</g>
	<g>
		<rect x="473" y="25.68" class="st5" width="19.65" height="1.12"/>
		<rect x="473" y="30.73" class="st5" width="19.65" height="1.12"/>
		<rect x="473" y="35.79" class="st5" width="19.65" height="1.12"/>
		<rect x="473" y="40.84" class="st5" width="19.65" height="1.12"/>
	</g>
	<g>
		<path class="st1" d="M485.49,51.43l-0.11-0.39l-0.62,0.35c-0.57,0.32-1.09,0.89-1.59,1.44c-0.63,0.68-1.28,1.39-1.89,1.48
			c-0.14,0.02-0.23,0.03-0.3,0.02c0.09-0.3,0.44-0.84,0.61-1.09c0.3-0.46,0.46-0.72,0.45-1l-0.04-0.88l-0.78,0.41
			c-0.27,0.14-0.57,0.31-0.91,0.5c-1.25,0.7-3.06,1.71-4.32,1.72c0.14-0.51,0.28-0.97,0.44-1.39l0.16,0.59
			c1.74-0.47,5.65-2.21,5.95-4.34c0.09-0.67-0.25-0.98-0.46-1.11c-1.19-0.74-4.04,1.05-4.06,1.07c-2.15,1.48-2.78,3.45-3.28,5.51
			l-0.12,0.51l0.5,0.16c1.42,0.44,3.31-0.42,4.89-1.28c-0.2,0.46-0.28,0.91-0.04,1.29c0.24,0.38,0.67,0.46,1.02,0.46
			c0.19,0,0.35-0.02,0.45-0.04c1-0.15,1.79-1.01,2.55-1.83c0.39-0.42,0.76-0.83,1.11-1.08c1.02,0.19,4.77,0.11,5.94-0.99l-0.77-0.82
			C489.54,51.38,486.45,51.54,485.49,51.43z M478.65,49.75c0.7-0.48,2.13-1.07,2.69-1.07c0.03,0,0.06,0,0.09,0.01
			c0,0.01,0,0.01,0,0.02c-0.17,1.19-2.82,2.68-4.74,3.3C477.12,51.09,477.72,50.38,478.65,49.75z"/>
	</g>
</g>
<circle class="st0" cx="40.19" cy="164.28" r="40.19"/>
<g>
	<path class="st16" d="M34.07,165.07c0.19,0.28,0.5,0.46,0.84,0.48c0.02,0,0.04,0,0.07,0c0.32,0,0.62-0.14,0.83-0.38l8.2-9.37
		c0.4-0.46,0.35-1.15-0.1-1.55c-0.46-0.4-1.15-0.35-1.55,0.1l-7.26,8.3l-2.13-3.12c-0.34-0.5-1.03-0.63-1.53-0.29
		c-0.5,0.34-0.63,1.03-0.29,1.53L34.07,165.07z"/>
	<path class="st17" d="M18.46,159.69v3.79v2.2v9.38c0,0.61,0.49,1.1,1.1,1.1h5.84c0.28,2.35,2.28,4.19,4.71,4.19
		c2.43,0,4.43-1.83,4.7-4.19h14.74h3.71c0.5,2.08,2.37,3.64,4.61,3.64c2.23,0,4.11-1.55,4.6-3.64h3.71c0.61,0,1.1-0.49,1.1-1.1
		v-10.84c0-0.01,0-0.03,0-0.04c0-0.01,0-0.02,0-0.04v-0.28c0-0.14-0.03-0.28-0.08-0.41l-2.68-6.73c-0.17-0.42-0.57-0.69-1.02-0.69
		h-0.3h-1.24v-3.14c0-0.53-0.38-0.99-0.91-1.08l-10.4-1.85v-1.18c0-0.61-0.49-1.1-1.1-1.1H19.56c-0.61,0-1.1,0.49-1.1,1.1v8.7
		L18.46,159.69z M30.11,178.14c-1.4,0-2.54-1.14-2.54-2.54c0-0.13,0.01-0.27,0.03-0.39c0.01-0.06,0.02-0.13,0.04-0.19
		c0-0.01,0.01-0.02,0.01-0.04c0.02-0.07,0.04-0.13,0.06-0.19c0-0.01,0.01-0.02,0.01-0.03c0.02-0.07,0.05-0.13,0.08-0.2c0,0,0,0,0,0
		c0.37-0.82,1.17-1.4,2.08-1.49c0,0,0.01,0,0.01,0c0.07-0.01,0.15-0.01,0.22-0.01c0.07,0,0.15,0,0.22,0.01c0,0,0.01,0,0.01,0
		c0.91,0.09,1.71,0.67,2.08,1.49c0,0,0,0,0,0c0.03,0.06,0.05,0.13,0.08,0.2c0,0.01,0.01,0.02,0.01,0.03
		c0.02,0.06,0.04,0.13,0.06,0.19c0,0.01,0.01,0.02,0.01,0.04c0.01,0.06,0.03,0.13,0.04,0.19c0.02,0.13,0.03,0.26,0.03,0.39
		C32.65,177,31.51,178.14,30.11,178.14z M57.87,177.59c-1.4,0-2.54-1.14-2.54-2.54c0-1.4,1.14-2.54,2.54-2.54
		c1.4,0,2.54,1.14,2.54,2.54C60.41,176.46,59.27,177.59,57.87,177.59z M62.48,173.96c0-0.02-0.01-0.03-0.01-0.05
		c-0.01-0.03-0.01-0.05-0.02-0.08c-0.01-0.04-0.03-0.09-0.04-0.13c-0.01-0.03-0.02-0.05-0.02-0.08c-0.01-0.05-0.03-0.09-0.05-0.14
		c-0.01-0.02-0.02-0.05-0.02-0.07c-0.02-0.06-0.04-0.11-0.07-0.17c0-0.01-0.01-0.02-0.01-0.04c-0.03-0.07-0.06-0.13-0.09-0.2
		c-0.01-0.02-0.02-0.03-0.02-0.05c-0.02-0.05-0.05-0.1-0.07-0.14c-0.01-0.02-0.02-0.04-0.04-0.07c-0.02-0.04-0.05-0.08-0.07-0.12
		c-0.01-0.02-0.03-0.05-0.04-0.07c-0.02-0.04-0.05-0.08-0.07-0.12c-0.01-0.02-0.03-0.04-0.04-0.07c-0.03-0.04-0.05-0.08-0.08-0.12
		c-0.01-0.02-0.03-0.04-0.04-0.06c-0.04-0.05-0.07-0.1-0.11-0.14c-0.01-0.01-0.01-0.02-0.02-0.03c-0.05-0.05-0.09-0.11-0.14-0.16
		c-0.01-0.01-0.03-0.03-0.04-0.04c-0.04-0.04-0.07-0.08-0.11-0.11c-0.02-0.02-0.04-0.04-0.05-0.05c-0.03-0.03-0.07-0.06-0.1-0.09
		c-0.02-0.02-0.04-0.04-0.06-0.05c-0.03-0.03-0.07-0.06-0.1-0.09c-0.02-0.02-0.04-0.03-0.06-0.05c-0.04-0.03-0.07-0.06-0.11-0.09
		c-0.02-0.01-0.04-0.03-0.06-0.04c-0.05-0.04-0.1-0.07-0.15-0.11c-0.01,0-0.01-0.01-0.02-0.01c-0.06-0.04-0.12-0.08-0.18-0.12
		c-0.02-0.01-0.04-0.02-0.05-0.03c-0.04-0.03-0.09-0.05-0.13-0.08c-0.02-0.01-0.05-0.03-0.07-0.04c-0.04-0.02-0.08-0.04-0.12-0.06
		c-0.03-0.01-0.05-0.02-0.08-0.04c-0.04-0.02-0.08-0.04-0.12-0.06c-0.03-0.01-0.05-0.02-0.08-0.03c-0.04-0.02-0.09-0.04-0.14-0.05
		c-0.02-0.01-0.04-0.02-0.07-0.03c-0.06-0.02-0.13-0.04-0.19-0.06c0,0-0.01,0-0.02,0c-0.07-0.02-0.14-0.04-0.21-0.06
		c-0.02-0.01-0.04-0.01-0.07-0.02c-0.05-0.01-0.1-0.02-0.15-0.03c-0.03-0.01-0.05-0.01-0.08-0.02c-0.05-0.01-0.09-0.02-0.14-0.02
		c-0.03,0-0.06-0.01-0.09-0.01c-0.05-0.01-0.09-0.01-0.14-0.02c-0.03,0-0.06-0.01-0.08-0.01c-0.05,0-0.1-0.01-0.15-0.01
		c-0.02,0-0.05,0-0.07,0c-0.08,0-0.15-0.01-0.23-0.01s-0.15,0-0.23,0.01c-0.02,0-0.05,0-0.07,0c-0.05,0-0.1,0.01-0.15,0.01
		c-0.03,0-0.06,0.01-0.08,0.01c-0.05,0-0.09,0.01-0.14,0.02c-0.03,0-0.06,0.01-0.09,0.01c-0.05,0.01-0.09,0.02-0.14,0.03
		c-0.03,0-0.05,0.01-0.08,0.02c-0.05,0.01-0.1,0.02-0.15,0.03c-0.02,0-0.04,0.01-0.07,0.02c-0.07,0.02-0.14,0.04-0.21,0.06
		c0,0-0.01,0-0.01,0c-0.06,0.02-0.13,0.04-0.19,0.07c-0.02,0.01-0.04,0.02-0.07,0.03c-0.05,0.02-0.09,0.04-0.14,0.05
		c-0.03,0.01-0.05,0.02-0.07,0.03c-0.04,0.02-0.08,0.04-0.12,0.06c-0.03,0.01-0.05,0.02-0.08,0.04c-0.04,0.02-0.08,0.04-0.12,0.06
		c-0.02,0.01-0.05,0.02-0.07,0.04c-0.04,0.02-0.09,0.05-0.13,0.08c-0.02,0.01-0.04,0.02-0.05,0.03c-0.06,0.04-0.12,0.08-0.18,0.12
		c-0.01,0-0.01,0.01-0.02,0.01c-0.05,0.04-0.1,0.07-0.15,0.11c-0.02,0.01-0.04,0.03-0.06,0.04c-0.04,0.03-0.08,0.06-0.11,0.09
		c-0.02,0.02-0.04,0.03-0.06,0.05c-0.03,0.03-0.07,0.06-0.1,0.09c-0.02,0.02-0.04,0.04-0.06,0.05c-0.03,0.03-0.07,0.06-0.1,0.1
		c-0.02,0.02-0.04,0.04-0.05,0.05c-0.04,0.04-0.07,0.07-0.11,0.11c-0.01,0.01-0.03,0.03-0.04,0.04c-0.05,0.05-0.09,0.11-0.14,0.16
		c-0.01,0.01-0.01,0.02-0.02,0.03c-0.04,0.05-0.08,0.09-0.11,0.14c-0.01,0.02-0.03,0.04-0.04,0.06c-0.03,0.04-0.06,0.08-0.08,0.12
		c-0.01,0.02-0.03,0.04-0.04,0.07c-0.03,0.04-0.05,0.08-0.07,0.11c-0.01,0.02-0.03,0.05-0.04,0.07c-0.02,0.04-0.05,0.08-0.07,0.12
		c-0.01,0.02-0.03,0.04-0.04,0.07c-0.03,0.05-0.05,0.09-0.07,0.14c-0.01,0.02-0.02,0.03-0.02,0.05c-0.03,0.06-0.06,0.13-0.09,0.2
		c-0.01,0.01-0.01,0.03-0.02,0.04c-0.02,0.05-0.04,0.11-0.06,0.16c-0.01,0.02-0.02,0.05-0.03,0.07c-0.02,0.04-0.03,0.09-0.05,0.14
		c-0.01,0.03-0.02,0.05-0.02,0.08c-0.01,0.04-0.03,0.09-0.04,0.13c-0.01,0.03-0.01,0.05-0.02,0.08c0,0.02-0.01,0.03-0.01,0.05h-2.61
		v-15.72h4.65v5.94c0,0.61,0.49,1.1,1.1,1.1h8.68v8.68H62.48z M64.53,163.08H57.5v-4.84h3.36h1.61L64.53,163.08z M59.77,153.82v2.22
		H56.4h-5.75v-3.84L59.77,153.82z M48.46,149.89v1v6.25v16.82H34.55c-0.6-1.63-2.08-2.83-3.85-3.06c-0.02,0-0.04,0-0.05-0.01
		c-0.04,0-0.08-0.01-0.12-0.01c-0.04,0-0.08-0.01-0.12-0.01c-0.03,0-0.06,0-0.09,0c-0.07,0-0.14-0.01-0.22-0.01
		c-0.07,0-0.14,0-0.22,0.01c-0.03,0-0.06,0-0.09,0c-0.04,0-0.08,0.01-0.12,0.01c-0.04,0-0.08,0.01-0.12,0.01
		c-0.02,0-0.04,0-0.05,0.01c-1.77,0.22-3.25,1.43-3.85,3.06h-5v-8.29v-2.2v-3.77v-2.2v-7.61H48.46z"/>
</g>
<line class="st18" x1="13.06" y1="158.58" x2="23.95" y2="158.58"/>
<line class="st18" x1="15.15" y1="164.55" x2="27.23" y2="164.55"/>
<rect x="328.05" y="161.12" class="st19" width="7.12" height="1.65"/>
<g>
	<circle class="st0" cx="360.55" cy="164.28" r="40.19"/>
	<path class="st20" d="M365.83,155.94c-4.61,0-8.35,3.74-8.35,8.35s3.74,8.35,8.35,8.35c4.61,0,8.35-3.74,8.35-8.35
		S370.43,155.94,365.83,155.94z M365.83,156.77c4.15,0,7.51,3.36,7.51,7.51s-3.36,7.51-7.51,7.51c-4.15,0-7.51-3.36-7.51-7.51
		S361.67,156.77,365.83,156.77z"/>
	<g>
		<path class="st1" d="M365.15,166.89h3.18v1.05h-5.29v-1.05h0.83v-2.12h-0.83v-0.81h0.83v-1.26c0-0.4,0.09-0.75,0.27-1.05
			c0.18-0.3,0.44-0.53,0.77-0.7c0.33-0.17,0.72-0.25,1.16-0.25c0.44,0,0.86,0.07,1.27,0.22c0.41,0.15,0.76,0.35,1.08,0.62
			l-0.44,0.94c-0.64-0.49-1.25-0.74-1.82-0.74c-0.32,0-0.57,0.09-0.75,0.27c-0.17,0.18-0.26,0.44-0.26,0.78v1.17h1.71v0.81h-1.71
			V166.89z"/>
	</g>
	<path class="st21" d="M385.96,151.29h-39.91c-0.46,0-0.86,0.4-0.86,0.86v24.27c0,0.46,0.4,0.86,0.86,0.86h39.91
		c0.46,0,0.86-0.4,0.86-0.86v-24.34C386.76,151.62,386.43,151.29,385.96,151.29z M385.11,175.5h-38.26v-22.56h38.26V175.5z"/>
	<rect x="334.05" y="156.7" class="st19" width="8.38" height="1.65"/>
	<rect x="338.21" y="161.38" class="st19" width="4.22" height="1.65"/>
	<rect x="331.61" y="166" class="st19" width="10.82" height="1.65"/>
	<rect x="337.02" y="170.35" class="st19" width="5.41" height="1.65"/>
</g>
<circle class="st0" cx="483.98" cy="164.28" r="40.19"/>
<path class="st18" d="M499.96,147.65c-10.87,10.87-21.73,21.73-32.6,32.6"/>
<circle class="st22" cx="474.56" cy="154.85" r="7.19"/>
<circle class="st22" cx="492.77" cy="173.06" r="7.19"/>
<g>
	<g>
		<path class="st23" d="M489.65,169.94c2.08,2.08,4.15,4.15,6.23,6.23"/>
	</g>
	<path class="st23" d="M489.65,176.17c2.08-2.08,4.15-4.15,6.23-6.23"/>
</g>
<g>
	<circle class="st0" cx="40.19" cy="280.41" r="40.19"/>
	<g>
		<path class="st24" d="M32.13,290.8l2.46-3.1c1.14-1.48-1.2-3.17-2.33-1.75c-0.83,1.04-1.65,2.09-2.48,3.12
			C28.68,290.56,31.01,292.2,32.13,290.8z M39.12,274.01c-1.47-1.2-3.77-0.97-6.34-0.72c-2.78,0.27-5.87,0.57-8.74-0.78l-1.07,11.1
			c1.63,0.26,2.96,1.21,4.36,2.03l1.65-2.08c1.22-1.54,3.73-0.46,3.54,1.42c1.53-0.71,3.31,0.65,2.95,2.31
			c1.68-0.6,3.41,1.33,2.3,2.91c1.67-0.46,3.05,1.53,1.98,2.93l-0.78,1.03l1.35,1.34c1.5,1.49,3.76-0.77,2.28-2.26l-1.59-1.58
			c-0.29-0.29,0.15-0.74,0.45-0.45l1.57,1.56l0.87,0.87c1.5,1.49,3.74-0.76,2.29-2.25l-1.68-1.67c-0.29-0.29,0.15-0.74,0.45-0.45
			l1.85,1.84l0.84,0.84c1.51,1.5,3.77-0.78,2.26-2.28l-1.76-1.75c-0.29-0.29,0.15-0.74,0.44-0.45l1.76,1.75l0.82,0.81
			c1.42,1.41,3.51-0.54,2.49-2.01c-0.07-0.06-0.14-0.18-0.22-0.27c-2.72-2.76-6.04-6.36-9.03-8.49c-1.37-0.98-2.23-1.29-2.56-0.93
			c-1.35,1.25-3.17,2.58-5.13,2.28c-1.34-0.21-2.29-1.14-2.91-2.01c-0.1-0.13-0.07-0.33,0.06-0.43L39.12,274.01z M24.1,271.84
			c2.77,1.39,5.86,1.09,8.62,0.82c2.77-0.27,5.24-0.51,6.91,0.95l0.56-0.45c1.82-1.44,4.25-1.17,6.33-0.61
			c1.65,0.44,3.51,0.94,7.04,0.02l-0.56-1.24c-0.23-0.52,0-1.13,0.51-1.36l5-2.26c0.52-0.23,1.13,0,1.36,0.51l6.33,13.97
			c0.22,0.52-0.01,1.12-0.52,1.35l-5.01,2.27c-0.51,0.22-1.12-0.01-1.35-0.52l-0.71-1.57c-0.27,0.05-0.46,0.1-0.61,0.19
			c-0.18,0.11-0.34,0.29-0.55,0.61c-0.42,0.77-0.91,1.46-1.48,2.05c-0.49,0.51-1.04,0.96-1.64,1.33c1.04,1.94-1.41,4.21-3.28,2.85
			c0.02,1.83-2.23,3.1-3.74,1.74c-0.02,1.74-2.09,2.98-3.58,1.83c0.01,1.88-2.33,3.13-3.84,1.63l-1.29-1.29l-0.41,0.53
			c-1.22,1.53-3.63,0.24-3.22-1.6c-1.35,0.85-3.18-0.24-3.02-1.83c-1.52,0.74-3.32-0.59-3-2.25c-1.8,0.63-3.47-1.48-2.28-3.02
			l0.28-0.35c-1.28-0.74-2.55-1.65-4.02-1.89l-0.15,1.53c-0.05,0.56-0.56,0.98-1.12,0.93l-5.46-0.53c-0.56-0.05-0.98-0.56-0.93-1.12
			l1.47-15.25c0.05-0.56,0.56-0.98,1.12-0.93l5.46,0.53c0.56,0.05,0.98,0.56,0.93,1.12L24.1,271.84z M37.7,294.77l1.55-2.02
			c0.94-1.22-0.93-2.75-1.89-1.55c-0.51,0.69-1.05,1.37-1.58,2.06C34.84,294.47,36.71,296.04,37.7,294.77z M35.09,288.3l-2.29,2.88
			c-1.02,1.33,1.07,2.91,2.13,1.59l2.29-2.88C38.23,288.56,36.13,286.99,35.09,288.3z M27.14,286.87c-1.04,1.37,1.12,2.94,2.17,1.61
			c0.74-0.93,1.65-1.97,2.32-2.92c1.02-1.34-1.09-2.97-2.17-1.62C28.68,284.93,27.91,285.9,27.14,286.87z M23.6,270.46
			c0.02-0.22-0.14-0.42-0.36-0.44l-5.46-0.53c-0.22-0.02-0.42,0.14-0.44,0.36l-1.47,15.25c-0.02,0.22,0.14,0.42,0.36,0.44l5.46,0.53
			c0.22,0.02,0.42-0.14,0.44-0.36C22.62,280.63,23.11,275.54,23.6,270.46z M58.34,283.13l-4.52-9.97c-3.76,1.01-5.73,0.48-7.47,0.01
			c-1.87-0.5-4.14-0.81-5.78,0.49c-2.03,1.6-4.05,3.21-6.08,4.81c0.54,0.69,1.3,1.36,2.32,1.52c1.15,0.18,2.65-0.29,4.57-2.08
			c0.59-0.63,1.72-0.35,3.39,0.85c3.14,2.25,6.46,5.82,9.17,8.63c0.57-0.35,1.09-0.77,1.56-1.26c0.52-0.55,0.98-1.18,1.37-1.9
			l0-0.01l0-0.01l0-0.01l0,0l0,0l0.01-0.02c0.27-0.42,0.49-0.66,0.77-0.83C57.87,283.25,58.07,283.18,58.34,283.13z M65.61,282.44
			l-6.32-13.96c-0.09-0.2-0.33-0.29-0.53-0.2l-5,2.26c-0.2,0.09-0.29,0.33-0.2,0.53l0.71,1.57l0,0.01l0,0.01l0,0.01l0,0.01h0l0,0.01
			c1.86,4.12,3.73,8.24,5.6,12.36c0.09,0.19,0.32,0.29,0.51,0.21l5.01-2.27C65.61,282.87,65.71,282.63,65.61,282.44z"/>
	</g>
	<g>
		<path class="st25" d="M22.9,284.24l-0.15,1.53c-0.05,0.56-0.56,0.98-1.12,0.93l-5.46-0.53c-0.56-0.05-0.98-0.56-0.93-1.12
			l1.47-15.25c0.05-0.56,0.56-0.98,1.12-0.93l5.46,0.53c0.56,0.05,0.98,0.56,0.93,1.12l-0.13,1.32l-0.06,0.67l-1.07,11.1
			L22.9,284.24z M58.34,283.13l-4.52-9.97l-0.26-0.58l-0.56-1.24c-0.23-0.52,0-1.13,0.51-1.36l5-2.26c0.52-0.23,1.13,0,1.36,0.51
			l6.33,13.97c0.22,0.52-0.01,1.12-0.52,1.35l-5.01,2.27c-0.51,0.22-1.12-0.01-1.35-0.52l-0.71-1.57L58.34,283.13z M23.6,270.46
			c0.02-0.22-0.14-0.42-0.36-0.44l-5.46-0.53c-0.22-0.02-0.42,0.14-0.44,0.36l-1.47,15.25c-0.02,0.22,0.14,0.42,0.36,0.44l5.46,0.53
			c0.22,0.02,0.42-0.14,0.44-0.36C22.62,280.63,23.11,275.54,23.6,270.46z M65.61,282.44l-6.32-13.96c-0.09-0.2-0.33-0.29-0.53-0.2
			l-5,2.26c-0.2,0.09-0.29,0.33-0.2,0.53l0.71,1.57l0,0.01l0,0.01l0,0.01l0,0.01h0l0,0.01c1.86,4.12,3.73,8.24,5.6,12.36
			c0.09,0.19,0.32,0.29,0.51,0.21l5.01-2.27C65.61,282.87,65.71,282.63,65.61,282.44z"/>
	</g>
</g>
<g>
	<circle class="st0" cx="246.66" cy="280.41" r="40.19"/>
	<path class="st1" d="M257.99,284.54v11.36h-28.83v-37.38h28.83v18.69l1.13-1.47v-10.8h4.22v6.76l1.13-1.05v-6.27
		c0-0.31-0.25-0.56-0.56-0.56h-4.79v-5.86c0-0.31-0.25-0.56-0.56-0.56H228.6c-0.04,0-0.07,0-0.11,0h0
		c-0.27,0.05-0.46,0.29-0.46,0.56v38.51c0,0.31,0.25,0.56,0.56,0.56h4.79v5.86c0,0.31,0.25,0.56,0.56,0.56h29.95
		c0.31,0,0.56-0.25,0.56-0.56v-24.83l-1.13,1.27v22.99h-28.83v-5.29h24.04c0.31,0,0.56-0.25,0.56-0.56v-12.84L257.99,284.54z"/>
	<g>
		<path class="st26" d="M235.7,275.73h7.43c0.41,0,0.74-0.33,0.74-0.74v-4.89l3.5-3.5l-1.05-1.05l-2.45,2.45v-0.43
			c0-0.41-0.33-0.74-0.74-0.74h-7.43c-0.41,0-0.74,0.33-0.74,0.74v7.43C234.96,275.4,235.29,275.73,235.7,275.73z M236.44,268.3
			h5.94v1.18l-2.23,2.23l-1.7-1.7l-1.05,1.05l2.23,2.23c0.29,0.29,0.76,0.29,1.05,0l1.7-1.7v2.66h-5.94V268.3z"/>
		<path class="st26" d="M247.37,278.48l-1.05-1.05l-2.45,2.45v-0.43c0-0.41-0.33-0.74-0.74-0.74h-7.43c-0.41,0-0.74,0.33-0.74,0.74
			v7.43c0,0.41,0.33,0.74,0.74,0.74h7.43c0.41,0,0.74-0.33,0.74-0.74v-4.89L247.37,278.48z M242.39,286.13h-5.94v-5.94h5.94v1.18
			l-2.23,2.23l-1.7-1.7l-1.05,1.05l2.23,2.23c0.29,0.29,0.76,0.29,1.05,0l1.7-1.7V286.13z"/>
	</g>
	<path class="st5" d="M271.98,266.82c-0.6-0.6-1.41-0.94-2.26-0.94s-1.66,0.33-2.26,0.94l-16.32,16.32
		c-0.05,0.05-0.09,0.11-0.12,0.17l-2.97,6.69c-0.06,0.14-0.07,0.3-0.01,0.44c0.05,0.14,0.16,0.25,0.3,0.32
		c0.15,0.07,0.32,0.07,0.46,0l6.69-2.97c0.06-0.03,0.12-0.07,0.17-0.12l16.32-16.32C273.22,270.1,273.22,268.07,271.98,266.82z
		 M249.7,289.1l0.89-1.99l1.1,1.1L249.7,289.1z M252.81,287.72l-1.73-1.73l0.65-1.45l2.54,2.53L252.81,287.72z M255.26,286.45
		l-2.9-2.9l12.56-12.56l2.9,2.9L255.26,286.45z M268.63,273.07l-2.9-2.9l1.42-1.42l2.9,2.9L268.63,273.07z M271.17,270.53
		l-0.31,0.31l-2.9-2.9l0.31-0.31c0.38-0.38,0.91-0.6,1.45-0.6c0,0,0,0,0.01,0c1.13,0,2.05,0.92,2.05,2.05
		C271.77,269.62,271.55,270.15,271.17,270.53z"/>
</g>
<g>
	<circle class="st0" cx="360.55" cy="389.24" r="40.19"/>
	<g>
		<path class="st27" d="M347.39,388.74c-2.35,0-4.71,0-7.05,0c-0.34,0-0.67,0-1.01,0c-0.54,0-1.01,0.46-1.01,1.01
			c0,1.82,0,3.64,0,5.46c0,2.9,0,5.81,0,8.71c0,0.67,0,1.34,0,2.01c0,0.54,0.46,1.01,1.01,1.01c2.35,0,4.71,0,7.05,0
			c0.34,0,0.67,0,1.01,0c0.53,0,1.03-0.46,1.01-1.01c0-1.82,0-3.64,0-5.46c0-2.9,0-5.81,0-8.71c0-0.67,0-1.34,0-2.01
			C348.4,389.21,347.94,388.74,347.39,388.74z M346.39,395.21c0,2.9,0,5.81,0,8.71c0,0.33,0,0.67,0,1c-2.02,0-4.03,0-6.05,0
			c0-1.48,0-2.97,0-4.45c0-2.9,0-5.81,0-8.71c0-0.33,0-0.67,0-1c2.02,0,4.03,0,6.05,0C346.39,392.24,346.39,393.73,346.39,395.21z"
			/>
		<path class="st27" d="M363.52,384.21c0-0.54-0.46-1.01-1.01-1.01c-2.35,0-4.71,0-7.05,0c-0.34,0-0.67,0-1.01,0
			c-0.54,0-1.01,0.46-1.01,1.01c0,0.72,0,1.45,0,2.17c0,1.72,0,3.45,0,5.17c0,2.1,0,4.19,0,6.29c0,1.8,0,3.61,0,5.41
			c0,0.88-0.03,1.76,0,2.65c0,0.01,0,0.03,0,0.04c0,0.54,0.46,1.01,1.01,1.01c2.35,0,4.71,0,7.05,0c0.34,0,0.67,0,1.01,0
			c0.53,0,1.03-0.46,1.01-1.01c0-0.72,0-1.45,0-2.17c0-1.72,0-3.45,0-5.17c0-2.1,0-4.19,0-6.29c0-1.8,0-3.61,0-5.41
			c0-0.88,0.03-1.76,0-2.65C363.52,384.23,363.52,384.22,363.52,384.21z M361.5,386.37c0,1.72,0,3.45,0,5.17c0,2.1,0,4.19,0,6.29
			c0,1.8,0,3.61,0,5.41c0,0.56-0.01,1.12-0.01,1.67c-2.01,0-4.03,0-6.04,0c0-0.39,0-0.77,0-1.16c0-1.72,0-3.45,0-5.17
			c0-2.1,0-4.19,0-6.29c0-1.8,0-3.61,0-5.41c0-0.55,0.01-1.11,0.01-1.67c2.01,0,4.03,0,6.03,0
			C361.5,385.6,361.5,385.99,361.5,386.37z"/>
		<path class="st28" d="M382.61,376.88c-0.04-0.07-0.07-0.14-0.12-0.2c-0.93-1.14-1.85-2.27-2.78-3.41
			c-1.46-1.8-2.93-3.59-4.39-5.39c-0.34-0.42-0.68-0.83-1.02-1.25c-0.32-0.39-1.11-0.39-1.43,0c-0.93,1.14-1.85,2.27-2.78,3.41
			c-1.46,1.8-2.93,3.59-4.39,5.39c-0.34,0.42-0.68,0.83-1.02,1.25c-0.26,0.32-0.38,0.7-0.21,1.1c0.16,0.37,0.52,0.62,0.92,0.62
			c1.05,0,2.11,0,3.16,0c0,0.61,0,1.22,0,1.84c0,2.28,0,4.55,0,6.83c0,2.74,0,5.47,0,8.2c0,2.38,0,4.76,0,7.13
			c0,1.15-0.03,2.31,0,3.46c0,0.02,0,0.03,0,0.05c0,0.54,0.46,1.01,1.01,1.01c2.35,0,4.71,0,7.05,0c0.34,0,0.67,0,1.01,0
			c0.54,0,1.01-0.46,1.01-1.01c0-0.95,0-1.89,0-2.85c0-2.28,0-4.55,0-6.83c0-2.74,0-5.47,0-8.2c0-2.38,0-4.76,0-7.13
			c0-0.83,0.01-1.66,0.01-2.5c1.04,0,2.07,0,3.11,0c0.27,0,0.55-0.1,0.72-0.29c0.04-0.04,0.06-0.09,0.09-0.14
			c0.13-0.17,0.22-0.36,0.21-0.58C382.77,377.2,382.7,377.03,382.61,376.88z M377.64,376.38c-0.54,0-1.01,0.46-1.01,1.01
			c0,0.95,0,1.89,0,2.85c0,2.28,0,4.55,0,6.83c0,2.74,0,5.47,0,8.2c0,2.38,0,4.76,0,7.13c0,0.83-0.01,1.66-0.01,2.5
			c-2.01,0-4.03,0-6.04,0c0-0.61,0-1.22,0-1.84c0-2.28,0-4.55,0-6.83c0-2.74,0-5.47,0-8.2c0-2.38,0-4.76,0-7.13
			c0-1.15,0.03-2.31,0-3.46c0-0.02,0-0.03,0-0.05c0-0.54-0.46-1.01-1.01-1.01c-0.69,0-1.37,0-2.06,0c0.46-0.56,0.92-1.13,1.38-1.69
			c1.46-1.8,2.93-3.59,4.39-5.39c0.1-0.12,0.2-0.25,0.3-0.37c0.69,0.84,1.37,1.69,2.06,2.54c1.33,1.64,2.67,3.28,4.01,4.92
			C378.99,376.38,378.32,376.38,377.64,376.38z"/>
	</g>
</g>
<g>
	<circle class="st0" cx="141.44" cy="500.06" r="40.19"/>
	<g>
		<path class="st26" d="M158.09,479.87l-12.76-1.4c-0.24-0.03-0.47,0.06-0.64,0.23l-27.45,27.45c-0.31,0.31-0.31,0.81,0,1.11
			l14.17,14.17c0.15,0.15,0.35,0.23,0.56,0.23s0.41-0.08,0.56-0.23l27.45-27.45c0.17-0.17,0.25-0.41,0.23-0.64l-1.4-12.76
			C158.75,480.2,158.46,479.91,158.09,479.87z M131.96,519.76l-13.05-13.05l26.63-26.63l11.76,1.29l1.29,11.76L131.96,519.76z"/>
		<path class="st26" d="M152.1,483.34c-0.86,0-1.67,0.34-2.28,0.95c-0.61,0.61-0.95,1.42-0.95,2.28c0,0.86,0.34,1.67,0.95,2.28
			c0.61,0.61,1.42,0.95,2.28,0.95s1.67-0.34,2.28-0.95s0.95-1.42,0.95-2.28c0-0.86-0.34-1.67-0.95-2.28S152.96,483.34,152.1,483.34z
			 M153.27,487.74c-0.62,0.62-1.72,0.63-2.34,0c-0.31-0.31-0.49-0.73-0.49-1.17c0-0.44,0.17-0.86,0.49-1.17
			c0.31-0.31,0.73-0.49,1.17-0.49s0.86,0.17,1.17,0.49c0.31,0.31,0.48,0.73,0.48,1.17C153.75,487.01,153.58,487.42,153.27,487.74z"
			/>
		<path class="st29" d="M138.84,504.47l-10.22-0.35c-0.41-0.03-0.8,0.32-0.81,0.76c-0.02,0.43,0.32,0.8,0.76,0.81l10.22,0.35
			c0.01,0,0.02,0,0.03,0c0.42,0,0.77-0.34,0.79-0.76C139.61,504.84,139.27,504.48,138.84,504.47z"/>
		<path class="st29" d="M132.05,508.37c-1,1-1,2.64,0,3.64c0.49,0.49,1.13,0.75,1.82,0.75s1.33-0.27,1.82-0.75c1-1,1-2.64,0-3.64
			C134.72,507.4,133.03,507.4,132.05,508.37z M134.58,510.9c-0.38,0.38-1.04,0.38-1.42,0c-0.39-0.39-0.39-1.03,0-1.42
			c0.19-0.19,0.44-0.29,0.71-0.29c0.27,0,0.52,0.1,0.71,0.29C134.97,509.87,134.97,510.51,134.58,510.9z"/>
		<path class="st29" d="M133.74,502.75c0.69,0,1.34-0.27,1.82-0.75c1-1,1-2.64,0-3.64c-0.97-0.97-2.67-0.97-3.64,0
			c-1,1-1,2.64,0,3.64C132.4,502.48,133.05,502.75,133.74,502.75z M133.03,499.47c0.19-0.19,0.44-0.29,0.71-0.29s0.52,0.1,0.71,0.29
			c0.39,0.39,0.39,1.03,0,1.42c-0.38,0.38-1.04,0.38-1.42,0C132.64,500.49,132.64,499.86,133.03,499.47z"/>
	</g>
</g>
<g>
	<g>
		<circle class="st0" cx="246.66" cy="500.06" r="40.19"/>
		<path class="st30" d="M221.86,481.45v37.21h49.62v-37.21H221.86z M270.48,517.68h-47.63v-35.23h47.63V517.68z"/>
		<path class="st30" d="M239.22,491.68h-9.92v9.92h9.92V491.68z M238.23,500.61h-7.94v-7.94h7.94V500.61z"/>
		<path class="st30" d="M251.63,491.68h-9.92v9.92h9.92V491.68z M250.63,500.61h-7.94v-7.94h7.94V500.61z"/>
		<path class="st30" d="M264.03,491.68h-9.92v9.92h9.92V491.68z M263.04,500.61h-7.94v-7.94h7.94V500.61z"/>
		<rect x="230.54" y="505.22" class="st31" width="7.44" height="0.99"/>
		<rect x="231.78" y="507.82" class="st31" width="4.96" height="0.99"/>
		<rect x="242.94" y="505.22" class="st31" width="7.44" height="0.99"/>
		<rect x="244.18" y="507.82" class="st31" width="4.96" height="0.99"/>
		<rect x="255.35" y="505.22" class="st31" width="7.44" height="0.99"/>
		<rect x="256.59" y="507.82" class="st31" width="4.96" height="0.99"/>
	</g>
	<polyline class="st18" points="244.36,496.87 245.67,498.18 248.77,495.08 	"/>
</g>
<g>
	<circle class="st0" cx="360.55" cy="500.06" r="40.19"/>
	<g>
		<g>
			<line class="st23" x1="351.08" y1="510.52" x2="371.43" y2="510.52"/>
			<path class="st23" d="M381.2,510.52h5.48c1.02,0,1.85-0.84,1.85-1.85v-4.64c0-1.71-0.7-3.34-1.93-4.52l-2.49-2.39
				c-0.9-0.61-1.55-1.52-1.85-2.57l-2.92-7.58c-0.35-1.24-1.49-2.1-2.78-2.1H337.1c-0.95,0-1.73,0.77-1.73,1.73v22.21
				c0,0.95,0.77,1.73,1.73,1.73h3.77"/>
		</g>
		<path class="st23" d="M382,495.85h-6.57c-0.93,0-1.68-0.75-1.68-1.68v-3.21c0-0.93,0.75-1.83,1.68-1.83h4.13"/>
		<g>
			<circle class="st23" cx="345.76" cy="509.91" r="4.79"/>
			<circle class="st18" cx="345.76" cy="509.91" r="1.93"/>
		</g>
		<g>
			<circle class="st23" cx="376.31" cy="509.91" r="4.79"/>
			<circle class="st18" cx="376.31" cy="509.91" r="1.93"/>
		</g>
		<line class="st23" x1="385.79" y1="505.94" x2="389.76" y2="505.94"/>
		<line class="st23" x1="333.84" y1="505.94" x2="338.12" y2="505.94"/>
	</g>
	<circle class="st18" cx="345.76" cy="509.91" r="4.79"/>
	<circle class="st18" cx="376.31" cy="509.91" r="4.79"/>
</g>
<g>
	<circle class="st5" cx="57.04" cy="-367.09" r="56.95"/>
	<g>
		<path class="st24" d="M45.61-352.37l3.49-4.39c1.61-2.09-1.7-4.5-3.3-2.47c-1.17,1.47-2.33,2.96-3.51,4.42
			C40.73-352.72,44.02-350.38,45.61-352.37z M55.51-376.17c-2.09-1.69-5.34-1.38-8.99-1.02c-3.93,0.39-8.32,0.81-12.39-1.1
			l-1.52,15.73c2.31,0.37,4.19,1.71,6.17,2.87l2.34-2.94c1.73-2.18,5.28-0.66,5.02,2.01c2.17-1,4.69,0.93,4.18,3.27
			c2.39-0.85,4.83,1.89,3.27,4.13c2.36-0.65,4.33,2.17,2.8,4.15l-1.11,1.45l1.92,1.9c2.13,2.12,5.32-1.09,3.23-3.21l-2.25-2.23
			c-0.42-0.42,0.22-1.05,0.63-0.63l2.23,2.21l1.24,1.23c2.12,2.11,5.31-1.07,3.24-3.19l-2.38-2.37c-0.42-0.42,0.21-1.05,0.63-0.63
			l2.62,2.6l1.2,1.19c2.13,2.12,5.34-1.11,3.21-3.23l-2.5-2.48c-0.42-0.42,0.21-1.05,0.63-0.64l2.5,2.48l1.16,1.15
			c2.01,2,4.97-0.76,3.53-2.85c-0.1-0.09-0.2-0.26-0.32-0.38c-3.86-3.92-8.56-9.01-12.79-12.03c-1.94-1.39-3.15-1.83-3.63-1.32
			c-1.92,1.76-4.49,3.66-7.27,3.23c-1.9-0.3-3.24-1.61-4.12-2.85c-0.14-0.19-0.1-0.46,0.09-0.61L55.51-376.17z M34.23-379.24
			c3.93,1.97,8.3,1.54,12.21,1.16c3.93-0.38,7.43-0.72,9.79,1.35l0.8-0.63c2.57-2.04,6.02-1.66,8.97-0.86
			c2.34,0.63,4.97,1.34,9.98,0.02l-0.8-1.76c-0.33-0.73-0.01-1.6,0.73-1.93l7.08-3.21c0.73-0.33,1.6,0,1.93,0.73l8.96,19.8
			c0.32,0.73-0.01,1.58-0.73,1.91l-7.1,3.21c-0.73,0.32-1.58-0.01-1.91-0.73l-1.01-2.23c-0.38,0.07-0.65,0.14-0.86,0.27
			c-0.26,0.15-0.48,0.41-0.78,0.86c-0.59,1.1-1.29,2.06-2.1,2.9c-0.7,0.73-1.47,1.36-2.33,1.89c1.47,2.75-2,5.96-4.65,4.04
			c0.02,2.6-3.16,4.4-5.31,2.46c-0.03,2.46-2.95,4.22-5.07,2.6c0.01,2.66-3.31,4.43-5.44,2.31l-1.83-1.82l-0.58,0.75
			c-1.72,2.16-5.14,0.34-4.57-2.27c-1.91,1.2-4.51-0.35-4.28-2.59c-2.15,1.05-4.71-0.84-4.25-3.19c-2.55,0.89-4.91-2.09-3.23-4.28
			l0.39-0.5c-1.81-1.05-3.61-2.34-5.69-2.68l-0.21,2.17c-0.08,0.8-0.8,1.39-1.59,1.31L23-358.93c-0.8-0.08-1.39-0.79-1.31-1.59
			l2.09-21.61c0.08-0.8,0.79-1.39,1.59-1.31l7.74,0.75c0.8,0.08,1.39,0.8,1.31,1.59L34.23-379.24z M53.5-346.75l2.19-2.86
			c1.34-1.73-1.32-3.9-2.68-2.2c-0.72,0.98-1.49,1.95-2.23,2.91C49.45-347.17,52.11-344.95,53.5-346.75z M49.8-355.91l-3.24,4.08
			c-1.44,1.88,1.51,4.13,3.02,2.25l3.25-4.08C54.26-355.55,51.29-357.77,49.8-355.91z M38.54-357.94c-1.47,1.94,1.58,4.16,3.08,2.29
			c1.05-1.32,2.33-2.79,3.29-4.14c1.45-1.89-1.55-4.21-3.07-2.29C40.73-360.69,39.64-359.32,38.54-357.94z M33.53-381.19
			c0.03-0.31-0.2-0.59-0.51-0.62l-7.74-0.75c-0.31-0.03-0.59,0.2-0.62,0.51l-2.09,21.61c-0.03,0.31,0.2,0.59,0.51,0.62l7.74,0.75
			c0.31,0.03,0.59-0.2,0.62-0.51C32.14-366.78,32.83-374,33.53-381.19z M82.75-363.25l-6.4-14.13c-5.33,1.43-8.12,0.68-10.59,0.02
			c-2.65-0.71-5.86-1.14-8.19,0.7c-2.87,2.27-5.74,4.55-8.61,6.82c0.77,0.98,1.85,1.93,3.28,2.15c1.63,0.25,3.75-0.41,6.47-2.95
			c0.83-0.9,2.43-0.49,4.8,1.2c4.46,3.19,9.15,8.24,13,12.23c0.81-0.5,1.55-1.09,2.21-1.78c0.74-0.77,1.39-1.67,1.94-2.69l0.01-0.01
			l0.01-0.01l0-0.01l0,0l0.01-0.01l0.01-0.02c0.39-0.59,0.69-0.94,1.1-1.17C82.08-363.07,82.37-363.17,82.75-363.25z M93.06-364.22
			L84.1-384c-0.13-0.28-0.47-0.41-0.75-0.28l-7.08,3.21c-0.28,0.13-0.41,0.47-0.28,0.75l1,2.22L77-378.1l0,0.01l0.01,0.01l0,0.01h0
			l0,0.01c2.64,5.84,5.29,11.68,7.93,17.51c0.12,0.27,0.45,0.4,0.73,0.29l7.1-3.22C93.06-363.6,93.19-363.94,93.06-364.22z"/>
	</g>
</g>
<g>
	<circle class="st5" cx="198.38" cy="-367.09" r="56.95"/>
	<g>
		<path class="st1" d="M198.01-373.65c6.78,0,12.28-5.5,12.28-12.28c0-6.78-5.5-12.28-12.28-12.28c-6.78,0-12.28,5.5-12.28,12.28
			C185.73-379.14,191.23-373.65,198.01-373.65z M198.01-396.38c5.77,0,10.46,4.69,10.46,10.46c0,5.77-4.69,10.46-10.46,10.46
			s-10.46-4.69-10.46-10.46C187.55-391.69,192.24-396.38,198.01-396.38z"/>
		<path class="st1" d="M229.56-368.03c-0.08-0.01-7.63-1.14-11.34-5.32c-0.16-0.18-0.39-0.29-0.63-0.29c-0.01,0-0.02,0-0.03,0
			c-0.23,0-0.45,0.1-0.61,0.26c-0.02,0.02-0.75,0.77-1.99,1.68c-2.26-1.64-4.83-2.91-7.57-3.7c-0.58,0.52-1.21,0.99-1.87,1.4
			c2.8,0.63,5.46,1.79,7.81,3.38c-1.89,1.12-4.38,2.16-7.11,2.16c-0.15,0-0.31,0-0.46-0.01c-0.01,0-0.03,0-0.04,0
			c-0.45,0-0.83,0.36-0.86,0.81c-0.01,0.18-0.21,4.56,1.16,9.59c1.84,6.76,5.65,11.42,11.04,13.47c0.1,0.04,0.2,0.06,0.31,0.06
			c0.07,0,0.15-0.01,0.22-0.03c0.1-0.03,2.13-0.57,4.54-2.49v2.78c0,1.36-1.11,2.46-2.47,2.46h-43.25c-1.36,0-2.47-1.1-2.47-2.46
			v-10.37c0-5.4,2.31-10.44,6.5-14.19c2.82-2.53,6.35-4.31,10.1-5.15c-0.66-0.42-1.29-0.89-1.87-1.4
			c-9.26,2.68-16.55,10.64-16.55,20.75v10.37c0,2.36,1.92,4.28,4.29,4.28h43.25c2.37,0,4.29-1.92,4.29-4.28v-4.45
			c2.81-2.95,6.18-8.54,6.37-18.44C230.3-367.6,229.99-367.97,229.56-368.03z M222.57-349.94c-2.22,2.32-4.43,3.25-5.19,3.52
			c-4.66-1.89-7.98-6.08-9.62-12.12c-0.95-3.48-1.1-6.61-1.11-8.1c5.09-0.18,9.27-3.38,10.89-4.8c3.45,3.3,8.85,4.65,10.92,5.06
			C228.11-357.53,225.09-352.57,222.57-349.94z"/>
		<path class="st1" d="M212.73-360.16c-0.37-0.34-0.94-0.32-1.29,0.04c-0.34,0.37-0.32,0.94,0.04,1.29l3.84,3.59
			c0.17,0.16,0.4,0.24,0.62,0.24c0.22,0,0.44-0.08,0.61-0.23l7.07-6.37c0.37-0.34,0.4-0.91,0.07-1.28c-0.34-0.37-0.91-0.4-1.28-0.07
			l-6.45,5.81L212.73-360.16z"/>
		<path class="st1" d="M184.13-364.81c0.36-0.35,0.37-0.93,0.02-1.29c-0.35-0.36-0.93-0.37-1.29-0.02
			c-2.84,2.77-4.41,6.43-4.41,10.29v7.6c0,2.02,0.75,2.77,2.76,2.77h13.61c0.5,0,0.91-0.41,0.91-0.91s-0.41-0.91-0.91-0.91h-13.61
			c-0.68,0-0.83-0.08-0.84-0.08c-0.02-0.02-0.1-0.18-0.1-0.87v-7.6C180.28-359.19,181.65-362.38,184.13-364.81z"/>
		<circle class="st1" cx="186.19" cy="-367.74" r="0.91"/>
	</g>
</g>
<g>
	<circle class="st5" cx="343.71" cy="-367.09" r="56.95"/>
	<g>
		<path class="st32" d="M343.71-388.45c-11.78,0-21.36,9.58-21.36,21.36s9.58,21.36,21.36,21.36c11.78,0,21.36-9.58,21.36-21.36
			S355.49-388.45,343.71-388.45z M361.94-365.57c-0.32,3.9-1.87,7.46-4.26,10.28l-2.1-2.1l-2.16,2.16l2.1,2.1
			c-2.83,2.39-6.38,3.94-10.28,4.26v-2.97h-3.05v2.97c-3.9-0.32-7.46-1.87-10.28-4.26l2.1-2.1l-2.16-2.16l-2.1,2.1
			c-2.39-2.83-3.94-6.38-4.26-10.28h2.98v-3.05h-2.97c0.32-3.9,1.87-7.46,4.26-10.28l2.1,2.1l2.16-2.16l-2.1-2.1
			c2.83-2.39,6.38-3.94,10.28-4.26v2.98h3.05v-2.97c3.9,0.32,7.46,1.87,10.28,4.26l-2.1,2.1l2.16,2.16l2.1-2.1
			c2.39,2.83,3.94,6.38,4.26,10.28h-2.98v3.05L361.94-365.57L361.94-365.57z"/>
		<path class="st32" d="M343.71-371.67c-0.7,0-1.36,0.17-1.96,0.46l-4.59-4.59l-2.16,2.16l4.59,4.59c-0.29,0.6-0.46,1.26-0.46,1.96
			c0,1.99,1.28,3.66,3.05,4.3v3.33h3.05v-3.33c1.77-0.63,3.05-2.31,3.05-4.3C348.29-369.61,346.23-371.67,343.71-371.67z
			 M343.71-365.57c-0.84,0-1.53-0.68-1.53-1.53c0-0.84,0.68-1.53,1.53-1.53c0.84,0,1.53,0.68,1.53,1.53S344.55-365.57,343.71-365.57
			z"/>
		<path class="st32" d="M367.42-353.29c1.25-2.14,2.2-4.42,2.82-6.8l3.98-1.32v-11.35l-3.98-1.33c-0.63-2.38-1.57-4.66-2.82-6.8
			l1.88-3.75l-8.03-8.03l-3.76,1.88c-2.14-1.25-4.42-2.2-6.8-2.83l-1.33-3.98h-11.35l-1.33,3.98c-2.38,0.63-4.66,1.57-6.8,2.82
			l-3.75-1.88l-8.03,8.03l1.88,3.75c-1.25,2.14-2.2,4.42-2.82,6.8l-3.98,1.33v11.35l3.98,1.33c0.63,2.38,1.57,4.66,2.82,6.8
			l-1.88,3.75l8.03,8.03l3.75-1.88c2.14,1.25,4.42,2.2,6.8,2.82l1.33,3.98h11.35l1.33-3.98c2.38-0.63,4.66-1.57,6.8-2.83l3.76,1.88
			l8.03-8.03L367.42-353.29z M360.67-345.22l-3.31-1.65l-0.73,0.45c-2.31,1.45-4.81,2.49-7.45,3.09l-0.83,0.19l-1.17,3.5h-6.96
			l-1.17-3.5l-0.83-0.19c-2.63-0.6-5.14-1.64-7.45-3.09l-0.73-0.45l-3.31,1.65l-4.92-4.92l1.65-3.31l-0.45-0.73
			c-1.45-2.31-2.49-4.81-3.09-7.45l-0.19-0.83l-3.5-1.17v-6.96l3.5-1.17l0.19-0.83c0.6-2.63,1.64-5.14,3.09-7.45l0.45-0.73
			l-1.65-3.31l4.92-4.92l3.31,1.65l0.73-0.45c2.31-1.45,4.81-2.49,7.45-3.09l0.83-0.19l1.17-3.5h6.96l1.17,3.5l0.83,0.19
			c2.63,0.6,5.14,1.64,7.45,3.09l0.73,0.45l3.31-1.65l4.92,4.92l-1.65,3.31l0.45,0.73c1.45,2.31,2.49,4.81,3.09,7.45l0.19,0.83
			l3.5,1.17v6.96l-3.5,1.17l-0.19,0.83c-0.6,2.63-1.64,5.14-3.09,7.45l-0.45,0.73l1.65,3.31L360.67-345.22z"/>
	</g>
</g>
</svg>
