<?xml version="1.0" encoding="utf-8"?>
<!-- Generator: Adobe Illustrator 25.0.0, SVG Export Plug-In . SVG Version: 6.00 Build 0)  -->
<svg version="1.1" id="Layer_1" xmlns="http://www.w3.org/2000/svg" xmlns:xlink="http://www.w3.org/1999/xlink" x="0px" y="0px"
	 viewBox="0 0 80.38 80.38" style="enable-background:new 0 0 80.38 80.38;" xml:space="preserve">
<style type="text/css">
	.st0{fill:#4A265A;}
	.st1{fill:#FFFFFF;}
	.st2{fill:#28BFA2;stroke:#4A265A;stroke-width:0.1984;stroke-miterlimit:10;}
	.st3{fill:none;stroke:#28BFA2;stroke-width:1.1339;stroke-miterlimit:10;}
	.st4{fill:#FFFFFF;stroke:#4A265A;stroke-width:0.1984;stroke-miterlimit:10;}
	.st5{fill:#28BFA2;}
	.st6{fill:#FFFFFF;stroke:#FFFFFF;stroke-width:0.0567;stroke-miterlimit:10;}
	.st7{fill:#28BFA2;stroke:#4A265A;stroke-width:0.0567;stroke-miterlimit:10;}
	.st8{fill:#FFFFFF;stroke:#4A265A;stroke-width:0.2126;stroke-miterlimit:10;}
	.st9{fill:#28BFA2;stroke:#4A265A;stroke-width:0.2835;stroke-miterlimit:10;}
	.st10{fill:#FFFFFF;stroke:#4A265A;stroke-width:0.2835;stroke-miterlimit:10;}
	.st11{fill:#FFFFFF;stroke:#4A265A;stroke-width:0.0283;stroke-miterlimit:10;}
	.st12{fill:#28BFA2;stroke:#4A265A;stroke-width:0.0283;stroke-miterlimit:10;}
	.st13{fill:none;}
	.st14{fill:#FFFFFF;stroke:#4A265A;stroke-width:0.085;stroke-miterlimit:10;}
	.st15{fill:#28BFA2;stroke:#4A265A;stroke-width:0.085;stroke-miterlimit:10;}
	.st16{fill:#28BFA2;stroke:#4A265A;stroke-width:1.0205;stroke-miterlimit:10;}
	.st17{fill:#FFFFFF;stroke:#4A265A;stroke-width:1.0205;stroke-miterlimit:10;}
	.st18{fill:none;stroke:#28BFA2;stroke-width:1.1339;stroke-linecap:round;stroke-miterlimit:10;}
	.st19{fill:#28BFA2;stroke:#4A265A;stroke-width:0.4819;stroke-miterlimit:10;}
	.st20{fill:#28BFA2;stroke:#28BFA2;stroke-width:0.2551;stroke-miterlimit:10;}
	.st21{fill:#FFFFFF;stroke:#4A265A;stroke-width:0.4819;stroke-miterlimit:10;}
	.st22{fill:none;stroke:#FFFFFF;stroke-width:1.1339;stroke-miterlimit:10;}
	.st23{fill:none;stroke:#FFFFFF;stroke-width:1.1339;stroke-linecap:round;stroke-miterlimit:10;}
	.st24{fill:#FFFFFF;stroke:#FFFFFF;stroke-width:0.4819;stroke-miterlimit:10;}
	.st25{fill:#28BFA2;stroke:#28BFA2;stroke-width:0.4819;stroke-miterlimit:10;}
	.st26{fill:#FFFFFF;stroke:#4A265A;stroke-width:0.3118;stroke-miterlimit:10;}
	.st27{fill:#FFFFFF;stroke:#4A265A;stroke-width:0.7087;stroke-miterlimit:10;}
	.st28{fill:#28BFA2;stroke:#4A265A;stroke-width:0.7087;stroke-miterlimit:10;}
	.st29{fill:#28BFA2;stroke:#4A265A;stroke-width:0.3118;stroke-miterlimit:10;}
	.st30{fill:#FFFFFF;stroke:#FFFFFF;stroke-width:0.085;stroke-miterlimit:10;}
	.st31{fill:#28BFA2;stroke:#28BFA2;stroke-width:0.085;stroke-miterlimit:10;}
	.st32{fill:#FFFFFF;stroke:#28BFA2;stroke-width:0.5669;stroke-miterlimit:10;}
</style>
<g>
	<circle class="st0" cx="40.19" cy="40.19" r="40.19"/>
	<g>
		<path class="st1" d="M68.15,33.79c-0.32-0.28-0.73-0.42-1.15-0.39c-0.45,0.03-0.88,0.25-1.18,0.6l-1.48,1.71
			c-0.22-0.1-0.47-0.16-0.73-0.14c-0.42,0.03-0.82,0.24-1.09,0.58l-6.92,8.42V17.82H22.47v43.23h19.58l-0.78,0.94l-1.22,4.53
			l4.26-1.84l3.3-3.64h7.99v-8.83l9.06-10.01l0.19,0.17c0.3,0.27,0.31,0.77,0.01,1.11l-5.58,6.47l0.85,0.73l5.58-6.47
			c0.69-0.81,0.64-2.01-0.12-2.68l-0.19-0.17l1.34-1.48l0,0c0.29-0.32,0.44-0.74,0.41-1.16c-0.02-0.34-0.15-0.65-0.37-0.9l1.46-1.69
			C68.86,35.43,68.81,34.38,68.15,33.79z M23.6,59.93V18.95h30.88v26.95h0.04L42.98,59.93H23.6z M41.75,64.57l0.47-1.74l1.16,1.03
			L41.75,64.57z M54.47,59.93h-5.85l5.85-6.47L54.47,59.93L54.47,59.93z M44.23,63.11l-1.39-1.24L61.38,39.3l2.43,2.17L44.23,63.11z
			 M65.92,39.14l-1.35,1.49l-2.47-2.2l1.29-1.57c0.08-0.1,0.2-0.16,0.31-0.17c0.07,0,0.16,0.01,0.25,0.08l1.98,1.77
			c0.09,0.08,0.11,0.19,0.12,0.25C66.05,38.91,66.01,39.04,65.92,39.14z M67.4,35.41l-1.43,1.66l-0.74-0.66l1.45-1.68
			c0.11-0.12,0.25-0.2,0.4-0.21c0.09-0.01,0.22,0.01,0.33,0.11C67.61,34.82,67.61,35.16,67.4,35.41z"/>
	</g>
	<g>
		<rect x="29.21" y="25.68" class="st5" width="19.65" height="1.12"/>
		<rect x="29.21" y="30.73" class="st5" width="19.65" height="1.12"/>
		<rect x="29.21" y="35.79" class="st5" width="19.65" height="1.12"/>
		<rect x="29.21" y="40.84" class="st5" width="19.65" height="1.12"/>
	</g>
	<g>
		<path class="st1" d="M41.7,51.43l-0.11-0.39l-0.62,0.35c-0.57,0.32-1.09,0.89-1.59,1.44c-0.63,0.68-1.28,1.39-1.89,1.48
			c-0.14,0.02-0.23,0.03-0.3,0.02c0.09-0.3,0.44-0.84,0.61-1.09c0.3-0.46,0.46-0.72,0.45-1l-0.04-0.88l-0.78,0.41
			c-0.27,0.14-0.57,0.31-0.91,0.5c-1.25,0.7-3.06,1.71-4.32,1.72c0.14-0.51,0.28-0.97,0.44-1.39l0.16,0.59
			c1.74-0.47,5.65-2.21,5.95-4.34c0.09-0.67-0.25-0.98-0.46-1.11c-1.19-0.74-4.04,1.05-4.06,1.07c-2.15,1.48-2.78,3.45-3.28,5.51
			l-0.12,0.51l0.5,0.16c1.42,0.44,3.31-0.42,4.89-1.28c-0.2,0.46-0.28,0.91-0.04,1.29c0.24,0.38,0.67,0.46,1.02,0.46
			c0.19,0,0.35-0.02,0.45-0.04c1-0.15,1.79-1.01,2.55-1.83c0.39-0.42,0.76-0.83,1.11-1.08c1.02,0.19,4.77,0.11,5.94-0.99l-0.77-0.82
			C45.75,51.38,42.66,51.54,41.7,51.43z M34.86,49.75c0.7-0.48,2.13-1.07,2.69-1.07c0.03,0,0.06,0,0.09,0.01c0,0.01,0,0.01,0,0.02
			c-0.17,1.19-2.82,2.68-4.74,3.3C33.33,51.09,33.93,50.38,34.86,49.75z"/>
	</g>
</g>
</svg>
