<?xml version="1.0" encoding="utf-8"?>
<!-- Generator: Adobe Illustrator 25.0.0, SVG Export Plug-In . SVG Version: 6.00 Build 0)  -->
<svg version="1.1" id="Layer_1" xmlns="http://www.w3.org/2000/svg" xmlns:xlink="http://www.w3.org/1999/xlink" x="0px" y="0px"
	 viewBox="0 0 80.2 80.38" style="enable-background:new 0 0 80.2 80.38;" xml:space="preserve">
<style type="text/css">
	.st0{fill:#4A265A;}
	.st1{fill:#FFFFFF;}
	.st2{fill:#28BFA2;stroke:#4A265A;stroke-width:0.1984;stroke-miterlimit:10;}
	.st3{fill:none;stroke:#28BFA2;stroke-width:1.1339;stroke-miterlimit:10;}
	.st4{fill:#FFFFFF;stroke:#4A265A;stroke-width:0.1984;stroke-miterlimit:10;}
	.st5{fill:#28BFA2;}
	.st6{fill:#FFFFFF;stroke:#FFFFFF;stroke-width:0.0567;stroke-miterlimit:10;}
	.st7{fill:#28BFA2;stroke:#4A265A;stroke-width:0.0567;stroke-miterlimit:10;}
	.st8{fill:#FFFFFF;stroke:#4A265A;stroke-width:0.2126;stroke-miterlimit:10;}
	.st9{fill:#28BFA2;stroke:#4A265A;stroke-width:0.2835;stroke-miterlimit:10;}
	.st10{fill:#FFFFFF;stroke:#4A265A;stroke-width:0.2835;stroke-miterlimit:10;}
	.st11{fill:#FFFFFF;stroke:#4A265A;stroke-width:0.0283;stroke-miterlimit:10;}
	.st12{fill:#28BFA2;stroke:#4A265A;stroke-width:0.0283;stroke-miterlimit:10;}
	.st13{fill:none;}
	.st14{fill:#FFFFFF;stroke:#4A265A;stroke-width:0.085;stroke-miterlimit:10;}
	.st15{fill:#28BFA2;stroke:#4A265A;stroke-width:0.085;stroke-miterlimit:10;}
	.st16{fill:#28BFA2;stroke:#4A265A;stroke-width:1.0205;stroke-miterlimit:10;}
	.st17{fill:#FFFFFF;stroke:#4A265A;stroke-width:1.0205;stroke-miterlimit:10;}
	.st18{fill:none;stroke:#28BFA2;stroke-width:1.1339;stroke-linecap:round;stroke-miterlimit:10;}
	.st19{fill:#28BFA2;stroke:#4A265A;stroke-width:0.4819;stroke-miterlimit:10;}
	.st20{fill:#28BFA2;stroke:#28BFA2;stroke-width:0.2551;stroke-miterlimit:10;}
	.st21{fill:#FFFFFF;stroke:#4A265A;stroke-width:0.4819;stroke-miterlimit:10;}
	.st22{fill:none;stroke:#FFFFFF;stroke-width:1.1339;stroke-miterlimit:10;}
	.st23{fill:none;stroke:#FFFFFF;stroke-width:1.1339;stroke-linecap:round;stroke-miterlimit:10;}
	.st24{fill:#FFFFFF;stroke:#FFFFFF;stroke-width:0.4819;stroke-miterlimit:10;}
	.st25{fill:#28BFA2;stroke:#28BFA2;stroke-width:0.4819;stroke-miterlimit:10;}
	.st26{fill:#FFFFFF;stroke:#4A265A;stroke-width:0.3118;stroke-miterlimit:10;}
	.st27{fill:#FFFFFF;stroke:#4A265A;stroke-width:0.7087;stroke-miterlimit:10;}
	.st28{fill:#28BFA2;stroke:#4A265A;stroke-width:0.7087;stroke-miterlimit:10;}
	.st29{fill:#28BFA2;stroke:#4A265A;stroke-width:0.3118;stroke-miterlimit:10;}
	.st30{fill:#FFFFFF;stroke:#FFFFFF;stroke-width:0.085;stroke-miterlimit:10;}
	.st31{fill:#28BFA2;stroke:#28BFA2;stroke-width:0.085;stroke-miterlimit:10;}
	.st32{fill:#FFFFFF;stroke:#28BFA2;stroke-width:0.5669;stroke-miterlimit:10;}
</style>
<circle class="st0" cx="40.1" cy="40.19" r="40.19"/>
<g>
	<path class="st16" d="M33.98,40.98c0.19,0.28,0.5,0.46,0.84,0.48c0.02,0,0.04,0,0.07,0c0.32,0,0.62-0.14,0.83-0.38l8.2-9.37
		c0.4-0.46,0.35-1.15-0.1-1.55c-0.46-0.4-1.15-0.35-1.55,0.1L35,38.56l-2.13-3.12c-0.34-0.5-1.03-0.63-1.53-0.29
		c-0.5,0.34-0.63,1.03-0.29,1.53L33.98,40.98z"/>
	<path class="st17" d="M18.37,35.59v3.79v2.2v9.38c0,0.61,0.49,1.1,1.1,1.1h5.84c0.28,2.35,2.28,4.19,4.71,4.19s4.43-1.83,4.7-4.19
		h14.74h3.71c0.5,2.08,2.37,3.64,4.61,3.64c2.23,0,4.11-1.55,4.6-3.64h3.71c0.61,0,1.1-0.49,1.1-1.1V40.13c0-0.01,0-0.03,0-0.04
		c0-0.01,0-0.02,0-0.04v-0.28c0-0.14-0.03-0.28-0.08-0.41l-2.68-6.73c-0.17-0.42-0.57-0.69-1.02-0.69h-0.3h-1.24v-3.14
		c0-0.53-0.38-0.99-0.91-1.08l-10.4-1.85V24.7c0-0.61-0.49-1.1-1.1-1.1H19.47c-0.61,0-1.1,0.49-1.1,1.1v8.7L18.37,35.59z
		 M30.01,54.05c-1.4,0-2.54-1.14-2.54-2.54c0-0.13,0.01-0.27,0.03-0.39c0.01-0.06,0.02-0.13,0.04-0.19c0-0.01,0.01-0.02,0.01-0.04
		c0.02-0.07,0.04-0.13,0.06-0.19c0-0.01,0.01-0.02,0.01-0.03c0.02-0.07,0.05-0.13,0.08-0.2c0,0,0,0,0,0
		c0.37-0.82,1.17-1.4,2.08-1.49c0,0,0.01,0,0.01,0c0.07-0.01,0.15-0.01,0.22-0.01c0.07,0,0.15,0,0.22,0.01c0,0,0.01,0,0.01,0
		c0.91,0.09,1.71,0.67,2.08,1.49c0,0,0,0,0,0c0.03,0.06,0.05,0.13,0.08,0.2c0,0.01,0.01,0.02,0.01,0.03
		c0.02,0.06,0.04,0.13,0.06,0.19c0,0.01,0.01,0.02,0.01,0.04c0.01,0.06,0.03,0.13,0.04,0.19c0.02,0.13,0.03,0.26,0.03,0.39
		C32.55,52.91,31.41,54.05,30.01,54.05z M57.78,53.5c-1.4,0-2.54-1.14-2.54-2.54c0-1.4,1.14-2.54,2.54-2.54
		c1.4,0,2.54,1.14,2.54,2.54C60.32,52.36,59.18,53.5,57.78,53.5z M62.39,49.87c0-0.02-0.01-0.03-0.01-0.05
		c-0.01-0.03-0.01-0.05-0.02-0.08c-0.01-0.04-0.03-0.09-0.04-0.13c-0.01-0.03-0.02-0.05-0.02-0.08c-0.01-0.05-0.03-0.09-0.05-0.14
		c-0.01-0.02-0.02-0.05-0.02-0.07c-0.02-0.06-0.04-0.11-0.07-0.17c0-0.01-0.01-0.02-0.01-0.04c-0.03-0.07-0.06-0.13-0.09-0.2
		c-0.01-0.02-0.02-0.03-0.02-0.05c-0.02-0.05-0.05-0.1-0.07-0.14c-0.01-0.02-0.02-0.04-0.04-0.07c-0.02-0.04-0.05-0.08-0.07-0.12
		c-0.01-0.02-0.03-0.05-0.04-0.07c-0.02-0.04-0.05-0.08-0.07-0.12c-0.01-0.02-0.03-0.04-0.04-0.07c-0.03-0.04-0.05-0.08-0.08-0.12
		c-0.01-0.02-0.03-0.04-0.04-0.06c-0.04-0.05-0.07-0.1-0.11-0.14c-0.01-0.01-0.01-0.02-0.02-0.03c-0.05-0.05-0.09-0.11-0.14-0.16
		c-0.01-0.01-0.03-0.03-0.04-0.04c-0.04-0.04-0.07-0.08-0.11-0.11c-0.02-0.02-0.04-0.04-0.05-0.05c-0.03-0.03-0.07-0.06-0.1-0.09
		c-0.02-0.02-0.04-0.04-0.06-0.05c-0.03-0.03-0.07-0.06-0.1-0.09c-0.02-0.02-0.04-0.03-0.06-0.05c-0.04-0.03-0.07-0.06-0.11-0.09
		c-0.02-0.01-0.04-0.03-0.06-0.04c-0.05-0.04-0.1-0.07-0.15-0.11c-0.01,0-0.01-0.01-0.02-0.01c-0.06-0.04-0.12-0.08-0.18-0.12
		c-0.02-0.01-0.04-0.02-0.05-0.03c-0.04-0.03-0.09-0.05-0.13-0.08c-0.02-0.01-0.05-0.03-0.07-0.04c-0.04-0.02-0.08-0.04-0.12-0.06
		c-0.03-0.01-0.05-0.02-0.08-0.04c-0.04-0.02-0.08-0.04-0.12-0.06c-0.03-0.01-0.05-0.02-0.08-0.03c-0.04-0.02-0.09-0.04-0.14-0.05
		c-0.02-0.01-0.04-0.02-0.07-0.03c-0.06-0.02-0.13-0.04-0.19-0.06c0,0-0.01,0-0.02,0c-0.07-0.02-0.14-0.04-0.21-0.06
		c-0.02-0.01-0.04-0.01-0.07-0.02c-0.05-0.01-0.1-0.02-0.15-0.03c-0.03-0.01-0.05-0.01-0.08-0.02c-0.05-0.01-0.09-0.02-0.14-0.02
		c-0.03,0-0.06-0.01-0.09-0.01c-0.05-0.01-0.09-0.01-0.14-0.02c-0.03,0-0.06-0.01-0.08-0.01c-0.05,0-0.1-0.01-0.15-0.01
		c-0.02,0-0.05,0-0.07,0c-0.08,0-0.15-0.01-0.23-0.01s-0.15,0-0.23,0.01c-0.02,0-0.05,0-0.07,0c-0.05,0-0.1,0.01-0.15,0.01
		c-0.03,0-0.06,0.01-0.08,0.01c-0.05,0-0.09,0.01-0.14,0.02c-0.03,0-0.06,0.01-0.09,0.01c-0.05,0.01-0.09,0.02-0.14,0.03
		c-0.03,0-0.05,0.01-0.08,0.02c-0.05,0.01-0.1,0.02-0.15,0.03c-0.02,0-0.04,0.01-0.07,0.02c-0.07,0.02-0.14,0.04-0.21,0.06
		c0,0-0.01,0-0.01,0c-0.06,0.02-0.13,0.04-0.19,0.07c-0.02,0.01-0.04,0.02-0.07,0.03c-0.05,0.02-0.09,0.04-0.14,0.05
		c-0.03,0.01-0.05,0.02-0.07,0.03c-0.04,0.02-0.08,0.04-0.12,0.06c-0.03,0.01-0.05,0.02-0.08,0.04c-0.04,0.02-0.08,0.04-0.12,0.06
		c-0.02,0.01-0.05,0.02-0.07,0.04c-0.04,0.02-0.09,0.05-0.13,0.08c-0.02,0.01-0.04,0.02-0.05,0.03c-0.06,0.04-0.12,0.08-0.18,0.12
		c-0.01,0-0.01,0.01-0.02,0.01c-0.05,0.04-0.1,0.07-0.15,0.11c-0.02,0.01-0.04,0.03-0.06,0.04c-0.04,0.03-0.08,0.06-0.11,0.09
		c-0.02,0.02-0.04,0.03-0.06,0.05c-0.03,0.03-0.07,0.06-0.1,0.09c-0.02,0.02-0.04,0.04-0.06,0.05c-0.03,0.03-0.07,0.06-0.1,0.1
		c-0.02,0.02-0.04,0.04-0.05,0.05c-0.04,0.04-0.07,0.07-0.11,0.11c-0.01,0.01-0.03,0.03-0.04,0.04c-0.05,0.05-0.09,0.11-0.14,0.16
		c-0.01,0.01-0.01,0.02-0.02,0.03c-0.04,0.05-0.08,0.09-0.11,0.14c-0.01,0.02-0.03,0.04-0.04,0.06c-0.03,0.04-0.06,0.08-0.08,0.12
		c-0.01,0.02-0.03,0.04-0.04,0.07c-0.03,0.04-0.05,0.08-0.07,0.11c-0.01,0.02-0.03,0.05-0.04,0.07c-0.02,0.04-0.05,0.08-0.07,0.12
		c-0.01,0.02-0.03,0.04-0.04,0.07c-0.03,0.05-0.05,0.09-0.07,0.14c-0.01,0.02-0.02,0.03-0.02,0.05c-0.03,0.06-0.06,0.13-0.09,0.2
		c-0.01,0.01-0.01,0.03-0.02,0.04c-0.02,0.05-0.04,0.11-0.06,0.16c-0.01,0.02-0.02,0.05-0.03,0.07c-0.02,0.04-0.03,0.09-0.05,0.14
		c-0.01,0.03-0.02,0.05-0.02,0.08c-0.01,0.04-0.03,0.09-0.04,0.13c-0.01,0.03-0.01,0.05-0.02,0.08c0,0.02-0.01,0.03-0.01,0.05h-2.61
		V34.14h4.65v5.94c0,0.61,0.49,1.1,1.1,1.1h8.68v8.68H62.39z M64.44,38.99h-7.02v-4.84h3.36h1.61L64.44,38.99z M59.68,29.73v2.22
		h-3.36h-5.75v-3.84L59.68,29.73z M48.36,25.8v1v6.25v16.82H34.46c-0.6-1.63-2.08-2.83-3.85-3.06c-0.02,0-0.04,0-0.05-0.01
		c-0.04,0-0.08-0.01-0.12-0.01c-0.04,0-0.08-0.01-0.12-0.01c-0.03,0-0.06,0-0.09,0c-0.07,0-0.14-0.01-0.22-0.01
		c-0.07,0-0.14,0-0.22,0.01c-0.03,0-0.06,0-0.09,0c-0.04,0-0.08,0.01-0.12,0.01c-0.04,0-0.08,0.01-0.12,0.01
		c-0.02,0-0.04,0-0.05,0.01c-1.77,0.22-3.25,1.43-3.85,3.06h-5v-8.29v-2.2v-3.77v-2.2V25.8H48.36z"/>
</g>
<line class="st18" x1="12.96" y1="34.49" x2="23.86" y2="34.49"/>
<line class="st18" x1="15.06" y1="40.46" x2="27.14" y2="40.46"/>
</svg>
