<?xml version="1.0" encoding="UTF-8"?>
<svg id="Layer_1" data-name="Layer 1" xmlns="http://www.w3.org/2000/svg" viewBox="0 0 368.5 368.5">
  <defs>
    <style>
      .cls-1 {
        stroke-linecap: round;
        stroke-miterlimit: 4;
      }

      .cls-1, .cls-2 {
        fill: none;
        stroke: #371e55;
        stroke-width: 3.6px;
      }

      .cls-3 {
        fill: #ceebe6;
      }

      .cls-4 {
        fill: #371e55;
      }
    </style>
  </defs>
  <circle class="cls-3" cx="188.96" cy="187.1" r="158.79"/>
  <g>
    <path class="cls-4" d="m143.25,150.04h-8.34l7.74-7.74c1.49-1.49,1.49-3.87,0-5.36-1.49-1.49-3.87-1.49-5.36,0l-14.29,14.29c-1.49,1.49-1.49,3.87,0,5.36l14.29,14.29c.74.74,1.79,1.19,2.68,1.19s1.94-.45,2.68-1.19c1.49-1.49,1.49-3.87,0-5.36l-7.74-7.89h8.34c16.22,0,30.37,9.38,37.21,22.92,1.04-2.98,2.38-5.81,3.87-8.63-8.93-13.25-23.96-21.88-41.08-21.88h0Z"/>
    <path class="cls-4" d="m254.59,151.08l-8.78-8.78-5.36-5.51c-1.49-1.49-3.87-1.49-5.36,0-1.49,1.49-1.49,3.87,0,5.36l7.74,7.74h-8.34c-17.27.15-32.3,8.78-41.23,22.03-.15.3-.45.74-.6,1.04-1.49,2.38-2.83,4.76-3.87,7.29-2.53,5.81-3.87,12.35-3.87,19.05v15.33c0,2.08,1.79,3.87,3.87,3.87s3.87-1.79,3.87-3.87v-15.33c0-6.7,1.64-13.1,4.47-18.75,6.85-13.55,20.99-22.92,37.21-22.92h8.34l-7.74,7.74c-1.49,1.49-1.49,3.87,0,5.36.74.74,1.79,1.19,2.68,1.19,1.04,0,1.94-.45,2.68-1.19l14.29-14.29c1.64-1.34,1.64-3.87,0-5.36h0Z"/>
    <path class="cls-4" d="m177.19,111.64l7.74-7.74v56.56c1.34,1.49,2.68,2.98,3.87,4.61,1.19-1.64,2.53-3.13,3.87-4.61v-56.56l7.74,7.74c.74.74,1.79,1.19,2.68,1.19s1.94-.45,2.68-1.19c1.49-1.49,1.49-3.87,0-5.36l-14.29-14.29c-1.49-1.49-3.87-1.49-5.36,0l-14.29,14.29c-1.49,1.49-1.49,3.87,0,5.36s3.87,1.49,5.36,0h0Z"/>
  </g>
  <g>
    <g>
      <path class="cls-1" d="m146.53,247.16l23.36-13.21c1.94-1.1,5.27-1.51,7.42-.93l24.05,6.5c2.58.7,4.03,3.33,3.23,5.9l-.02.05c-.8,2.56-3.63,4.49-6.3,4.31l-19.69-1.35"/>
      <path class="cls-1" d="m205.06,245.8l33.62-5.49c2.43-.4,4.8,1.22,5.3,3.63l-.03-.15c.5,2.4-.9,5.17-3.15,6.19l-45.64,20.7c-2.04.92-5.49,1.67-7.73,1.67h-40.57"/>
    </g>
    <polygon class="cls-2" points="133.56 240.73 133.56 275.67 146.47 275.67 146.47 240.73 133.56 240.73"/>
  </g>
</svg>