<?xml version="1.0" encoding="UTF-8"?>
<svg id="Layer_1" data-name="Layer 1" xmlns="http://www.w3.org/2000/svg" viewBox="0 0 368.5 368.5">
  <defs>
    <style>
      .cls-1 {
        fill: #ceebe6;
      }

      .cls-2 {
        fill: #371e55;
      }
    </style>
  </defs>
  <circle class="cls-1" cx="180.98" cy="187.22" r="158.79"/>
  <path class="cls-2" d="m166.38,167.99c-.37,0-.74,0-1.11-.02h0c-17.68-.56-31.97-14.84-32.54-32.52-.3-9.41,3.19-18.25,9.83-24.89,6.64-6.65,15.49-10.15,24.89-9.84,17.67.56,31.95,14.84,32.52,32.51.3,9.41-3.19,18.25-9.83,24.9-6.38,6.38-14.78,9.86-23.77,9.86Zm-.99-3.62c8.41.27,16.29-2.85,22.22-8.79,5.93-5.94,9.05-13.83,8.78-22.24-.51-15.78-13.26-28.53-29.04-29.03-8.4-.27-16.3,2.85-22.23,8.79-5.93,5.93-9.05,13.83-8.78,22.23.51,15.78,13.27,28.53,29.05,29.03h0Z"/>
  <path class="cls-2" d="m214.42,232.28c-4.55-4.04-8.07-9.2-10.18-14.92-4.31-11.27-4.29-24.87-4.26-39.3,0-.97,0-1.93,0-2.9,3.05-.23,6.07-.71,9.03-1.42-1.2-1.01-2.43-1.98-3.7-2.9-2.08.38-4.18.65-6.3.78-1.48.09-2.64,1.32-2.64,2.8,0,1.21,0,2.42,0,3.66-.03,14.75-.06,28.68,4.49,40.55,2.32,6.26,6.18,11.91,11.16,16.34,5.32,4.73,12.06,8.34,20.56,11.05v-3.79c-7.48-2.5-13.45-5.76-18.16-9.95Zm-15.18-57.07h0,0Z"/>
  <path class="cls-2" d="m271.98,178.06v-3.63c0-1.48-1.16-2.71-2.63-2.8-12.33-.77-24.15-5.79-33.28-14.13-.48-.44-1.11-.7-1.76-.73-.03,0-.06,0-.08,0-.03,0-.14,0-.17,0-.65.03-1.28.29-1.77.73-6.39,5.84-14.11,10.04-22.4,12.31,1.12.89,2.21,1.82,3.27,2.78,7.73-2.46,14.92-6.52,21.02-11.95,9.47,8.44,21.56,13.57,34.21,14.53v2.9c.03,14.41.06,28.02-4.26,39.32-2.11,5.71-5.63,10.86-10.18,14.9-4.63,4.12-10.48,7.34-17.76,9.82v3.79c8.3-2.69,14.91-6.26,20.16-10.92,4.99-4.43,8.85-10.09,11.16-16.33,4.56-11.9,4.53-25.84,4.49-40.59Zm-2.86-2.84s0,0,0,0c0,0,0,0,0,0Z"/>
  <path class="cls-2" d="m234.17,246.4c-.27,0-.54-.04-.8-.12-.27-.08-.53-.18-.79-.26v6.88H100.14v-28.56c0-25.51,14.5-47.69,35.68-58.74-.6-1.03-1.16-2.1-1.65-3.2-22.34,11.66-37.63,35.05-37.63,61.94v32.16h139.64v-10.61c-.39.13-.77.26-1.17.39-.28.08-.56.12-.83.12Z"/>
  <path class="cls-2" d="m198.57,162.41c-.49,1.09-1.05,2.16-1.65,3.2,2.94,1.53,5.74,3.29,8.4,5.23,1.54-.28,3.06-.63,4.57-1.04-3.51-2.81-7.3-5.29-11.31-7.39Z"/>
  <path class="cls-2" d="m234.18,242.77c-.55-.17-1.07-.36-1.6-.53v3.79c.27.09.52.18.79.26.26.08.53.12.8.12s.56-.04.83-.12c.4-.12.78-.26,1.17-.39v-3.79c-.66.23-1.31.45-2,.67Z"/>
  <path class="cls-2" d="m213.16,172.58c-1.06-.96-2.15-1.89-3.27-2.78-1.51.41-3.03.76-4.57,1.04,1.27.92,2.5,1.89,3.7,2.9,1.4-.33,2.78-.72,4.14-1.16Z"/>
  <path class="cls-2" d="m146.42,244.17h-34.47c-.99,0-1.8-.81-1.8-1.8v-20c0-11.2,3.11-22.14,9-31.64.52-.84,1.63-1.11,2.48-.58.85.52,1.11,1.63.58,2.48-5.53,8.92-8.46,19.21-8.46,29.74v18.2h32.67c.99,0,1.8.81,1.8,1.8s-.81,1.8-1.8,1.8Z"/>
  <path class="cls-2" d="m228.1,215.99c-.48,0-.94-.19-1.27-.53l-11.19-11.19c-.7-.7-.7-1.84,0-2.55.7-.7,1.84-.7,2.54,0l9.92,9.92,21.11-21.11c.7-.7,1.84-.7,2.54,0s.7,1.84,0,2.55l-22.38,22.38c-.34.34-.79.53-1.27.53Z"/>
</svg>