<?xml version="1.0" encoding="utf-8"?>
<!-- Generator: Adobe Illustrator 25.0.0, SVG Export Plug-In . SVG Version: 6.00 Build 0)  -->
<svg version="1.1" id="Layer_1" xmlns="http://www.w3.org/2000/svg" xmlns:xlink="http://www.w3.org/1999/xlink" x="0px" y="0px"
	 viewBox="0 0 80.38 80.38" style="enable-background:new 0 0 80.38 80.38;" xml:space="preserve">
<style type="text/css">
	.st0{fill:#4A265A;}
	.st1{fill:#FFFFFF;}
	.st2{fill:#28BFA2;stroke:#4A265A;stroke-width:0.1984;stroke-miterlimit:10;}
	.st3{fill:none;stroke:#28BFA2;stroke-width:1.1339;stroke-miterlimit:10;}
	.st4{fill:#FFFFFF;stroke:#4A265A;stroke-width:0.1984;stroke-miterlimit:10;}
	.st5{fill:#28BFA2;}
	.st6{fill:#FFFFFF;stroke:#FFFFFF;stroke-width:0.0567;stroke-miterlimit:10;}
	.st7{fill:#28BFA2;stroke:#4A265A;stroke-width:0.0567;stroke-miterlimit:10;}
	.st8{fill:#FFFFFF;stroke:#4A265A;stroke-width:0.2126;stroke-miterlimit:10;}
	.st9{fill:#28BFA2;stroke:#4A265A;stroke-width:0.2835;stroke-miterlimit:10;}
	.st10{fill:#FFFFFF;stroke:#4A265A;stroke-width:0.2835;stroke-miterlimit:10;}
	.st11{fill:#FFFFFF;stroke:#4A265A;stroke-width:0.0283;stroke-miterlimit:10;}
	.st12{fill:#28BFA2;stroke:#4A265A;stroke-width:0.0283;stroke-miterlimit:10;}
	.st13{fill:none;}
	.st14{fill:#FFFFFF;stroke:#4A265A;stroke-width:0.085;stroke-miterlimit:10;}
	.st15{fill:#28BFA2;stroke:#4A265A;stroke-width:0.085;stroke-miterlimit:10;}
	.st16{fill:#28BFA2;stroke:#4A265A;stroke-width:1.0205;stroke-miterlimit:10;}
	.st17{fill:#FFFFFF;stroke:#4A265A;stroke-width:1.0205;stroke-miterlimit:10;}
	.st18{fill:none;stroke:#28BFA2;stroke-width:1.1339;stroke-linecap:round;stroke-miterlimit:10;}
	.st19{fill:#28BFA2;stroke:#4A265A;stroke-width:0.4819;stroke-miterlimit:10;}
	.st20{fill:#28BFA2;stroke:#28BFA2;stroke-width:0.2551;stroke-miterlimit:10;}
	.st21{fill:#FFFFFF;stroke:#4A265A;stroke-width:0.4819;stroke-miterlimit:10;}
	.st22{fill:none;stroke:#FFFFFF;stroke-width:1.1339;stroke-miterlimit:10;}
	.st23{fill:none;stroke:#FFFFFF;stroke-width:1.1339;stroke-linecap:round;stroke-miterlimit:10;}
	.st24{fill:#FFFFFF;stroke:#FFFFFF;stroke-width:0.4819;stroke-miterlimit:10;}
	.st25{fill:#28BFA2;stroke:#28BFA2;stroke-width:0.4819;stroke-miterlimit:10;}
	.st26{fill:#FFFFFF;stroke:#4A265A;stroke-width:0.3118;stroke-miterlimit:10;}
	.st27{fill:#FFFFFF;stroke:#4A265A;stroke-width:0.7087;stroke-miterlimit:10;}
	.st28{fill:#28BFA2;stroke:#4A265A;stroke-width:0.7087;stroke-miterlimit:10;}
	.st29{fill:#28BFA2;stroke:#4A265A;stroke-width:0.3118;stroke-miterlimit:10;}
	.st30{fill:#FFFFFF;stroke:#FFFFFF;stroke-width:0.085;stroke-miterlimit:10;}
	.st31{fill:#28BFA2;stroke:#28BFA2;stroke-width:0.085;stroke-miterlimit:10;}
	.st32{fill:#FFFFFF;stroke:#28BFA2;stroke-width:0.5669;stroke-miterlimit:10;}
</style>
<g>
	<circle class="st0" cx="40.19" cy="40.19" r="40.19"/>
	<g>
		<path class="st27" d="M27.03,39.69c-2.35,0-4.71,0-7.05,0c-0.34,0-0.67,0-1.01,0c-0.54,0-1.01,0.46-1.01,1.01
			c0,1.82,0,3.64,0,5.46c0,2.9,0,5.81,0,8.71c0,0.67,0,1.34,0,2.01c0,0.54,0.46,1.01,1.01,1.01c2.35,0,4.71,0,7.05,0
			c0.34,0,0.67,0,1.01,0c0.53,0,1.03-0.46,1.01-1.01c0-1.82,0-3.64,0-5.46c0-2.9,0-5.81,0-8.71c0-0.67,0-1.34,0-2.01
			C28.04,40.16,27.57,39.69,27.03,39.69z M26.02,46.16c0,2.9,0,5.81,0,8.71c0,0.33,0,0.67,0,1c-2.02,0-4.03,0-6.05,0
			c0-1.48,0-2.97,0-4.45c0-2.9,0-5.81,0-8.71c0-0.33,0-0.67,0-1c2.02,0,4.03,0,6.05,0C26.02,43.19,26.02,44.68,26.02,46.16z"/>
		<path class="st27" d="M43.15,35.16c0-0.54-0.46-1.01-1.01-1.01c-2.35,0-4.71,0-7.05,0c-0.34,0-0.67,0-1.01,0
			c-0.54,0-1.01,0.46-1.01,1.01c0,0.72,0,1.45,0,2.17c0,1.72,0,3.45,0,5.17c0,2.1,0,4.19,0,6.29c0,1.8,0,3.61,0,5.41
			c0,0.88-0.03,1.76,0,2.65c0,0.01,0,0.03,0,0.04c0,0.54,0.46,1.01,1.01,1.01c2.35,0,4.71,0,7.05,0c0.34,0,0.67,0,1.01,0
			c0.53,0,1.03-0.46,1.01-1.01c0-0.72,0-1.45,0-2.17c0-1.72,0-3.45,0-5.17c0-2.1,0-4.19,0-6.29c0-1.8,0-3.61,0-5.41
			c0-0.88,0.03-1.76,0-2.65C43.15,35.18,43.15,35.17,43.15,35.16z M41.14,37.32c0,1.72,0,3.45,0,5.17c0,2.1,0,4.19,0,6.29
			c0,1.8,0,3.61,0,5.41c0,0.56-0.01,1.12-0.01,1.67c-2.01,0-4.03,0-6.04,0c0-0.39,0-0.77,0-1.16c0-1.72,0-3.45,0-5.17
			c0-2.1,0-4.19,0-6.29c0-1.8,0-3.61,0-5.41c0-0.55,0.01-1.11,0.01-1.67c2.01,0,4.03,0,6.03,0C41.14,36.55,41.14,36.94,41.14,37.32z
			"/>
		<path class="st28" d="M62.25,27.83c-0.04-0.07-0.07-0.14-0.12-0.2c-0.93-1.14-1.85-2.27-2.78-3.41c-1.46-1.8-2.93-3.59-4.39-5.39
			c-0.34-0.42-0.68-0.83-1.02-1.25c-0.32-0.39-1.11-0.39-1.43,0c-0.93,1.14-1.85,2.27-2.78,3.41c-1.46,1.8-2.93,3.59-4.39,5.39
			c-0.34,0.42-0.68,0.83-1.02,1.25c-0.26,0.32-0.38,0.7-0.21,1.1c0.16,0.37,0.52,0.62,0.92,0.62c1.05,0,2.11,0,3.16,0
			c0,0.61,0,1.22,0,1.84c0,2.28,0,4.55,0,6.83c0,2.74,0,5.47,0,8.2c0,2.38,0,4.76,0,7.13c0,1.15-0.03,2.31,0,3.46
			c0,0.02,0,0.03,0,0.05c0,0.54,0.46,1.01,1.01,1.01c2.35,0,4.71,0,7.05,0c0.34,0,0.67,0,1.01,0c0.54,0,1.01-0.46,1.01-1.01
			c0-0.95,0-1.89,0-2.85c0-2.28,0-4.55,0-6.83c0-2.74,0-5.47,0-8.2c0-2.38,0-4.76,0-7.13c0-0.83,0.01-1.66,0.01-2.5
			c1.04,0,2.07,0,3.11,0c0.27,0,0.55-0.1,0.72-0.29c0.04-0.04,0.06-0.09,0.09-0.14c0.13-0.17,0.22-0.36,0.21-0.58
			C62.41,28.15,62.34,27.98,62.25,27.83z M57.28,27.33c-0.54,0-1.01,0.46-1.01,1.01c0,0.95,0,1.89,0,2.85c0,2.28,0,4.55,0,6.83
			c0,2.74,0,5.47,0,8.2c0,2.38,0,4.76,0,7.13c0,0.83-0.01,1.66-0.01,2.5c-2.01,0-4.03,0-6.04,0c0-0.61,0-1.22,0-1.84
			c0-2.28,0-4.55,0-6.83c0-2.74,0-5.47,0-8.2c0-2.38,0-4.76,0-7.13c0-1.15,0.03-2.31,0-3.46c0-0.02,0-0.03,0-0.05
			c0-0.54-0.46-1.01-1.01-1.01c-0.69,0-1.37,0-2.06,0c0.46-0.56,0.92-1.13,1.38-1.69c1.46-1.8,2.93-3.59,4.39-5.39
			c0.1-0.12,0.2-0.25,0.3-0.37c0.69,0.84,1.37,1.69,2.06,2.54c1.33,1.64,2.67,3.28,4.01,4.92C58.63,27.33,57.95,27.33,57.28,27.33z"
			/>
	</g>
</g>
</svg>
