<?xml version="1.0" encoding="UTF-8"?>
<svg id="Layer_1" data-name="Layer 1" xmlns="http://www.w3.org/2000/svg" xmlns:xlink="http://www.w3.org/1999/xlink" viewBox="0 0 368.5 368.5">
  <defs>
    <style>
      .cls-1 {
        stroke-linecap: round;
      }

      .cls-1, .cls-2, .cls-3, .cls-4 {
        fill: none;
      }

      .cls-1, .cls-3 {
        stroke: #371e55;
        stroke-miterlimit: 10;
        stroke-width: 3.63px;
      }

      .cls-5 {
        fill: #ceebe6;
      }

      .cls-4 {
        clip-path: url(#clippath);
      }
    </style>
    <clipPath id="clippath">
      <circle class="cls-2" cx="180.02" cy="187.1" r="127.92"/>
    </clipPath>
  </defs>
  <circle class="cls-5" cx="180.02" cy="187.1" r="159.9"/>
  <path class="cls-3" d="m220.81,115.06c-.97,6.45-5.21,13.06-12.94,20.2-6.53,6.03-14.44,11.44-21.42,16.22-2.28,1.56-4.43,3.03-6.39,4.43h0c-.53.37-1.23.37-1.76,0-1.95-1.39-4.11-2.87-6.39-4.43-6.98-4.78-14.89-10.19-21.42-16.22-7.73-7.14-11.97-13.75-12.94-20.2-1.05-6.92,1.14-13.93,5.93-19.03,4.79-5.1,11.66-7.71,18.63-7.09,6.97.62,13.26,4.41,17.08,10.27,3.81-5.86,10.11-9.65,17.08-10.27,6.97-.62,13.83,1.99,18.63,7.09,4.79,5.09,6.98,12.11,5.93,19.02h0Z"/>
  <g class="cls-4">
    <g>
      <path class="cls-3" d="m177.58,203.35c8.54.27,15.52-6.71,15.24-15.26-.25-7.73-6.55-14.03-14.28-14.28-8.54-.27-15.52,6.71-15.25,15.26.25,7.74,6.55,14.04,14.29,14.28Z"/>
      <path class="cls-3" d="m198.69,270.03v-43.96s0-.06,0-.09c.33-.25.65-.52.96-.83l30.55-30.55c3.33-3.33,3.33-8.7,0-12.03-3.33-3.33-8.7-3.33-12.03,0l-30.55,30.55c-.2.2-.38.4-.55.61-.25-.01-.49-.02-.74-.02h-15.1c-.25,0-.5.01-.74.02-.17-.21-.36-.41-.55-.61l-30.55-30.55c-1.67-1.67-3.84-2.5-6.02-2.5s-4.35.83-6.01,2.5c-3.33,3.33-3.33,8.7,0,12.03l30.55,30.55c.3.3.62.58.96.83,0,.03,0,.06,0,.09v43.96"/>
    </g>
  </g>
  <line class="cls-3" x1="178.78" y1="254.14" x2="178.78" y2="270.03"/>
  <g>
    <path class="cls-1" d="m145.73,263.23c0-4.26-1.69-8.34-4.7-11.35-3.01-3.01-7.09-4.7-11.35-4.7h0s-18,0-18,0c-4.26,0-8.34,1.69-11.35,4.7-3.01,3.01-4.7,7.09-4.7,11.35"/>
    <path class="cls-3" d="m133.83,224.11c0,7.26-5.89,13.15-13.15,13.15s-13.15-5.89-13.15-13.15,5.89-13.15,13.15-13.15,13.15,5.89,13.15,13.15"/>
  </g>
  <g>
    <path class="cls-1" d="m259.85,263.23c0-4.26-1.69-8.34-4.7-11.35-3.01-3.01-7.09-4.7-11.35-4.7h0s-18,0-18,0c-4.26,0-8.34,1.69-11.35,4.7-3.01,3.01-4.7,7.09-4.7,11.35"/>
    <path class="cls-3" d="m247.95,224.11c0,7.26-5.89,13.15-13.15,13.15s-13.15-5.89-13.15-13.15,5.89-13.15,13.15-13.15,13.15,5.89,13.15,13.15"/>
  </g>
</svg>