<?xml version="1.0" encoding="utf-8"?>
<!-- Generator: Adobe Illustrator 25.0.0, SVG Export Plug-In . SVG Version: 6.00 Build 0)  -->
<svg version="1.1" id="Layer_1" xmlns="http://www.w3.org/2000/svg" xmlns:xlink="http://www.w3.org/1999/xlink" x="0px" y="0px"
	 viewBox="0 0 80.38 80.38" style="enable-background:new 0 0 80.38 80.38;" xml:space="preserve">
<style type="text/css">
	.st0{fill:#4A265A;}
	.st1{fill:#FFFFFF;}
	.st2{fill:#28BFA2;stroke:#4A265A;stroke-width:0.1984;stroke-miterlimit:10;}
	.st3{fill:none;stroke:#28BFA2;stroke-width:1.1339;stroke-miterlimit:10;}
	.st4{fill:#FFFFFF;stroke:#4A265A;stroke-width:0.1984;stroke-miterlimit:10;}
	.st5{fill:#28BFA2;}
	.st6{fill:#FFFFFF;stroke:#FFFFFF;stroke-width:0.0567;stroke-miterlimit:10;}
	.st7{fill:#28BFA2;stroke:#4A265A;stroke-width:0.0567;stroke-miterlimit:10;}
	.st8{fill:#FFFFFF;stroke:#4A265A;stroke-width:0.2126;stroke-miterlimit:10;}
	.st9{fill:#28BFA2;stroke:#4A265A;stroke-width:0.2835;stroke-miterlimit:10;}
	.st10{fill:#FFFFFF;stroke:#4A265A;stroke-width:0.2835;stroke-miterlimit:10;}
	.st11{fill:#FFFFFF;stroke:#4A265A;stroke-width:0.0283;stroke-miterlimit:10;}
	.st12{fill:#28BFA2;stroke:#4A265A;stroke-width:0.0283;stroke-miterlimit:10;}
	.st13{fill:none;}
	.st14{fill:#FFFFFF;stroke:#4A265A;stroke-width:0.085;stroke-miterlimit:10;}
	.st15{fill:#28BFA2;stroke:#4A265A;stroke-width:0.085;stroke-miterlimit:10;}
	.st16{fill:#28BFA2;stroke:#4A265A;stroke-width:1.0205;stroke-miterlimit:10;}
	.st17{fill:#FFFFFF;stroke:#4A265A;stroke-width:1.0205;stroke-miterlimit:10;}
	.st18{fill:none;stroke:#28BFA2;stroke-width:1.1339;stroke-linecap:round;stroke-miterlimit:10;}
	.st19{fill:#28BFA2;stroke:#4A265A;stroke-width:0.4819;stroke-miterlimit:10;}
	.st20{fill:#28BFA2;stroke:#28BFA2;stroke-width:0.2551;stroke-miterlimit:10;}
	.st21{fill:#FFFFFF;stroke:#4A265A;stroke-width:0.4819;stroke-miterlimit:10;}
	.st22{fill:none;stroke:#FFFFFF;stroke-width:1.1339;stroke-miterlimit:10;}
	.st23{fill:none;stroke:#FFFFFF;stroke-width:1.1339;stroke-linecap:round;stroke-miterlimit:10;}
	.st24{fill:#FFFFFF;stroke:#FFFFFF;stroke-width:0.4819;stroke-miterlimit:10;}
	.st25{fill:#28BFA2;stroke:#28BFA2;stroke-width:0.4819;stroke-miterlimit:10;}
	.st26{fill:#FFFFFF;stroke:#4A265A;stroke-width:0.3118;stroke-miterlimit:10;}
	.st27{fill:#FFFFFF;stroke:#4A265A;stroke-width:0.7087;stroke-miterlimit:10;}
	.st28{fill:#28BFA2;stroke:#4A265A;stroke-width:0.7087;stroke-miterlimit:10;}
	.st29{fill:#28BFA2;stroke:#4A265A;stroke-width:0.3118;stroke-miterlimit:10;}
	.st30{fill:#FFFFFF;stroke:#FFFFFF;stroke-width:0.085;stroke-miterlimit:10;}
	.st31{fill:#28BFA2;stroke:#28BFA2;stroke-width:0.085;stroke-miterlimit:10;}
	.st32{fill:#FFFFFF;stroke:#28BFA2;stroke-width:0.5669;stroke-miterlimit:10;}
</style>
<g>
	<circle class="st0" cx="40.19" cy="40.19" r="40.19"/>
	<g>
		<path class="st13" d="M36.41,18.54c-4.32,0-7.84,3.52-7.84,7.84c0,1.68,0.54,3.24,1.44,4.51l0.37-0.44
			c1.71-1.71,4.01-2.66,6.46-2.66c0.33,0,0.67,0,0.99,0.05l0.05,0.01l0.04-0.02c1.87-0.91,3.93-1.14,5.98-0.66l0,0
			c0,0,0.1,0.02,0.28,0.08c0.03-0.28,0.05-0.57,0.05-0.86C44.25,22.06,40.73,18.54,36.41,18.54z"/>
		<path class="st13" d="M36.89,34.2c0.33-0.01,0.58,0.22,0.6,0.53c0.02,0.31-0.22,0.58-0.53,0.6c-0.18,0.01-0.36,0.02-0.54,0.02
			c-0.37,0-0.74-0.03-1.1-0.08c0.23,0.67,0.86,1.14,1.54,1.14c0.88,0,1.63-0.75,1.63-1.63c0-0.88-0.75-1.63-1.63-1.63
			c-0.59,0-1.13,0.32-1.41,0.84l0,0c0,0-0.03,0.06-0.07,0.15c0.34,0.05,0.69,0.08,1.04,0.08C36.57,34.22,36.73,34.21,36.89,34.2z"/>
		<path class="st13" d="M44.36,28.4c-0.22-0.07-0.44-0.14-0.67-0.19c-1.09-0.24-2.17-0.25-3.3-0.05l-0.52,0.09l0.49,0.2
			c3.43,1.42,5.65,4.74,5.65,8.45c0,2.62-1.13,5.12-3.09,6.84l-0.22,0.2l0.29,0.07c0.19,0.05,0.32,0.13,0.39,0.27l1.34,2.19
			l2.81,0.29c0.22,0.06,0.38,0.15,0.43,0.26c0.09,0.18,0.11,0.37,0.04,0.51l-0.92,2.61l-0.02,0.07l0.66,1.05l2.81,0.29
			c0.22,0.06,0.38,0.15,0.43,0.26c0.09,0.18,0.11,0.37,0.04,0.51l-0.94,2.68l1,1.52l4.01,0.51l1.27-3.81l-7.67-12.28
			c-0.12-0.19-0.12-0.42,0-0.61c1.66-2.59,1.68-5.95,0.05-8.57c-0.94-1.52-2.38-2.65-4.11-3.27c-0.01,0-0.02,0-0.04,0
			C44.49,28.47,44.42,28.44,44.36,28.4z"/>
		<path class="st13" d="M34.01,33.83c0.07-0.2,0.13-0.34,0.13-0.35c0.47-1.12,1.57-1.84,2.8-1.84c1.7,0,3.08,1.38,3.08,3.08
			c0,1.7-1.38,3.08-3.08,3.08c-1.64,0-2.97-1.24-3.07-2.84c-1.44-0.43-2.74-1.2-3.78-2.24c-0.8,1.25-1.23,2.69-1.23,4.21
			c0,3.08,1.8,5.92,4.59,7.24c0.18,0.07,0.29,0.25,0.29,0.48v2.59l2.24,1.74c0.15,0.11,0.23,0.26,0.23,0.46
			c0,0.19-0.07,0.34-0.23,0.46l-2.23,1.74v1.21l2.24,1.74c0.15,0.11,0.23,0.26,0.23,0.45c0,0.19-0.07,0.34-0.23,0.46l-2.23,1.74
			v1.84l3.1,2.59l3.1-2.59V44.73c0-0.3,0.27-0.46,0.44-0.54c2.78-1.34,4.58-4.18,4.58-7.24c0-4.43-3.6-8.03-8.03-8.03
			c-2.21,0-4.27,0.87-5.81,2.46l-0.34,0.43C31.67,32.74,32.77,33.43,34.01,33.83z"/>
		<path class="st0" d="M36.85,36.57c0.97,0,1.79-0.82,1.79-1.79c0-0.97-0.82-1.79-1.79-1.79c-0.68,0-1.26,0.39-1.55,0.92
			c0,0-0.04,0.08-0.09,0.2c0.05,0.01,0.1,0.02,0.16,0.02c0.04-0.09,0.07-0.15,0.07-0.15l0,0c0.28-0.52,0.82-0.84,1.41-0.84
			c0.88,0,1.63,0.75,1.63,1.63c0,0.88-0.75,1.63-1.63,1.63c-0.68,0-1.31-0.47-1.54-1.14c-0.06-0.01-0.11-0.02-0.17-0.03
			c0.01,0.02,0.01,0.04,0.02,0.06C35.4,36.04,36.07,36.57,36.85,36.57z"/>
		<path class="st1" d="M36.94,37.81c1.7,0,3.08-1.38,3.08-3.08c0-1.7-1.38-3.08-3.08-3.08c-1.24,0-2.34,0.72-2.8,1.84
			c0,0.01-0.06,0.15-0.13,0.35c0.34,0.11,0.69,0.19,1.04,0.25c0.05-0.14,0.1-0.24,0.11-0.25c0.34-0.62,0.98-1,1.68-1
			c1.05,0,1.94,0.89,1.94,1.94c0,1.05-0.89,1.94-1.94,1.94c-0.82,0-1.57-0.56-1.84-1.36c-0.02-0.05-0.02-0.09-0.03-0.14
			c-0.37-0.06-0.74-0.14-1.1-0.24C33.98,36.58,35.3,37.81,36.94,37.81z"/>
		<path class="st1" d="M35.3,33.91c0.29-0.53,0.87-0.92,1.55-0.92c0.97,0,1.79,0.82,1.79,1.79c0,0.97-0.82,1.79-1.79,1.79
			c-0.77,0-1.45-0.53-1.69-1.26c-0.01-0.02-0.01-0.04-0.02-0.06c-0.06-0.01-0.11-0.02-0.17-0.03c0.01,0.05,0.02,0.09,0.03,0.14
			c0.27,0.8,1.02,1.36,1.84,1.36c1.05,0,1.94-0.89,1.94-1.94c0-1.05-0.89-1.94-1.94-1.94c-0.7,0-1.35,0.38-1.68,1
			c-0.01,0.02-0.06,0.11-0.11,0.25c0.05,0.01,0.11,0.02,0.16,0.02C35.26,33.99,35.3,33.91,35.3,33.91z"/>
		<path class="st1" d="M57.43,52.82L49.8,40.73l0.05-0.08c1.66-2.9,1.59-6.59-0.19-9.4c-0.92-1.48-2.22-2.63-3.85-3.42
			c-0.19-0.08-0.36-0.15-0.52-0.21c-0.02,0.14-0.03,0.28-0.06,0.42c-0.05,0.3-0.33,0.49-0.63,0.45c1.73,0.62,3.17,1.75,4.11,3.27
			c1.63,2.62,1.61,5.98-0.05,8.57c-0.11,0.19-0.11,0.42,0,0.61l7.67,12.28l-1.27,3.81l-4.01-0.51l-1-1.52l0.94-2.68
			c0.07-0.14,0.05-0.32-0.04-0.51c-0.05-0.11-0.21-0.2-0.43-0.26l-2.81-0.29l-0.66-1.05l0.02-0.07L48,47.53
			c0.07-0.14,0.05-0.32-0.04-0.51c-0.05-0.11-0.21-0.2-0.43-0.26l-2.81-0.29l-1.34-2.19c-0.07-0.13-0.2-0.22-0.39-0.27l-0.29-0.07
			l0.22-0.2c1.96-1.72,3.09-4.21,3.09-6.84c0-3.71-2.22-7.03-5.65-8.45l-0.49-0.2l0.52-0.09c1.13-0.2,2.2-0.19,3.3,0.05
			c0.23,0.05,0.45,0.12,0.67,0.19c-0.18-0.12-0.29-0.35-0.24-0.58c0.04-0.19,0.06-0.39,0.08-0.59c-0.18-0.05-0.28-0.07-0.28-0.08
			l0,0c-2.05-0.48-4.12-0.25-5.98,0.66l-0.04,0.02l-0.05-0.01c-0.33-0.05-0.66-0.05-0.99-0.05c-2.45,0-4.74,0.94-6.46,2.66
			l-0.37,0.44c0.23,0.33,0.49,0.64,0.77,0.93l0.34-0.43c1.54-1.59,3.6-2.46,5.81-2.46c4.43,0,8.03,3.6,8.03,8.03
			c0,3.06-1.8,5.9-4.58,7.24c-0.17,0.07-0.44,0.23-0.44,0.54V59.1l-3.1,2.59l-3.1-2.59v-1.84l2.23-1.74
			c0.15-0.12,0.23-0.27,0.23-0.46c0-0.19-0.07-0.34-0.23-0.45l-2.24-1.74v-1.21l2.23-1.74c0.15-0.12,0.23-0.27,0.23-0.46
			c0-0.19-0.07-0.34-0.23-0.46l-2.24-1.74v-2.59c0-0.23-0.11-0.41-0.29-0.48c-2.79-1.32-4.59-4.16-4.59-7.24
			c0-1.52,0.43-2.97,1.23-4.21c-0.29-0.29-0.56-0.6-0.81-0.93c-1.05,1.54-1.61,3.32-1.61,5.14c0,3.34,1.86,6.43,4.84,8.07l0.08,0.04
			v2.51c0,0.19,0.07,0.34,0.23,0.46l1.9,1.48l-1.9,1.43c-0.15,0.12-0.23,0.26-0.23,0.46v1.79c0,0.19,0.07,0.34,0.23,0.46l1.9,1.48
			l-1.9,1.48c-0.16,0.12-0.23,0.27-0.23,0.46v2.37c0,0.15,0.08,0.34,0.17,0.4l3.68,3.05c0.11,0.07,0.22,0.11,0.33,0.11
			c0.12,0,0.27-0.04,0.33-0.1l3.68-3.05c0.11-0.11,0.18-0.27,0.18-0.41V45.23l0.17,0.02c0.42,0.05,0.85,0.05,1.27,0l0.1-0.01
			l1.31,2.11c0.06,0.12,0.21,0.21,0.44,0.27l2.35,0.26l-0.79,2.26c-0.07,0.14-0.05,0.32,0.04,0.51l0.96,1.48
			c0.06,0.12,0.22,0.22,0.44,0.27l2.35,0.26l-0.79,2.26c-0.07,0.14-0.05,0.32,0.04,0.51l1.25,2.02c0.07,0.14,0.21,0.22,0.43,0.27
			l4.72,0.63l0.08,0c0.23,0,0.46-0.16,0.53-0.38l1.5-4.54C57.51,53.1,57.49,52.96,57.43,52.82z"/>
		<path class="st5" d="M35.3,35.26C35.3,35.27,35.31,35.27,35.3,35.26c0.37,0.05,0.73,0.08,1.11,0.08c0.18,0,0.36-0.01,0.54-0.02
			c0.31-0.02,0.55-0.29,0.53-0.6c-0.02-0.31-0.27-0.54-0.6-0.53c-0.16,0.01-0.32,0.01-0.48,0.01c-0.35,0-0.7-0.03-1.04-0.08
			C35.28,34.36,35.15,34.8,35.3,35.26z"/>
		<path class="st5" d="M44.57,28.48c0.01,0,0.02,0,0.04,0c-0.08-0.03-0.16-0.06-0.24-0.08C44.42,28.44,44.49,28.47,44.57,28.48z"/>
		<path class="st5" d="M30.1,32.74c1.04,1.03,2.34,1.81,3.78,2.24c0-0.04-0.01-0.07-0.01-0.1l0-0.02c-0.04-0.34,0.06-0.74,0.15-1.02
			c-1.24-0.4-2.34-1.1-3.22-2.01l-0.59,0.75C30.16,32.62,30.13,32.69,30.1,32.74z"/>
		<path class="st5" d="M30.02,30.89c-0.9-1.28-1.44-2.83-1.44-4.51c0-4.32,3.51-7.84,7.84-7.84c4.32,0,7.84,3.52,7.84,7.84
			c0,0.29-0.02,0.57-0.05,0.86c0.23,0.07,0.6,0.19,1.09,0.38c0.06-0.41,0.09-0.82,0.09-1.23c0-4.95-4.02-8.97-8.97-8.97
			c-4.95,0-8.97,4.02-8.97,8.97c0,2.04,0.69,3.92,1.85,5.43c0.05-0.07,0.09-0.14,0.14-0.21L30.02,30.89z"/>
		<path class="st5" d="M35.3,35.26c-0.15-0.46-0.02-0.9,0.07-1.13c-0.05-0.01-0.11-0.02-0.16-0.02c-0.09,0.24-0.2,0.67-0.07,1.13
			C35.2,35.26,35.25,35.27,35.3,35.26C35.31,35.27,35.3,35.27,35.3,35.26z"/>
		<path class="st5" d="M35.05,34.09c-0.36-0.06-0.71-0.15-1.04-0.25c-0.09,0.28-0.19,0.68-0.15,1.02l0,0.02
			c0,0.04,0.01,0.07,0.01,0.1c0.36,0.11,0.72,0.18,1.1,0.24C34.86,34.76,34.96,34.34,35.05,34.09z"/>
		<path class="st5" d="M34.97,35.22c0.06,0.01,0.11,0.02,0.17,0.03c-0.13-0.46-0.02-0.89,0.07-1.13c-0.05-0.01-0.11-0.01-0.16-0.02
			C34.96,34.34,34.86,34.76,34.97,35.22z"/>
		<path class="st5" d="M30.1,32.74c0.04-0.06,0.06-0.12,0.1-0.17l0.59-0.75c-0.28-0.29-0.54-0.6-0.77-0.93l-0.59,0.7
			c-0.05,0.07-0.09,0.14-0.14,0.21C29.54,32.14,29.81,32.45,30.1,32.74z"/>
		<path class="st1" d="M44.12,27.82c-0.04,0.23,0.06,0.45,0.24,0.58c0.08,0.03,0.16,0.06,0.24,0.08c0.3,0.04,0.57-0.16,0.63-0.45
			c0.03-0.14,0.04-0.28,0.06-0.42c-0.49-0.19-0.86-0.31-1.09-0.38C44.18,27.43,44.15,27.63,44.12,27.82z"/>
	</g>
</g>
</svg>
