<?xml version="1.0" encoding="utf-8"?>
<!-- Generator: Adobe Illustrator 25.0.0, SVG Export Plug-In . SVG Version: 6.00 Build 0)  -->
<svg version="1.1" id="Layer_1" xmlns="http://www.w3.org/2000/svg" xmlns:xlink="http://www.w3.org/1999/xlink" x="0px" y="0px"
	 viewBox="0 0 80.38 80.38" style="enable-background:new 0 0 80.38 80.38;" xml:space="preserve">
<style type="text/css">
	.st0{fill:#4A265A;}
	.st1{fill:#FFFFFF;}
	.st2{fill:#28BFA2;stroke:#4A265A;stroke-width:0.1984;stroke-miterlimit:10;}
	.st3{fill:none;stroke:#28BFA2;stroke-width:1.1339;stroke-miterlimit:10;}
	.st4{fill:#FFFFFF;stroke:#4A265A;stroke-width:0.1984;stroke-miterlimit:10;}
	.st5{fill:#28BFA2;}
	.st6{fill:#FFFFFF;stroke:#FFFFFF;stroke-width:0.0567;stroke-miterlimit:10;}
	.st7{fill:#28BFA2;stroke:#4A265A;stroke-width:0.0567;stroke-miterlimit:10;}
	.st8{fill:#FFFFFF;stroke:#4A265A;stroke-width:0.2126;stroke-miterlimit:10;}
	.st9{fill:#28BFA2;stroke:#4A265A;stroke-width:0.2835;stroke-miterlimit:10;}
	.st10{fill:#FFFFFF;stroke:#4A265A;stroke-width:0.2835;stroke-miterlimit:10;}
	.st11{fill:#FFFFFF;stroke:#4A265A;stroke-width:0.0283;stroke-miterlimit:10;}
	.st12{fill:#28BFA2;stroke:#4A265A;stroke-width:0.0283;stroke-miterlimit:10;}
	.st13{fill:none;}
	.st14{fill:#FFFFFF;stroke:#4A265A;stroke-width:0.085;stroke-miterlimit:10;}
	.st15{fill:#28BFA2;stroke:#4A265A;stroke-width:0.085;stroke-miterlimit:10;}
	.st16{fill:#28BFA2;stroke:#4A265A;stroke-width:1.0205;stroke-miterlimit:10;}
	.st17{fill:#FFFFFF;stroke:#4A265A;stroke-width:1.0205;stroke-miterlimit:10;}
	.st18{fill:none;stroke:#28BFA2;stroke-width:1.1339;stroke-linecap:round;stroke-miterlimit:10;}
	.st19{fill:#28BFA2;stroke:#4A265A;stroke-width:0.4819;stroke-miterlimit:10;}
	.st20{fill:#28BFA2;stroke:#28BFA2;stroke-width:0.2551;stroke-miterlimit:10;}
	.st21{fill:#FFFFFF;stroke:#4A265A;stroke-width:0.4819;stroke-miterlimit:10;}
	.st22{fill:none;stroke:#FFFFFF;stroke-width:1.1339;stroke-miterlimit:10;}
	.st23{fill:none;stroke:#FFFFFF;stroke-width:1.1339;stroke-linecap:round;stroke-miterlimit:10;}
	.st24{fill:#FFFFFF;stroke:#FFFFFF;stroke-width:0.4819;stroke-miterlimit:10;}
	.st25{fill:#28BFA2;stroke:#28BFA2;stroke-width:0.4819;stroke-miterlimit:10;}
	.st26{fill:#FFFFFF;stroke:#4A265A;stroke-width:0.3118;stroke-miterlimit:10;}
	.st27{fill:#FFFFFF;stroke:#4A265A;stroke-width:0.7087;stroke-miterlimit:10;}
	.st28{fill:#28BFA2;stroke:#4A265A;stroke-width:0.7087;stroke-miterlimit:10;}
	.st29{fill:#28BFA2;stroke:#4A265A;stroke-width:0.3118;stroke-miterlimit:10;}
	.st30{fill:#FFFFFF;stroke:#FFFFFF;stroke-width:0.085;stroke-miterlimit:10;}
	.st31{fill:#28BFA2;stroke:#28BFA2;stroke-width:0.085;stroke-miterlimit:10;}
	.st32{fill:#FFFFFF;stroke:#28BFA2;stroke-width:0.5669;stroke-miterlimit:10;}
</style>
<g>
	<circle class="st0" cx="40.19" cy="40.19" r="40.19"/>
	<path class="st2" d="M29.29,38.18c-5.44,0-9.86,4.42-9.86,9.86c0,5.44,4.42,9.86,9.86,9.86c5.44,0,9.86-4.42,9.86-9.86
		C39.15,42.6,34.73,38.18,29.29,38.18z M29.29,56.57c-4.71,0-8.54-3.83-8.54-8.54c0-4.71,3.83-8.54,8.54-8.54
		c4.71,0,8.54,3.83,8.54,8.54C37.83,52.75,34,56.57,29.29,56.57z"/>
	<path class="st3" d="M29.29,42.79c-2.89,0-5.25,2.35-5.25,5.24c0,2.89,2.35,5.24,5.25,5.24c2.89,0,5.24-2.35,5.24-5.24
		C34.54,45.15,32.19,42.79,29.29,42.79z"/>
	<path class="st4" d="M53.47,36.93h-6.89l-4.81-14.17c-0.06-0.16-0.21-0.28-0.38-0.28H24.53c-0.22,0-0.41,0.18-0.41,0.41v0.51
		c0,0.22,0.18,0.41,0.41,0.41h2.31l-2.87,11.77c-4.65,2.05-7.9,6.7-7.9,12.1c0,0.22,0.18,0.41,0.41,0.41h0.51
		c0.22,0,0.41-0.18,0.41-0.41c0-6.56,5.34-11.9,11.9-11.9c1.75,0,3.42,0.38,4.92,1.06c0.07,0.05,0.15,0.09,0.24,0.11
		c3.99,1.92,6.74,6.01,6.74,10.72v2.48c0,0.22,0.18,0.41,0.41,0.41h12.23c-0.14,0.48-0.22,0.99-0.22,1.53c0,2.95,2.4,5.35,5.35,5.35
		c2.95,0,5.35-2.4,5.35-5.35c0-1.08-0.32-2.09-0.88-2.93v-8.87c0-1.85-1.5-3.35-3.35-3.35h-5.44L53.47,36.93z M25.47,35.02
		l2.74-11.21h12.52l4.45,13.13h-2.82l-1.11-2.5l1.31-0.9c0.26-0.18,0.33-0.52,0.17-0.79c-0.16-0.27-0.5-0.36-0.78-0.22l-4.02,2.11
		c-0.29,0.15-0.4,0.51-0.25,0.79c0.1,0.2,0.31,0.31,0.52,0.31c0.09,0,0.19-0.02,0.27-0.07l1.65-0.87l0.94,2.12H37
		c-0.6-0.43-1.23-0.81-1.9-1.14l-0.87-7.18c-0.02-0.17-0.12-0.33-0.27-0.43c-0.15-0.09-0.33-0.12-0.5-0.06l-1.4,0.46
		c-0.22,0.07-0.38,0.27-0.4,0.5l-0.53,5.49c-0.6-0.08-1.21-0.13-1.83-0.13C27.96,34.45,26.68,34.65,25.47,35.02z M33.84,35.26
		c-0.51-0.19-1.03-0.34-1.56-0.47l0.5-5.2l0.36-0.12L33.84,35.26z M42.52,49.24v-1.56c0-3.68-1.51-7.02-3.95-9.42h21.52
		c0.91,0,1.69,0.61,1.94,1.44h-3.06c-0.37,0-0.66,0.3-0.66,0.66c0,0.37,0.3,0.66,0.66,0.66h3.15v1.43h-3.15
		c-0.37,0-0.66,0.3-0.66,0.66s0.3,0.66,0.66,0.66h3.15v3.99c-0.88-0.64-1.97-1.03-3.15-1.03c-1.9,0-3.58,1-4.53,2.5L42.52,49.24
		L42.52,49.24z M58.96,56.12c-2.22,0-4.03-1.81-4.03-4.03c0-2.22,1.81-4.03,4.03-4.03c2.22,0,4.02,1.81,4.02,4.03
		S61.18,56.12,58.96,56.12z"/>
	<path class="st5" d="M53.49,37.03v-6.12c0-0.04,0-0.07-0.01-0.11c-0.04-0.2-0.07-0.8,0.2-1.13c0.17-0.2,0.44-0.3,0.84-0.3
		c0.32,0,0.59-0.26,0.59-0.59s-0.26-0.59-0.59-0.59c-0.95,0-1.48,0.4-1.75,0.73c-0.61,0.74-0.5,1.75-0.46,2.03v6.07"/>
</g>
</svg>
